{
.appVersion = "3228";
.formatVersion = 3;
DisplayStrings = (
abcdefghijklmnopqrstuvwxyz,
ABCDEFGHIJKLMNOPQRSTUVWXYZ,
"/_c.arch/_c.bowlL/_c.bowlR/_c.stemL/_c.stemLA/_c.stemLD/_c.stemR/_c.stemRA"
);
axes = (
{
name = Weight;
tag = wght;
},
{
name = Width;
tag = wdth;
}
);
date = "2023-10-13 15:17:30 +0000";
familyName = "Pendot A Test A";
fontMaster = (
{
axesValues = (
100,
100
);
id = m01;
metricValues = (
{
over = 0;
pos = 1700;
},
{
over = 0;
pos = 1700;
},
{
over = 0;
pos = 1000;
},
{
over = 0;
},
{
over = 0;
pos = -500;
}
);
name = Regular;
}
);
glyphs = (
{
glyphname = A;
layers = (
{
layerId = m01;
shapes = (
{
closed = 1;
nodes = (
(1304.76915,-42.5,os),
(1287.5,-25.23085,os),
(1287.5,0,c),
(1287.5,25.23085,os),
(1304.76915,42.5,os),
(1330,42.5,c),
(1355.23085,42.5,os),
(1372.5,25.23085,os),
(1372.5,0,c),
(1372.5,-25.23085,os),
(1355.23085,-42.5,os),
(1330,-42.5,c)
);
},
{
closed = 1;
nodes = (
(333.03915,557.6,os),
(315.77,574.86915,os),
(315.77,600.1,c),
(315.77,625.33085,os),
(333.03915,642.6,os),
(358.27,642.6,c),
(383.50085,642.6,os),
(400.77,625.33085,os),
(400.77,600.1,c),
(400.77,574.86915,os),
(383.50085,557.6,os),
(358.27,557.6,c)
);
},
{
closed = 1;
nodes = (
(124.76915,-42.5,os),
(107.5,-25.23085,os),
(107.5,0,c),
(107.5,25.23085,os),
(124.76915,42.5,os),
(150,42.5,c),
(175.23085,42.5,os),
(192.5,25.23085,os),
(192.5,0,c),
(192.5,-25.23085,os),
(175.23085,-42.5,os),
(150,-42.5,c)
);
},
{
closed = 1;
nodes = (
(441.04255,557.5,os),
(423.7734,574.76915,os),
(423.7734,600,c),
(423.7734,625.23085,os),
(441.04255,642.5,os),
(466.2734,642.5,c),
(491.50425,642.5,os),
(508.7734,625.23085,os),
(508.7734,600,c),
(508.7734,574.76915,os),
(491.50425,557.5,os),
(466.2734,557.5,c)
);
},
{
closed = 1;
nodes = (
(1095.76915,557.5,os),
(1078.5,574.76915,os),
(1078.5,600,c),
(1078.5,625.23085,os),
(1095.76915,642.5,os),
(1121,642.5,c),
(1146.23085,642.5,os),
(1163.5,625.23085,os),
(1163.5,600,c),
(1163.5,574.76915,os),
(1146.23085,557.5,os),
(1121,557.5,c)
);
},
{
closed = 1;
nodes = (
(1264.05915,74.8,os),
(1246.79,92.06915,os),
(1246.79,117.3,c),
(1246.79,142.53085,os),
(1264.05915,159.8,os),
(1289.29,159.8,c),
(1314.52085,159.8,os),
(1331.79,142.53085,os),
(1331.79,117.3,c),
(1331.79,92.06915,os),
(1314.52085,74.8,os),
(1289.29,74.8,c)
);
},
{
closed = 1;
nodes = (
(1223.34915,192.1,os),
(1206.08,209.36915,os),
(1206.08,234.6,c),
(1206.08,259.83085,os),
(1223.34915,277.1,os),
(1248.58,277.1,c),
(1273.81085,277.1,os),
(1291.08,259.83085,os),
(1291.08,234.6,c),
(1291.08,209.36915,os),
(1273.81085,192.1,os),
(1248.58,192.1,c)
);
},
{
closed = 1;
nodes = (
(1182.63915,309.4,os),
(1165.37,326.66915,os),
(1165.37,351.9,c),
(1165.37,377.13085,os),
(1182.63915,394.4,os),
(1207.87,394.4,c),
(1233.10085,394.4,os),
(1250.37,377.13085,os),
(1250.37,351.9,c),
(1250.37,326.66915,os),
(1233.10085,309.4,os),
(1207.87,309.4,c)
);
},
{
closed = 1;
nodes = (
(1141.92915,426.7,os),
(1124.66,443.96915,os),
(1124.66,469.2,c),
(1124.66,494.43085,os),
(1141.92915,511.7,os),
(1167.16,511.7,c),
(1192.39085,511.7,os),
(1209.66,494.43085,os),
(1209.66,469.2,c),
(1209.66,443.96915,os),
(1192.39085,426.7,os),
(1167.16,426.7,c)
);
},
{
closed = 1;
nodes = (
(1060.50915,661.3,os),
(1043.24,678.56915,os),
(1043.24,703.8,c),
(1043.24,729.03085,os),
(1060.50915,746.3,os),
(1085.74,746.3,c),
(1110.97085,746.3,os),
(1128.24,729.03085,os),
(1128.24,703.8,c),
(1128.24,678.56915,os),
(1110.97085,661.3,os),
(1085.74,661.3,c)
);
},
{
closed = 1;
nodes = (
(1019.79915,778.6,os),
(1002.53,795.86915,os),
(1002.53,821.1,c),
(1002.53,846.33085,os),
(1019.79915,863.6,os),
(1045.03,863.6,c),
(1070.26085,863.6,os),
(1087.53,846.33085,os),
(1087.53,821.1,c),
(1087.53,795.86915,os),
(1070.26085,778.6,os),
(1045.03,778.6,c)
);
},
{
closed = 1;
nodes = (
(979.08915,895.9,os),
(961.82,913.16915,os),
(961.82,938.4,c),
(961.82,963.63085,os),
(979.08915,980.9,os),
(1004.32,980.9,c),
(1029.55085,980.9,os),
(1046.82,963.63085,os),
(1046.82,938.4,c),
(1046.82,913.16915,os),
(1029.55085,895.9,os),
(1004.32,895.9,c)
);
},
{
closed = 1;
nodes = (
(938.37915,1013.2,os),
(921.11,1030.46915,os),
(921.11,1055.7,c),
(921.11,1080.93085,os),
(938.37915,1098.2,os),
(963.61,1098.2,c),
(988.84085,1098.2,os),
(1006.11,1080.93085,os),
(1006.11,1055.7,c),
(1006.11,1030.46915,os),
(988.84085,1013.2,os),
(963.61,1013.2,c)
);
},
{
closed = 1;
nodes = (
(897.66915,1130.5,os),
(880.4,1147.76915,os),
(880.4,1173,c),
(880.4,1198.23085,os),
(897.66915,1215.5,os),
(922.9,1215.5,c),
(948.13085,1215.5,os),
(965.4,1198.23085,os),
(965.4,1173,c),
(965.4,1147.76915,os),
(948.13085,1130.5,os),
(922.9,1130.5,c)
);
},
{
closed = 1;
nodes = (
(856.95915,1247.8,os),
(839.69,1265.06915,os),
(839.69,1290.3,c),
(839.69,1315.53085,os),
(856.95915,1332.8,os),
(882.19,1332.8,c),
(907.42085,1332.8,os),
(924.69,1315.53085,os),
(924.69,1290.3,c),
(924.69,1265.06915,os),
(907.42085,1247.8,os),
(882.19,1247.8,c)
);
},
{
closed = 1;
nodes = (
(816.24915,1365.1,os),
(798.98,1382.36915,os),
(798.98,1407.6,c),
(798.98,1432.83085,os),
(816.24915,1450.1,os),
(841.48,1450.1,c),
(866.71085,1450.1,os),
(883.98,1432.83085,os),
(883.98,1407.6,c),
(883.98,1382.36915,os),
(866.71085,1365.1,os),
(841.48,1365.1,c)
);
},
{
closed = 1;
nodes = (
(775.53915,1482.4,os),
(758.27,1499.66915,os),
(758.27,1524.9,c),
(758.27,1550.13085,os),
(775.53915,1567.4,os),
(800.77,1567.4,c),
(826.00085,1567.4,os),
(843.27,1550.13085,os),
(843.27,1524.9,c),
(843.27,1499.66915,os),
(826.00085,1482.4,os),
(800.77,1482.4,c)
);
},
{
closed = 1;
nodes = (
(734.82915,1599.7,os),
(717.56,1616.96915,os),
(717.56,1642.2,c),
(717.56,1667.43085,os),
(734.82915,1684.7,os),
(760.06,1684.7,c),
(785.29085,1684.7,os),
(802.56,1667.43085,os),
(802.56,1642.2,c),
(802.56,1616.96915,os),
(785.29085,1599.7,os),
(760.06,1599.7,c)
);
},
{
closed = 1;
nodes = (
(653.31062,1480.4161,os),
(636.04147,1497.68525,os),
(636.04147,1522.9161,c),
(636.04147,1548.14695,os),
(653.31062,1565.4161,os),
(678.54147,1565.4161,c),
(703.77232,1565.4161,os),
(721.04147,1548.14695,os),
(721.04147,1522.9161,c),
(721.04147,1497.68525,os),
(703.77232,1480.4161,os),
(678.54147,1480.4161,c)
);
},
{
closed = 1;
nodes = (
(612.46551,1362.7268,os),
(595.19636,1379.99595,os),
(595.19636,1405.2268,c),
(595.19636,1430.45765,os),
(612.46551,1447.7268,os),
(637.69636,1447.7268,c),
(662.92721,1447.7268,os),
(680.19636,1430.45765,os),
(680.19636,1405.2268,c),
(680.19636,1379.99595,os),
(662.92721,1362.7268,os),
(637.69636,1362.7268,c)
);
},
{
closed = 1;
nodes = (
(571.6204,1245.0375,os),
(554.35125,1262.30665,os),
(554.35125,1287.5375,c),
(554.35125,1312.76835,os),
(571.6204,1330.0375,os),
(596.85125,1330.0375,c),
(622.0821,1330.0375,os),
(639.35125,1312.76835,os),
(639.35125,1287.5375,c),
(639.35125,1262.30665,os),
(622.0821,1245.0375,os),
(596.85125,1245.0375,c)
);
},
{
closed = 1;
nodes = (
(530.77529,1127.3482,os),
(513.50614,1144.61735,os),
(513.50614,1169.8482,c),
(513.50614,1195.07905,os),
(530.77529,1212.3482,os),
(556.00614,1212.3482,c),
(581.23699,1212.3482,os),
(598.50614,1195.07905,os),
(598.50614,1169.8482,c),
(598.50614,1144.61735,os),
(581.23699,1127.3482,os),
(556.00614,1127.3482,c)
);
},
{
closed = 1;
nodes = (
(489.93018,1009.6589,os),
(472.66103,1026.92805,os),
(472.66103,1052.1589,c),
(472.66103,1077.38975,os),
(489.93018,1094.6589,os),
(515.16103,1094.6589,c),
(540.39188,1094.6589,os),
(557.66103,1077.38975,os),
(557.66103,1052.1589,c),
(557.66103,1026.92805,os),
(540.39188,1009.6589,os),
(515.16103,1009.6589,c)
);
},
{
closed = 1;
nodes = (
(449.08507,891.9696,os),
(431.81592,909.23875,os),
(431.81592,934.4696,c),
(431.81592,959.70045,os),
(449.08507,976.9696,os),
(474.31592,976.9696,c),
(499.54677,976.9696,os),
(516.81592,959.70045,os),
(516.81592,934.4696,c),
(516.81592,909.23875,os),
(499.54677,891.9696,os),
(474.31592,891.9696,c)
);
},
{
closed = 1;
nodes = (
(408.23996,774.2803,os),
(390.97081,791.54945,os),
(390.97081,816.7803,c),
(390.97081,842.01115,os),
(408.23996,859.2803,os),
(433.47081,859.2803,c),
(458.70166,859.2803,os),
(475.97081,842.01115,os),
(475.97081,816.7803,c),
(475.97081,791.54945,os),
(458.70166,774.2803,os),
(433.47081,774.2803,c)
);
},
{
closed = 1;
nodes = (
(367.39485,656.591,os),
(350.1257,673.86015,os),
(350.1257,699.091,c),
(350.1257,724.32185,os),
(367.39485,741.591,os),
(392.6257,741.591,c),
(417.85655,741.591,os),
(435.1257,724.32185,os),
(435.1257,699.091,c),
(435.1257,673.86015,os),
(417.85655,656.591,os),
(392.6257,656.591,c)
);
},
{
closed = 1;
nodes = (
(162.67429,66.7182,os),
(145.40514,83.98735,os),
(145.40514,109.2182,c),
(145.40514,134.44905,os),
(162.67429,151.7182,os),
(187.90514,151.7182,c),
(213.13599,151.7182,os),
(230.40514,134.44905,os),
(230.40514,109.2182,c),
(230.40514,83.98735,os),
(213.13599,66.7182,os),
(187.90514,66.7182,c)
);
},
{
closed = 1;
nodes = (
(200.57943,175.9364,os),
(183.31028,193.20555,os),
(183.31028,218.4364,c),
(183.31028,243.66725,os),
(200.57943,260.9364,os),
(225.81028,260.9364,c),
(251.04113,260.9364,os),
(268.31028,243.66725,os),
(268.31028,218.4364,c),
(268.31028,193.20555,os),
(251.04113,175.9364,os),
(225.81028,175.9364,c)
);
},
{
closed = 1;
nodes = (
(238.48457,285.1546,os),
(221.21542,302.42375,os),
(221.21542,327.6546,c),
(221.21542,352.88545,os),
(238.48457,370.1546,os),
(263.71542,370.1546,c),
(288.94627,370.1546,os),
(306.21542,352.88545,os),
(306.21542,327.6546,c),
(306.21542,302.42375,os),
(288.94627,285.1546,os),
(263.71542,285.1546,c)
);
},
{
closed = 1;
nodes = (
(276.38971,394.3728,os),
(259.12056,411.64195,os),
(259.12056,436.8728,c),
(259.12056,462.10365,os),
(276.38971,479.3728,os),
(301.62056,479.3728,c),
(326.85141,479.3728,os),
(344.12056,462.10365,os),
(344.12056,436.8728,c),
(344.12056,411.64195,os),
(326.85141,394.3728,os),
(301.62056,394.3728,c)
);
},
{
closed = 1;
nodes = (
(558.20286,557.5,os),
(540.93371,574.76915,os),
(540.93371,600,c),
(540.93371,625.23085,os),
(558.20286,642.5,os),
(583.43371,642.5,c),
(608.66455,642.5,os),
(625.93371,625.23085,os),
(625.93371,600,c),
(625.93371,574.76915,os),
(608.66455,557.5,os),
(583.43371,557.5,c)
);
},
{
closed = 1;
nodes = (
(675.82066,557.5,os),
(658.55151,574.76915,os),
(658.55151,600,c),
(658.55151,625.23085,os),
(675.82066,642.5,os),
(701.05151,642.5,c),
(726.28235,642.5,os),
(743.55151,625.23085,os),
(743.55151,600,c),
(743.55151,574.76915,os),
(726.28235,557.5,os),
(701.05151,557.5,c)
);
},
{
closed = 1;
nodes = (
(793.13962,557.5,os),
(775.87047,574.76915,os),
(775.87047,600,c),
(775.87047,625.23085,os),
(793.13962,642.5,os),
(818.37047,642.5,c),
(843.60132,642.5,os),
(860.87047,625.23085,os),
(860.87047,600,c),
(860.87047,574.76915,os),
(843.60132,557.5,os),
(818.37047,557.5,c)
);
},
{
closed = 1;
nodes = (
(919.04782,557.5,os),
(901.77867,574.76915,os),
(901.77867,600,c),
(901.77867,625.23085,os),
(919.04782,642.5,os),
(944.27867,642.5,c),
(969.50951,642.5,os),
(986.77867,625.23085,os),
(986.77867,600,c),
(986.77867,574.76915,os),
(969.50951,557.5,os),
(944.27867,557.5,c)
);
}
);
width = 1480;
}
);
unicode = 65;
},
{
glyphname = B;
layers = (
{
background = {
shapes = (
{
closed = 0;
nodes = (
(255,1600,l),
(355,1600,o),
(499,1600,o),
(599,1600,cs),
(855,1600,o),
(1100,1507,o),
(1100,1227,cs),
(1100,947,o),
(855,820,o),
(600,820,cs),
(500,820,o),
(355,820,o),
(255,820,c)
);
},
{
closed = 0;
nodes = (
(250,1600,l),
(250,1500,o),
(250,100,o),
(250,0,c)
);
},
{
closed = 0;
nodes = (
(599,780,l),
(855,780,o),
(1100,687,o),
(1100,407,cs),
(1100,127,o),
(855,0,o),
(600,0,cs),
(500,0,o),
(355,0,o),
(255,0,c)
);
}
);
};
layerId = m01;
shapes = (
{
closed = 1;
nodes = (
(229.76915,1657.5,os),
(212.5,1674.76915,os),
(212.5,1700,c),
(212.5,1725.23085,os),
(229.76915,1742.5,os),
(255,1742.5,c),
(280.23085,1742.5,os),
(297.5,1725.23085,os),
(297.5,1700,c),
(297.5,1674.76915,os),
(280.23085,1657.5,os),
(255,1657.5,c)
);
},
{
closed = 1;
nodes = (
(229.76915,827.5,os),
(212.5,844.76915,os),
(212.5,870,c),
(212.5,895.23085,os),
(229.76915,912.5,os),
(255,912.5,c),
(280.23085,912.5,os),
(297.5,895.23085,os),
(297.5,870,c),
(297.5,844.76915,os),
(280.23085,827.5,os),
(255,827.5,c)
);
},
{
closed = 1;
nodes = (
(224.76915,-42.5,os),
(207.5,-25.23085,os),
(207.5,0,c),
(207.5,25.23085,os),
(224.76915,42.5,os),
(250,42.5,c),
(275.23085,42.5,os),
(292.5,25.23085,os),
(292.5,0,c),
(292.5,-25.23085,os),
(275.23085,-42.5,os),
(250,-42.5,c)
);
},
{
closed = 1;
nodes = (
(673.76915,827.5,os),
(656.5,844.76915,os),
(656.5,870,c),
(656.5,895.23085,os),
(673.76915,912.5,os),
(699,912.5,c),
(724.23085,912.5,os),
(741.5,895.23085,os),
(741.5,870,c),
(741.5,844.76915,os),
(724.23085,827.5,os),
(699,827.5,c)
);
},
{
closed = 1;
nodes = (
(354.71046,1657.5,os),
(337.44131,1674.76915,os),
(337.44131,1700,c),
(337.44131,1725.23085,os),
(354.71046,1742.5,os),
(379.94131,1742.5,c),
(405.17215,1742.5,os),
(422.44131,1725.23085,os),
(422.44131,1700,c),
(422.44131,1674.76915,os),
(405.17215,1657.5,os),
(379.94131,1657.5,c)
);
},
{
closed = 1;
nodes = (
(479.69917,1657.5,os),
(462.43001,1674.76915,os),
(462.43001,1700,c),
(462.43001,1725.23085,os),
(479.69917,1742.5,os),
(504.93001,1742.5,c),
(530.16086,1742.5,os),
(547.43001,1725.23085,os),
(547.43001,1700,c),
(547.43001,1674.76915,os),
(530.16086,1657.5,os),
(504.93001,1657.5,c)
);
},
{
closed = 1;
nodes = (
(604.54689,1657.5,os),
(587.27774,1674.76915,os),
(587.27774,1700,c),
(587.27774,1725.23085,os),
(604.54689,1742.5,os),
(629.77774,1742.5,c),
(655.00858,1742.5,os),
(672.27774,1725.23085,os),
(672.27774,1700,c),
(672.27774,1674.76915,os),
(655.00858,1657.5,os),
(629.77774,1657.5,c)
);
},
{
closed = 1;
nodes = (
(729.76704,1649.89949,os),
(712.49789,1667.16864,os),
(712.49789,1692.39949,c),
(712.49789,1717.63033,os),
(729.76704,1734.89949,os),
(754.99789,1734.89949,c),
(780.22873,1734.89949,os),
(797.49789,1717.63033,os),
(797.49789,1692.39949,c),
(797.49789,1667.16864,os),
(780.22873,1649.89949,os),
(754.99789,1649.89949,c)
);
},
{
closed = 1;
nodes = (
(851.88666,1622.17491,os),
(834.61751,1639.44406,os),
(834.61751,1664.67491,c),
(834.61751,1689.90576,os),
(851.88666,1707.17491,os),
(877.11751,1707.17491,c),
(902.34836,1707.17491,os),
(919.61751,1689.90576,os),
(919.61751,1664.67491,c),
(919.61751,1639.44406,os),
(902.34836,1622.17491,os),
(877.11751,1622.17491,c)
);
},
{
closed = 1;
nodes = (
(964.45773,1569.00915,os),
(947.18858,1586.2783,os),
(947.18858,1611.50915,c),
(947.18858,1636.74,os),
(964.45773,1654.00915,os),
(989.68858,1654.00915,c),
(1014.91943,1654.00915,os),
(1032.18858,1636.74,os),
(1032.18858,1611.50915,c),
(1032.18858,1586.2783,os),
(1014.91943,1569.00915,os),
(989.68858,1569.00915,c)
);
},
{
closed = 1;
nodes = (
(1056.03993,1484.83717,os),
(1038.77078,1502.10633,os),
(1038.77078,1527.33717,c),
(1038.77078,1552.56802,os),
(1056.03993,1569.83717,os),
(1081.27078,1569.83717,c),
(1106.50163,1569.83717,os),
(1123.77078,1552.56802,os),
(1123.77078,1527.33717,c),
(1123.77078,1502.10633,os),
(1106.50163,1484.83717,os),
(1081.27078,1484.83717,c)
);
},
{
closed = 1;
nodes = (
(1110.78454,1373.13099,os),
(1093.51539,1390.40015,os),
(1093.51539,1415.63099,c),
(1093.51539,1440.86184,os),
(1110.78454,1458.13099,os),
(1136.01539,1458.13099,c),
(1161.24623,1458.13099,os),
(1178.51539,1440.86184,os),
(1178.51539,1415.63099,c),
(1178.51539,1390.40015,os),
(1161.24623,1373.13099,os),
(1136.01539,1373.13099,c)
);
},
{
closed = 1;
nodes = (
(1124.53232,1249.49975,os),
(1107.26317,1266.76891,os),
(1107.26317,1291.99975,c),
(1107.26317,1317.2306,os),
(1124.53232,1334.49975,os),
(1149.76317,1334.49975,c),
(1174.99402,1334.49975,os),
(1192.26317,1317.2306,os),
(1192.26317,1291.99975,c),
(1192.26317,1266.76891,os),
(1174.99402,1249.49975,os),
(1149.76317,1249.49975,c)
);
},
{
closed = 1;
nodes = (
(1102.75036,1126.86315,os),
(1085.4812,1144.1323,os),
(1085.4812,1169.36315,c),
(1085.4812,1194.594,os),
(1102.75036,1211.86315,os),
(1127.9812,1211.86315,c),
(1153.21205,1211.86315,os),
(1170.4812,1194.594,os),
(1170.4812,1169.36315,c),
(1170.4812,1144.1323,os),
(1153.21205,1126.86315,os),
(1127.9812,1126.86315,c)
);
},
{
closed = 1;
nodes = (
(1043.94622,1016.59145,os),
(1026.67706,1033.8606,os),
(1026.67706,1059.09145,c),
(1026.67706,1084.3223,os),
(1043.94622,1101.59145,os),
(1069.17706,1101.59145,c),
(1094.40791,1101.59145,os),
(1111.67706,1084.3223,os),
(1111.67706,1059.09145,c),
(1111.67706,1033.8606,os),
(1094.40791,1016.59145,os),
(1069.17706,1016.59145,c)
);
},
{
closed = 1;
nodes = (
(954.1569,929.70152,os),
(936.88774,946.97067,os),
(936.88774,972.20152,c),
(936.88774,997.43237,os),
(954.1569,1014.70152,os),
(979.38774,1014.70152,c),
(1004.61859,1014.70152,os),
(1021.88774,997.43237,os),
(1021.88774,972.20152,c),
(1021.88774,946.97067,os),
(1004.61859,929.70152,os),
(979.38774,929.70152,c)
);
},
{
closed = 1;
nodes = (
(844.58294,870.07272,os),
(827.31379,887.34188,os),
(827.31379,912.57272,c),
(827.31379,937.80357,os),
(844.58294,955.07272,os),
(869.81379,955.07272,c),
(895.04463,955.07272,os),
(912.31379,937.80357,os),
(912.31379,912.57272,c),
(912.31379,887.34188,os),
(895.04463,870.07272,os),
(869.81379,870.07272,c)
);
},
{
closed = 1;
nodes = (
(474.95503,827.5,os),
(457.68587,844.76915,os),
(457.68587,870,c),
(457.68587,895.23085,os),
(474.95503,912.5,os),
(500.18587,912.5,c),
(525.41672,912.5,os),
(542.68587,895.23085,os),
(542.68587,870,c),
(542.68587,844.76915,os),
(525.41672,827.5,os),
(500.18587,827.5,c)
);
},
{
closed = 1;
nodes = (
(350.01669,827.5,os),
(332.74754,844.76915,os),
(332.74754,870,c),
(332.74754,895.23085,os),
(350.01669,912.5,os),
(375.24754,912.5,c),
(400.47838,912.5,os),
(417.74754,895.23085,os),
(417.74754,870,c),
(417.74754,844.76915,os),
(400.47838,827.5,os),
(375.24754,827.5,c)
);
},
{
closed = 1;
nodes = (
(224.76915,1535.56956,os),
(207.5,1552.83871,os),
(207.5,1578.06956,c),
(207.5,1603.3004,os),
(224.76915,1620.56956,os),
(250,1620.56956,c),
(275.23085,1620.56956,os),
(292.5,1603.3004,os),
(292.5,1578.06956,c),
(292.5,1552.83871,os),
(275.23085,1535.56956,os),
(250,1535.56956,c)
);
},
{
closed = 1;
nodes = (
(224.76915,1412.78899,os),
(207.5,1430.05814,os),
(207.5,1455.28899,c),
(207.5,1480.51984,os),
(224.76915,1497.78899,os),
(250,1497.78899,c),
(275.23085,1497.78899,os),
(292.5,1480.51984,os),
(292.5,1455.28899,c),
(292.5,1430.05814,os),
(275.23085,1412.78899,os),
(250,1412.78899,c)
);
},
{
closed = 1;
nodes = (
(224.76915,1289.62124,os),
(207.5,1306.89039,os),
(207.5,1332.12124,c),
(207.5,1357.35209,os),
(224.76915,1374.62124,os),
(250,1374.62124,c),
(275.23085,1374.62124,os),
(292.5,1357.35209,os),
(292.5,1332.12124,c),
(292.5,1306.89039,os),
(275.23085,1289.62124,os),
(250,1289.62124,c)
);
},
{
closed = 1;
nodes = (
(224.76915,1166.87366,os),
(207.5,1184.14281,os),
(207.5,1209.37366,c),
(207.5,1234.60451,os),
(224.76915,1251.87366,os),
(250,1251.87366,c),
(275.23085,1251.87366,os),
(292.5,1234.60451,os),
(292.5,1209.37366,c),
(292.5,1184.14281,os),
(275.23085,1166.87366,os),
(250,1166.87366,c)
);
},
{
closed = 1;
nodes = (
(224.76915,1044.7,os),
(207.5,1061.96915,os),
(207.5,1087.2,c),
(207.5,1112.43085,os),
(224.76915,1129.7,os),
(250,1129.7,c),
(275.23085,1129.7,os),
(292.5,1112.43085,os),
(292.5,1087.2,c),
(292.5,1061.96915,os),
(275.23085,1044.7,os),
(250,1044.7,c)
);
},
{
closed = 1;
nodes = (
(224.76915,922.39034,os),
(207.5,939.65949,os),
(207.5,964.89034,c),
(207.5,990.12119,os),
(224.76915,1007.39034,os),
(250,1007.39034,c),
(275.23085,1007.39034,os),
(292.5,990.12119,os),
(292.5,964.89034,c),
(292.5,939.65949,os),
(275.23085,922.39034,os),
(250,922.39034,c)
);
},
{
closed = 1;
nodes = (
(224.76915,678.3409,os),
(207.5,695.61005,os),
(207.5,720.8409,c),
(207.5,746.07175,os),
(224.76915,763.3409,os),
(250,763.3409,c),
(275.23085,763.3409,os),
(292.5,746.07175,os),
(292.5,720.8409,c),
(292.5,695.61005,os),
(275.23085,678.3409,os),
(250,678.3409,c)
);
},
{
closed = 1;
nodes = (
(224.76915,556.43484,os),
(207.5,573.704,os),
(207.5,598.93484,c),
(207.5,624.16569,os),
(224.76915,641.43484,os),
(250,641.43484,c),
(275.23085,641.43484,os),
(292.5,624.16569,os),
(292.5,598.93484,c),
(292.5,573.704,os),
(275.23085,556.43484,os),
(250,556.43484,c)
);
},
{
closed = 1;
nodes = (
(224.76915,434.9688,os),
(207.5,452.23795,os),
(207.5,477.4688,c),
(207.5,502.69965,os),
(224.76915,519.9688,os),
(250,519.9688,c),
(275.23085,519.9688,os),
(292.5,502.69965,os),
(292.5,477.4688,c),
(292.5,452.23795,os),
(275.23085,434.9688,os),
(250,434.9688,c)
);
},
{
closed = 1;
nodes = (
(224.76915,313.30865,os),
(207.5,330.5778,os),
(207.5,355.80865,c),
(207.5,381.0395,os),
(224.76915,398.30865,os),
(250,398.30865,c),
(275.23085,398.30865,os),
(292.5,381.0395,os),
(292.5,355.80865,c),
(292.5,330.5778,os),
(275.23085,313.30865,os),
(250,313.30865,c)
);
},
{
closed = 1;
nodes = (
(224.76915,191.76252,os),
(207.5,209.03168,os),
(207.5,234.26252,c),
(207.5,259.49337,os),
(224.76915,276.76252,os),
(250,276.76252,c),
(275.23085,276.76252,os),
(292.5,259.49337,os),
(292.5,234.26252,c),
(292.5,209.03168,os),
(275.23085,191.76252,os),
(250,191.76252,c)
);
},
{
closed = 1;
nodes = (
(224.76915,70.23001,os),
(207.5,87.49916,os),
(207.5,112.73001,c),
(207.5,137.96086,os),
(224.76915,155.23001,os),
(250,155.23001,c),
(275.23085,155.23001,os),
(292.5,137.96086,os),
(292.5,112.73001,c),
(292.5,87.49916,os),
(275.23085,70.23001,os),
(250,70.23001,c)
);
},
{
closed = 1;
nodes = (
(914.64878,788.52187,os),
(897.37962,805.79103,os),
(897.37962,831.02187,c),
(897.37962,856.25272,os),
(914.64878,873.52187,os),
(939.87962,873.52187,c),
(965.11047,873.52187,os),
(982.37962,856.25272,os),
(982.37962,831.02187,c),
(982.37962,805.79103,os),
(965.11047,788.52187,os),
(939.87962,788.52187,c)
);
},
{
closed = 1;
nodes = (
(1023.884,733.3328,os),
(1006.61484,750.60195,os),
(1006.61484,775.8328,c),
(1006.61484,801.06364,os),
(1023.884,818.3328,os),
(1049.11484,818.3328,c),
(1074.34569,818.3328,os),
(1091.61484,801.06364,os),
(1091.61484,775.8328,c),
(1091.61484,750.60195,os),
(1074.34569,733.3328,os),
(1049.11484,733.3328,c)
);
},
{
closed = 1;
nodes = (
(1112.36511,649.17559,os),
(1095.09596,666.44474,os),
(1095.09596,691.67559,c),
(1095.09596,716.90643,os),
(1112.36511,734.17559,os),
(1137.59596,734.17559,c),
(1162.8268,734.17559,os),
(1180.09596,716.90643,os),
(1180.09596,691.67559,c),
(1180.09596,666.44474,os),
(1162.8268,649.17559,os),
(1137.59596,649.17559,c)
);
},
{
closed = 1;
nodes = (
(1167.08803,540.34108,os),
(1149.81887,557.61024,os),
(1149.81887,582.84108,c),
(1149.81887,608.07193,os),
(1167.08803,625.34108,os),
(1192.31887,625.34108,c),
(1217.54972,625.34108,os),
(1234.81887,608.07193,os),
(1234.81887,582.84108,c),
(1234.81887,557.61024,os),
(1217.54972,540.34108,os),
(1192.31887,540.34108,c)
);
},
{
closed = 1;
nodes = (
(1184.74274,419.70197,os),
(1167.47359,436.97113,os),
(1167.47359,462.20197,c),
(1167.47359,487.43282,os),
(1184.74274,504.70197,os),
(1209.97359,504.70197,c),
(1235.20444,504.70197,os),
(1252.47359,487.43282,os),
(1252.47359,462.20197,c),
(1252.47359,436.97113,os),
(1235.20444,419.70197,os),
(1209.97359,419.70197,c)
);
},
{
closed = 1;
nodes = (
(1171.97432,297.76435,os),
(1154.70516,315.0335,os),
(1154.70516,340.26435,c),
(1154.70516,365.49519,os),
(1171.97432,382.76435,os),
(1197.20516,382.76435,c),
(1222.43601,382.76435,os),
(1239.70516,365.49519,os),
(1239.70516,340.26435,c),
(1239.70516,315.0335,os),
(1222.43601,297.76435,os),
(1197.20516,297.76435,c)
);
},
{
closed = 1;
nodes = (
(1127.8847,183.461,os),
(1110.61554,200.73015,os),
(1110.61554,225.961,c),
(1110.61554,251.19184,os),
(1127.8847,268.461,os),
(1153.11554,268.461,c),
(1178.34639,268.461,os),
(1195.61554,251.19184,os),
(1195.61554,225.961,c),
(1195.61554,200.73015,os),
(1178.34639,183.461,os),
(1153.11554,183.461,c)
);
},
{
closed = 1;
nodes = (
(1052.14105,87.75607,os),
(1034.87189,105.02522,os),
(1034.87189,130.25607,c),
(1034.87189,155.48692,os),
(1052.14105,172.75607,os),
(1077.37189,172.75607,c),
(1102.60274,172.75607,os),
(1119.87189,155.48692,os),
(1119.87189,130.25607,c),
(1119.87189,105.02522,os),
(1102.60274,87.75607,os),
(1077.37189,87.75607,c)
);
},
{
closed = 1;
nodes = (
(951.32975,17.99368,os),
(934.0606,35.26283,os),
(934.0606,60.49368,c),
(934.0606,85.72453,os),
(951.32975,102.99368,os),
(976.5606,102.99368,c),
(1001.79145,102.99368,os),
(1019.0606,85.72453,os),
(1019.0606,60.49368,c),
(1019.0606,35.26283,os),
(1001.79145,17.99368,os),
(976.5606,17.99368,c)
);
},
{
closed = 1;
nodes = (
(836.44083,-23.96562,os),
(819.17167,-6.69647,os),
(819.17167,18.53438,c),
(819.17167,43.76522,os),
(836.44083,61.03438,os),
(861.67167,61.03438,c),
(886.90252,61.03438,os),
(904.17167,43.76522,os),
(904.17167,18.53438,c),
(904.17167,-6.69647,os),
(886.90252,-23.96562,os),
(861.67167,-23.96562,c)
);
},
{
closed = 1;
nodes = (
(714.95817,-41.44417,os),
(697.68902,-24.17501,os),
(697.68902,1.05583,c),
(697.68902,26.28668,os),
(714.95817,43.55583,os),
(740.18902,43.55583,c),
(765.41987,43.55583,os),
(782.68902,26.28668,os),
(782.68902,1.05583,c),
(782.68902,-24.17501,os),
(765.41987,-41.44417,os),
(740.18902,-41.44417,c)
);
},
{
closed = 1;
nodes = (
(592.59632,-42.5,os),
(575.32717,-25.23085,os),
(575.32717,0,c),
(575.32717,25.23085,os),
(592.59632,42.5,os),
(617.82717,42.5,c),
(643.05802,42.5,os),
(660.32717,25.23085,os),
(660.32717,0,c),
(660.32717,-25.23085,os),
(643.05802,-42.5,os),
(617.82717,-42.5,c)
);
},
{
closed = 1;
nodes = (
(469.85275,-42.5,os),
(452.5836,-25.23085,os),
(452.5836,0,c),
(452.5836,25.23085,os),
(469.85275,42.5,os),
(495.0836,42.5,c),
(520.31445,42.5,os),
(537.5836,25.23085,os),
(537.5836,0,c),
(537.5836,-25.23085,os),
(520.31445,-42.5,os),
(495.0836,-42.5,c)
);
},
{
closed = 1;
nodes = (
(347.23884,-42.5,os),
(329.96968,-25.23085,os),
(329.96968,0,c),
(329.96968,25.23085,os),
(347.23884,42.5,os),
(372.46968,42.5,c),
(397.70053,42.5,os),
(414.96968,25.23085,os),
(414.96968,0,c),
(414.96968,-25.23085,os),
(397.70053,-42.5,os),
(372.46968,-42.5,c)
);
}
);
width = 1410;
}
);
unicode = 66;
},
{
glyphname = C;
layers = (
{
layerId = m01;
shapes = (
{
closed = 1;
nodes = (
(1274.76915,1397.5,os),
(1257.5,1414.76915,os),
(1257.5,1440,c),
(1257.5,1465.23085,os),
(1274.76915,1482.5,os),
(1300,1482.5,c),
(1325.23085,1482.5,os),
(1342.5,1465.23085,os),
(1342.5,1440,c),
(1342.5,1414.76915,os),
(1325.23085,1397.5,os),
(1300,1397.5,c)
);
},
{
closed = 1;
nodes = (
(1284.76915,287.5,os),
(1267.5,304.76915,os),
(1267.5,330,c),
(1267.5,355.23085,os),
(1284.76915,372.5,os),
(1310,372.5,c),
(1335.23085,372.5,os),
(1352.5,355.23085,os),
(1352.5,330,c),
(1352.5,304.76915,os),
(1335.23085,287.5,os),
(1310,287.5,c)
);
},
{
closed = 1;
nodes = (
(1192.31445,1490.3921,os),
(1175.0453,1507.66126,os),
(1175.0453,1532.8921,c),
(1175.0453,1558.12295,os),
(1192.31445,1575.3921,os),
(1217.5453,1575.3921,c),
(1242.77614,1575.3921,os),
(1260.0453,1558.12295,os),
(1260.0453,1532.8921,c),
(1260.0453,1507.66126,os),
(1242.77614,1490.3921,os),
(1217.5453,1490.3921,c)
);
},
{
closed = 1;
nodes = (
(1094.7087,1566.67421,os),
(1077.43954,1583.94337,os),
(1077.43954,1609.17421,c),
(1077.43954,1634.40506,os),
(1094.7087,1651.67421,os),
(1119.93954,1651.67421,c),
(1145.17039,1651.67421,os),
(1162.43954,1634.40506,os),
(1162.43954,1609.17421,c),
(1162.43954,1583.94337,os),
(1145.17039,1566.67421,os),
(1119.93954,1566.67421,c)
);
},
{
closed = 1;
nodes = (
(982.73956,1619.89873,os),
(965.4704,1637.16789,os),
(965.4704,1662.39873,c),
(965.4704,1687.62958,os),
(982.73956,1704.89873,os),
(1007.9704,1704.89873,c),
(1033.20125,1704.89873,os),
(1050.4704,1687.62958,os),
(1050.4704,1662.39873,c),
(1050.4704,1637.16789,os),
(1033.20125,1619.89873,os),
(1007.9704,1619.89873,c)
);
},
{
closed = 1;
nodes = (
(861.81161,1648.83996,os),
(844.54245,1666.10911,os),
(844.54245,1691.33996,c),
(844.54245,1716.57081,os),
(861.81161,1733.83996,os),
(887.04245,1733.83996,c),
(912.2733,1733.83996,os),
(929.54245,1716.57081,os),
(929.54245,1691.33996,c),
(929.54245,1666.10911,os),
(912.2733,1648.83996,os),
(887.04245,1648.83996,c)
);
},
{
closed = 1;
nodes = (
(738.0034,1657.49501,os),
(720.73425,1674.76416,os),
(720.73425,1699.99501,c),
(720.73425,1725.22586,os),
(738.0034,1742.49501,os),
(763.23425,1742.49501,c),
(788.46509,1742.49501,os),
(805.73425,1725.22586,os),
(805.73425,1699.99501,c),
(805.73425,1674.76416,os),
(788.46509,1657.49501,os),
(763.23425,1657.49501,c)
);
},
{
closed = 1;
nodes = (
(614.71019,1643.97212,os),
(597.44104,1661.24128,os),
(597.44104,1686.47212,c),
(597.44104,1711.70297,os),
(614.71019,1728.97212,os),
(639.94104,1728.97212,c),
(665.17189,1728.97212,os),
(682.44104,1711.70297,os),
(682.44104,1686.47212,c),
(682.44104,1661.24128,os),
(665.17189,1643.97212,os),
(639.94104,1643.97212,c)
);
},
{
closed = 1;
nodes = (
(498.71671,1600.89176,os),
(481.44756,1618.16091,os),
(481.44756,1643.39176,c),
(481.44756,1668.62261,os),
(498.71671,1685.89176,os),
(523.94756,1685.89176,c),
(549.17841,1685.89176,os),
(566.44756,1668.62261,os),
(566.44756,1643.39176,c),
(566.44756,1618.16091,os),
(549.17841,1600.89176,os),
(523.94756,1600.89176,c)
);
},
{
closed = 1;
nodes = (
(396.70781,1529.67772,os),
(379.43866,1546.94688,os),
(379.43866,1572.17772,c),
(379.43866,1597.40857,os),
(396.70781,1614.67772,os),
(421.93866,1614.67772,c),
(447.1695,1614.67772,os),
(464.43866,1597.40857,os),
(464.43866,1572.17772,c),
(464.43866,1546.94688,os),
(447.1695,1529.67772,os),
(421.93866,1529.67772,c)
);
},
{
closed = 1;
nodes = (
(314.22271,1436.93333,os),
(296.95356,1454.20248,os),
(296.95356,1479.43333,c),
(296.95356,1504.66417,os),
(314.22271,1521.93333,os),
(339.45356,1521.93333,c),
(364.68441,1521.93333,os),
(381.95356,1504.66417,os),
(381.95356,1479.43333,c),
(381.95356,1454.20248,os),
(364.68441,1436.93333,os),
(339.45356,1436.93333,c)
);
},
{
closed = 1;
nodes = (
(251.60224,1329.73656,os),
(234.33309,1347.00571,os),
(234.33309,1372.23656,c),
(234.33309,1397.46741,os),
(251.60224,1414.73656,os),
(276.83309,1414.73656,c),
(302.06394,1414.73656,os),
(319.33309,1397.46741,os),
(319.33309,1372.23656,c),
(319.33309,1347.00571,os),
(302.06394,1329.73656,os),
(276.83309,1329.73656,c)
);
},
{
closed = 1;
nodes = (
(206.8963,1213.75417,os),
(189.62715,1231.02332,os),
(189.62715,1256.25417,c),
(189.62715,1281.48502,os),
(206.8963,1298.75417,os),
(232.12715,1298.75417,c),
(257.35799,1298.75417,os),
(274.62715,1281.48502,os),
(274.62715,1256.25417,c),
(274.62715,1231.02332,os),
(257.35799,1213.75417,os),
(232.12715,1213.75417,c)
);
},
{
closed = 1;
nodes = (
(177.45721,1092.75492,os),
(160.18806,1110.02407,os),
(160.18806,1135.25492,c),
(160.18806,1160.48577,os),
(177.45721,1177.75492,os),
(202.68806,1177.75492,c),
(227.91891,1177.75492,os),
(245.18806,1160.48577,os),
(245.18806,1135.25492,c),
(245.18806,1110.02407,os),
(227.91891,1092.75492,os),
(202.68806,1092.75492,c)
);
},
{
closed = 1;
nodes = (
(160.83079,969.43171,os),
(143.56163,986.70086,os),
(143.56163,1011.93171,c),
(143.56163,1037.16256,os),
(160.83079,1054.43171,os),
(186.06163,1054.43171,c),
(211.29248,1054.43171,os),
(228.56163,1037.16256,os),
(228.56163,1011.93171,c),
(228.56163,986.70086,os),
(211.29248,969.43171,os),
(186.06163,969.43171,c)
);
},
{
closed = 1;
nodes = (
(154.86147,845.55198,os),
(137.59232,862.82113,os),
(137.59232,888.05198,c),
(137.59232,913.28282,os),
(154.86147,930.55198,os),
(180.09232,930.55198,c),
(205.32317,930.55198,os),
(222.59232,913.28282,os),
(222.59232,888.05198,c),
(222.59232,862.82113,os),
(205.32317,845.55198,os),
(180.09232,845.55198,c)
);
},
{
closed = 1;
nodes = (
(158.1476,720.07448,os),
(140.87844,737.34363,os),
(140.87844,762.57448,c),
(140.87844,787.80533,os),
(158.1476,805.07448,os),
(183.37844,805.07448,c),
(208.60929,805.07448,os),
(225.87844,787.80533,os),
(225.87844,762.57448,c),
(225.87844,737.34363,os),
(208.60929,720.07448,os),
(183.37844,720.07448,c)
);
},
{
closed = 1;
nodes = (
(171.35728,595.82875,os),
(154.08813,613.0979,os),
(154.08813,638.32875,c),
(154.08813,663.5596,os),
(171.35728,680.82875,os),
(196.58813,680.82875,c),
(221.81897,680.82875,os),
(239.08813,663.5596,os),
(239.08813,638.32875,c),
(239.08813,613.0979,os),
(221.81897,595.82875,os),
(196.58813,595.82875,c)
);
},
{
closed = 1;
nodes = (
(195.94111,473.79216,os),
(178.67196,491.06132,os),
(178.67196,516.29216,c),
(178.67196,541.52301,os),
(195.94111,558.79216,os),
(221.17196,558.79216,c),
(246.40281,558.79216,os),
(263.67196,541.52301,os),
(263.67196,516.29216,c),
(263.67196,491.06132,os),
(246.40281,473.79216,os),
(221.17196,473.79216,c)
);
},
{
closed = 1;
nodes = (
(233.66613,355.56883,os),
(216.39698,372.83799,os),
(216.39698,398.06883,c),
(216.39698,423.29968,os),
(233.66613,440.56883,os),
(258.89698,440.56883,c),
(284.12783,440.56883,os),
(301.39698,423.29968,os),
(301.39698,398.06883,c),
(301.39698,372.83799,os),
(284.12783,355.56883,os),
(258.89698,355.56883,c)
);
},
{
closed = 1;
nodes = (
(287.11411,242.75056,os),
(269.84496,260.01971,os),
(269.84496,285.25056,c),
(269.84496,310.48141,os),
(287.11411,327.75056,os),
(312.34496,327.75056,c),
(337.57581,327.75056,os),
(354.84496,310.48141,os),
(354.84496,285.25056,c),
(354.84496,260.01971,os),
(337.57581,242.75056,os),
(312.34496,242.75056,c)
);
},
{
closed = 1;
nodes = (
(358.10407,140.47487,os),
(340.83492,157.74402,os),
(340.83492,182.97487,c),
(340.83492,208.20572,os),
(358.10407,225.47487,os),
(383.33492,225.47487,c),
(408.56577,225.47487,os),
(425.83492,208.20572,os),
(425.83492,182.97487,c),
(425.83492,157.74402,os),
(408.56577,140.47487,os),
(383.33492,140.47487,c)
);
},
{
closed = 1;
nodes = (
(447.98742,54.623,os),
(430.71827,71.89215,os),
(430.71827,97.123,c),
(430.71827,122.35384,os),
(447.98742,139.623,os),
(473.21827,139.623,c),
(498.44912,139.623,os),
(515.71827,122.35384,os),
(515.71827,97.123,c),
(515.71827,71.89215,os),
(498.44912,54.623,os),
(473.21827,54.623,c)
);
},
{
closed = 1;
nodes = (
(555.74642,-7.38798,os),
(538.47727,9.88118,os),
(538.47727,35.11202,c),
(538.47727,60.34287,os),
(555.74642,77.61202,os),
(580.97727,77.61202,c),
(606.20811,77.61202,os),
(623.47727,60.34287,os),
(623.47727,35.11202,c),
(623.47727,9.88118,os),
(606.20811,-7.38798,os),
(580.97727,-7.38798,c)
);
},
{
closed = 1;
nodes = (
(676.11755,-38.94827,os),
(658.8484,-21.67912,os),
(658.8484,3.55173,c),
(658.8484,28.78258,os),
(676.11755,46.05173,os),
(701.3484,46.05173,c),
(726.57925,46.05173,os),
(743.8484,28.78258,os),
(743.8484,3.55173,c),
(743.8484,-21.67912,os),
(726.57925,-38.94827,os),
(701.3484,-38.94827,c)
);
},
{
closed = 1;
nodes = (
(799.97103,-39.40981,os),
(782.70188,-22.14066,os),
(782.70188,3.09019,c),
(782.70188,28.32104,os),
(799.97103,45.59019,os),
(825.20188,45.59019,c),
(850.43273,45.59019,os),
(867.70188,28.32104,os),
(867.70188,3.09019,c),
(867.70188,-22.14066,os),
(850.43273,-39.40981,os),
(825.20188,-39.40981,c)
);
},
{
closed = 1;
nodes = (
(921.66723,-15.32812,os),
(904.39808,1.94103,os),
(904.39808,27.17188,c),
(904.39808,52.40273,os),
(921.66723,69.67188,os),
(946.89808,69.67188,c),
(972.12892,69.67188,os),
(989.39808,52.40273,os),
(989.39808,27.17188,c),
(989.39808,1.94103,os),
(972.12892,-15.32812,os),
(946.89808,-15.32812,c)
);
},
{
closed = 1;
nodes = (
(1035.74754,33.58461,os),
(1018.47839,50.85377,os),
(1018.47839,76.08461,c),
(1018.47839,101.31546,os),
(1035.74754,118.58461,os),
(1060.97839,118.58461,c),
(1086.20923,118.58461,os),
(1103.47839,101.31546,os),
(1103.47839,76.08461,c),
(1103.47839,50.85377,os),
(1086.20923,33.58461,os),
(1060.97839,33.58461,c)
);
},
{
closed = 1;
nodes = (
(1137.0362,105.39372,os),
(1119.76704,122.66287,os),
(1119.76704,147.89372,c),
(1119.76704,173.12457,os),
(1137.0362,190.39372,os),
(1162.26704,190.39372,c),
(1187.49789,190.39372,os),
(1204.76704,173.12457,os),
(1204.76704,147.89372,c),
(1204.76704,122.66287,os),
(1187.49789,105.39372,os),
(1162.26704,105.39372,c)
);
},
{
closed = 1;
nodes = (
(1222.56305,195.70053,os),
(1205.29389,212.96968,os),
(1205.29389,238.20053,c),
(1205.29389,263.43138,os),
(1222.56305,280.70053,os),
(1247.79389,280.70053,c),
(1273.02474,280.70053,os),
(1290.29389,263.43138,os),
(1290.29389,238.20053,c),
(1290.29389,212.96968,os),
(1273.02474,195.70053,os),
(1247.79389,195.70053,c)
);
}
);
width = 1490;
}
);
unicode = 67;
},
{
glyphname = D;
layers = (
{
background = {
shapes = (
{
closed = 0;
nodes = (
(750,0,l),
(1065,0,o),
(1320,267,o),
(1320,817,cs),
(1320,1367,o),
(1065,1600,o),
(749,1600,cs)
);
},
{
closed = 0;
nodes = (
(250,1600,l),
(250,1500,o),
(250,100,o),
(250,0,c)
);
}
);
};
layerId = m01;
shapes = (
{
closed = 1;
nodes = (
(229.76915,1657.5,os),
(212.5,1674.76915,os),
(212.5,1700,c),
(212.5,1725.23085,os),
(229.76915,1742.5,os),
(255,1742.5,c),
(280.23085,1742.5,os),
(297.5,1725.23085,os),
(297.5,1700,c),
(297.5,1674.76915,os),
(280.23085,1657.5,os),
(255,1657.5,c)
);
},
{
closed = 1;
nodes = (
(229.76915,-42.5,os),
(212.5,-25.23085,os),
(212.5,0,c),
(212.5,25.23085,os),
(229.76915,42.5,os),
(255,42.5,c),
(280.23085,42.5,os),
(297.5,25.23085,os),
(297.5,0,c),
(297.5,-25.23085,os),
(280.23085,-42.5,os),
(255,-42.5,c)
);
},
{
closed = 1;
nodes = (
(352.758,1657.5,os),
(335.48885,1674.76915,os),
(335.48885,1700,c),
(335.48885,1725.23085,os),
(352.758,1742.5,os),
(377.98885,1742.5,c),
(403.21969,1742.5,os),
(420.48885,1725.23085,os),
(420.48885,1700,c),
(420.48885,1674.76915,os),
(403.21969,1657.5,os),
(377.98885,1657.5,c)
);
},
{
closed = 1;
nodes = (
(475.77293,1657.5,os),
(458.50377,1674.76915,os),
(458.50377,1700,c),
(458.50377,1725.23085,os),
(475.77293,1742.5,os),
(501.00377,1742.5,c),
(526.23462,1742.5,os),
(543.50377,1725.23085,os),
(543.50377,1700,c),
(543.50377,1674.76915,os),
(526.23462,1657.5,os),
(501.00377,1657.5,c)
);
},
{
closed = 1;
nodes = (
(599.19458,1655.64548,os),
(581.92543,1672.91463,os),
(581.92543,1698.14548,c),
(581.92543,1723.37633,os),
(599.19458,1740.64548,os),
(624.42543,1740.64548,c),
(649.65628,1740.64548,os),
(666.92543,1723.37633,os),
(666.92543,1698.14548,c),
(666.92543,1672.91463,os),
(649.65628,1655.64548,os),
(624.42543,1655.64548,c)
);
},
{
closed = 1;
nodes = (
(722.2176,1640.59087,os),
(704.94845,1657.86003,os),
(704.94845,1683.09087,c),
(704.94845,1708.32172,os),
(722.2176,1725.59087,os),
(747.44845,1725.59087,c),
(772.6793,1725.59087,os),
(789.94845,1708.32172,os),
(789.94845,1683.09087,c),
(789.94845,1657.86003,os),
(772.6793,1640.59087,os),
(747.44845,1640.59087,c)
);
},
{
closed = 1;
nodes = (
(841.84555,1608.04233,os),
(824.5764,1625.31148,os),
(824.5764,1650.54233,c),
(824.5764,1675.77318,os),
(841.84555,1693.04233,os),
(867.0764,1693.04233,c),
(892.30724,1693.04233,os),
(909.5764,1675.77318,os),
(909.5764,1650.54233,c),
(909.5764,1625.31148,os),
(892.30724,1608.04233,os),
(867.0764,1608.04233,c)
);
},
{
closed = 1;
nodes = (
(953.19809,1556.19408,os),
(935.92894,1573.46323,os),
(935.92894,1598.69408,c),
(935.92894,1623.92493,os),
(953.19809,1641.19408,os),
(978.42894,1641.19408,c),
(1003.65978,1641.19408,os),
(1020.92894,1623.92493,os),
(1020.92894,1598.69408,c),
(1020.92894,1573.46323,os),
(1003.65978,1556.19408,os),
(978.42894,1556.19408,c)
);
},
{
closed = 1;
nodes = (
(1052.98944,1483.78195,os),
(1035.72029,1501.0511,os),
(1035.72029,1526.28195,c),
(1035.72029,1551.5128,os),
(1052.98944,1568.78195,os),
(1078.22029,1568.78195,c),
(1103.45114,1568.78195,os),
(1120.72029,1551.5128,os),
(1120.72029,1526.28195,c),
(1120.72029,1501.0511,os),
(1103.45114,1483.78195,os),
(1078.22029,1483.78195,c)
);
},
{
closed = 1;
nodes = (
(1136.19327,1393.03058,os),
(1118.92412,1410.29973,os),
(1118.92412,1435.53058,c),
(1118.92412,1460.76142,os),
(1136.19327,1478.03058,os),
(1161.42412,1478.03058,c),
(1186.65496,1478.03058,os),
(1203.92412,1460.76142,os),
(1203.92412,1435.53058,c),
(1203.92412,1410.29973,os),
(1186.65496,1393.03058,os),
(1161.42412,1393.03058,c)
);
},
{
closed = 1;
nodes = (
(1200.69956,1287.86704,os),
(1183.4304,1305.1362,os),
(1183.4304,1330.36704,c),
(1183.4304,1355.59789,os),
(1200.69956,1372.86704,os),
(1225.9304,1372.86704,c),
(1251.16125,1372.86704,os),
(1268.4304,1355.59789,os),
(1268.4304,1330.36704,c),
(1268.4304,1305.1362,os),
(1251.16125,1287.86704,os),
(1225.9304,1287.86704,c)
);
},
{
closed = 1;
nodes = (
(1246.72359,1172.91999,os),
(1229.45444,1190.18914,os),
(1229.45444,1215.41999,c),
(1229.45444,1240.65084,os),
(1246.72359,1257.91999,os),
(1271.95444,1257.91999,c),
(1297.18529,1257.91999,os),
(1314.45444,1240.65084,os),
(1314.45444,1215.41999,c),
(1314.45444,1190.18914,os),
(1297.18529,1172.91999,os),
(1271.95444,1172.91999,c)
);
},
{
closed = 1;
nodes = (
(1276.04225,1052.51494,os),
(1258.7731,1069.7841,os),
(1258.7731,1095.01494,c),
(1258.7731,1120.24579,os),
(1276.04225,1137.51494,os),
(1301.2731,1137.51494,c),
(1326.50395,1137.51494,os),
(1343.7731,1120.24579,os),
(1343.7731,1095.01494,c),
(1343.7731,1069.7841,os),
(1326.50395,1052.51494,os),
(1301.2731,1052.51494,c)
);
},
{
closed = 1;
nodes = (
(1291.17696,929.77962,os),
(1273.90781,947.04877,os),
(1273.90781,972.27962,c),
(1273.90781,997.51047,os),
(1291.17696,1014.77962,os),
(1316.40781,1014.77962,c),
(1341.63866,1014.77962,os),
(1358.90781,997.51047,os),
(1358.90781,972.27962,c),
(1358.90781,947.04877,os),
(1341.63866,929.77962,os),
(1316.40781,929.77962,c)
);
},
{
closed = 1;
nodes = (
(1294.61986,806.16681,os),
(1277.35071,823.43596,os),
(1277.35071,848.66681,c),
(1277.35071,873.89766,os),
(1294.61986,891.16681,os),
(1319.85071,891.16681,c),
(1345.08156,891.16681,os),
(1362.35071,873.89766,os),
(1362.35071,848.66681,c),
(1362.35071,823.43596,os),
(1345.08156,806.16681,os),
(1319.85071,806.16681,c)
);
},
{
closed = 1;
nodes = (
(1287.53466,683.13171,os),
(1270.26551,700.40086,os),
(1270.26551,725.63171,c),
(1270.26551,750.86256,os),
(1287.53466,768.13171,os),
(1312.76551,768.13171,c),
(1337.99636,768.13171,os),
(1355.26551,750.86256,os),
(1355.26551,725.63171,c),
(1355.26551,700.40086,os),
(1337.99636,683.13171,os),
(1312.76551,683.13171,c)
);
},
{
closed = 1;
nodes = (
(1268.33595,560.36359,os),
(1251.0668,577.63275,os),
(1251.0668,602.86359,c),
(1251.0668,628.09444,os),
(1268.33595,645.36359,os),
(1293.5668,645.36359,c),
(1318.79764,645.36359,os),
(1336.0668,628.09444,os),
(1336.0668,602.86359,c),
(1336.0668,577.63275,os),
(1318.79764,560.36359,os),
(1293.5668,560.36359,c)
);
},
{
closed = 1;
nodes = (
(1235.38816,441.64622,os),
(1218.11901,458.91537,os),
(1218.11901,484.14622,c),
(1218.11901,509.37706,os),
(1235.38816,526.64622,os),
(1260.61901,526.64622,c),
(1285.84986,526.64622,os),
(1303.11901,509.37706,os),
(1303.11901,484.14622,c),
(1303.11901,458.91537,os),
(1285.84986,441.64622,os),
(1260.61901,441.64622,c)
);
},
{
closed = 1;
nodes = (
(1186.493,328.24204,os),
(1169.22385,345.51119,os),
(1169.22385,370.74204,c),
(1169.22385,395.97288,os),
(1186.493,413.24204,os),
(1211.72385,413.24204,c),
(1236.9547,413.24204,os),
(1254.22385,395.97288,os),
(1254.22385,370.74204,c),
(1254.22385,345.51119,os),
(1236.9547,328.24204,os),
(1211.72385,328.24204,c)
);
},
{
closed = 1;
nodes = (
(1120.40429,224.22312,os),
(1103.13514,241.49227,os),
(1103.13514,266.72312,c),
(1103.13514,291.95397,os),
(1120.40429,309.22312,os),
(1145.63514,309.22312,c),
(1170.86598,309.22312,os),
(1188.13514,291.95397,os),
(1188.13514,266.72312,c),
(1188.13514,241.49227,os),
(1170.86598,224.22312,os),
(1145.63514,224.22312,c)
);
},
{
closed = 1;
nodes = (
(1036.55828,133.31943,os),
(1019.28913,150.58858,os),
(1019.28913,175.81943,c),
(1019.28913,201.05028,os),
(1036.55828,218.31943,os),
(1061.78913,218.31943,c),
(1087.01998,218.31943,os),
(1104.28913,201.05028,os),
(1104.28913,175.81943,c),
(1104.28913,150.58858,os),
(1087.01998,133.31943,os),
(1061.78913,133.31943,c)
);
},
{
closed = 1;
nodes = (
(937.12062,60.02155,os),
(919.85146,77.2907,os),
(919.85146,102.52155,c),
(919.85146,127.75239,os),
(937.12062,145.02155,os),
(962.35146,145.02155,c),
(987.58231,145.02155,os),
(1004.85146,127.75239,os),
(1004.85146,102.52155,c),
(1004.85146,77.2907,os),
(987.58231,60.02155,os),
(962.35146,60.02155,c)
);
},
{
closed = 1;
nodes = (
(825.97812,6.76255,os),
(808.70897,24.0317,os),
(808.70897,49.26255,c),
(808.70897,74.4934,os),
(825.97812,91.76255,os),
(851.20897,91.76255,c),
(876.43981,91.76255,os),
(893.70897,74.4934,os),
(893.70897,49.26255,c),
(893.70897,24.0317,os),
(876.43981,6.76255,os),
(851.20897,6.76255,c)
);
},
{
closed = 1;
nodes = (
(707.22553,-26.47373,os),
(689.95638,-9.20458,os),
(689.95638,16.02627,c),
(689.95638,41.25712,os),
(707.22553,58.52627,os),
(732.45638,58.52627,c),
(757.68722,58.52627,os),
(774.95638,41.25712,os),
(774.95638,16.02627,c),
(774.95638,-9.20458,os),
(757.68722,-26.47373,os),
(732.45638,-26.47373,c)
);
},
{
closed = 1;
nodes = (
(584.32236,-41.26004,os),
(567.05321,-23.99089,os),
(567.05321,1.23996,c),
(567.05321,26.47081,os),
(584.32236,43.73996,os),
(609.55321,43.73996,c),
(634.78406,43.73996,os),
(652.05321,26.47081,os),
(652.05321,1.23996,c),
(652.05321,-23.99089,os),
(634.78406,-41.26004,os),
(609.55321,-41.26004,c)
);
},
{
closed = 1;
nodes = (
(461.12691,-42.5,os),
(443.85775,-25.23085,os),
(443.85775,0,c),
(443.85775,25.23085,os),
(461.12691,42.5,os),
(486.35775,42.5,c),
(511.5886,42.5,os),
(528.85775,25.23085,os),
(528.85775,0,c),
(528.85775,-25.23085,os),
(511.5886,-42.5,os),
(486.35775,-42.5,c)
);
},
{
closed = 1;
nodes = (
(338.01901,-42.5,os),
(320.74986,-25.23085,os),
(320.74986,0,c),
(320.74986,25.23085,os),
(338.01901,42.5,os),
(363.24986,42.5,c),
(388.48071,42.5,os),
(405.74986,25.23085,os),
(405.74986,0,c),
(405.74986,-25.23085,os),
(388.48071,-42.5,os),
(363.24986,-42.5,c)
);
},
{
closed = 1;
nodes = (
(224.76915,1535.56956,os),
(207.5,1552.83871,os),
(207.5,1578.06956,c),
(207.5,1603.3004,os),
(224.76915,1620.56956,os),
(250,1620.56956,c),
(275.23085,1620.56956,os),
(292.5,1603.3004,os),
(292.5,1578.06956,c),
(292.5,1552.83871,os),
(275.23085,1535.56956,os),
(250,1535.56956,c)
);
},
{
closed = 1;
nodes = (
(224.76915,1412.78899,os),
(207.5,1430.05814,os),
(207.5,1455.28899,c),
(207.5,1480.51984,os),
(224.76915,1497.78899,os),
(250,1497.78899,c),
(275.23085,1497.78899,os),
(292.5,1480.51984,os),
(292.5,1455.28899,c),
(292.5,1430.05814,os),
(275.23085,1412.78899,os),
(250,1412.78899,c)
);
},
{
closed = 1;
nodes = (
(224.76915,1289.62124,os),
(207.5,1306.89039,os),
(207.5,1332.12124,c),
(207.5,1357.35209,os),
(224.76915,1374.62124,os),
(250,1374.62124,c),
(275.23085,1374.62124,os),
(292.5,1357.35209,os),
(292.5,1332.12124,c),
(292.5,1306.89039,os),
(275.23085,1289.62124,os),
(250,1289.62124,c)
);
},
{
closed = 1;
nodes = (
(224.76915,1166.87366,os),
(207.5,1184.14281,os),
(207.5,1209.37366,c),
(207.5,1234.60451,os),
(224.76915,1251.87366,os),
(250,1251.87366,c),
(275.23085,1251.87366,os),
(292.5,1234.60451,os),
(292.5,1209.37366,c),
(292.5,1184.14281,os),
(275.23085,1166.87366,os),
(250,1166.87366,c)
);
},
{
closed = 1;
nodes = (
(224.76915,1044.7,os),
(207.5,1061.96915,os),
(207.5,1087.2,c),
(207.5,1112.43085,os),
(224.76915,1129.7,os),
(250,1129.7,c),
(275.23085,1129.7,os),
(292.5,1112.43085,os),
(292.5,1087.2,c),
(292.5,1061.96915,os),
(275.23085,1044.7,os),
(250,1044.7,c)
);
},
{
closed = 1;
nodes = (
(224.76915,922.39034,os),
(207.5,939.65949,os),
(207.5,964.89034,c),
(207.5,990.12119,os),
(224.76915,1007.39034,os),
(250,1007.39034,c),
(275.23085,1007.39034,os),
(292.5,990.12119,os),
(292.5,964.89034,c),
(292.5,939.65949,os),
(275.23085,922.39034,os),
(250,922.39034,c)
);
},
{
closed = 1;
nodes = (
(224.76915,800.30008,os),
(207.5,817.56923,os),
(207.5,842.80008,c),
(207.5,868.03092,os),
(224.76915,885.30008,os),
(250,885.30008,c),
(275.23085,885.30008,os),
(292.5,868.03092,os),
(292.5,842.80008,c),
(292.5,817.56923,os),
(275.23085,800.30008,os),
(250,800.30008,c)
);
},
{
closed = 1;
nodes = (
(224.76915,678.3409,os),
(207.5,695.61005,os),
(207.5,720.8409,c),
(207.5,746.07175,os),
(224.76915,763.3409,os),
(250,763.3409,c),
(275.23085,763.3409,os),
(292.5,746.07175,os),
(292.5,720.8409,c),
(292.5,695.61005,os),
(275.23085,678.3409,os),
(250,678.3409,c)
);
},
{
closed = 1;
nodes = (
(224.76915,556.43484,os),
(207.5,573.704,os),
(207.5,598.93484,c),
(207.5,624.16569,os),
(224.76915,641.43484,os),
(250,641.43484,c),
(275.23085,641.43484,os),
(292.5,624.16569,os),
(292.5,598.93484,c),
(292.5,573.704,os),
(275.23085,556.43484,os),
(250,556.43484,c)
);
},
{
closed = 1;
nodes = (
(224.76915,434.9688,os),
(207.5,452.23795,os),
(207.5,477.4688,c),
(207.5,502.69965,os),
(224.76915,519.9688,os),
(250,519.9688,c),
(275.23085,519.9688,os),
(292.5,502.69965,os),
(292.5,477.4688,c),
(292.5,452.23795,os),
(275.23085,434.9688,os),
(250,434.9688,c)
);
},
{
closed = 1;
nodes = (
(224.76915,313.30865,os),
(207.5,330.5778,os),
(207.5,355.80865,c),
(207.5,381.0395,os),
(224.76915,398.30865,os),
(250,398.30865,c),
(275.23085,398.30865,os),
(292.5,381.0395,os),
(292.5,355.80865,c),
(292.5,330.5778,os),
(275.23085,313.30865,os),
(250,313.30865,c)
);
},
{
closed = 1;
nodes = (
(224.76915,191.76252,os),
(207.5,209.03168,os),
(207.5,234.26252,c),
(207.5,259.49337,os),
(224.76915,276.76252,os),
(250,276.76252,c),
(275.23085,276.76252,os),
(292.5,259.49337,os),
(292.5,234.26252,c),
(292.5,209.03168,os),
(275.23085,191.76252,os),
(250,191.76252,c)
);
},
{
closed = 1;
nodes = (
(224.76915,70.23001,os),
(207.5,87.49916,os),
(207.5,112.73001,c),
(207.5,137.96086,os),
(224.76915,155.23001,os),
(250,155.23001,c),
(275.23085,155.23001,os),
(292.5,137.96086,os),
(292.5,112.73001,c),
(292.5,87.49916,os),
(275.23085,70.23001,os),
(250,70.23001,c)
);
}
);
width = 1500;
}
);
unicode = 68;
},
{
glyphname = E;
layers = (
{
layerId = m01;
shapes = (
{
closed = 1;
nodes = (
(1104.76915,857.5,os),
(1087.5,874.76915,os),
(1087.5,900,c),
(1087.5,925.23085,os),
(1104.76915,942.5,os),
(1130,942.5,c),
(1155.23085,942.5,os),
(1172.5,925.23085,os),
(1172.5,900,c),
(1172.5,874.76915,os),
(1155.23085,857.5,os),
(1130,857.5,c)
);
},
{
closed = 1;
nodes = (
(1104.76915,-42.5,os),
(1087.5,-25.23085,os),
(1087.5,0,c),
(1087.5,25.23085,os),
(1104.76915,42.5,os),
(1130,42.5,c),
(1155.23085,42.5,os),
(1172.5,25.23085,os),
(1172.5,0,c),
(1172.5,-25.23085,os),
(1155.23085,-42.5,os),
(1130,-42.5,c)
);
},
{
closed = 1;
nodes = (
(1104.76915,1657.5,os),
(1087.5,1674.76915,os),
(1087.5,1700,c),
(1087.5,1725.23085,os),
(1104.76915,1742.5,os),
(1130,1742.5,c),
(1155.23085,1742.5,os),
(1172.5,1725.23085,os),
(1172.5,1700,c),
(1172.5,1674.76915,os),
(1155.23085,1657.5,os),
(1130,1657.5,c)
);
},
{
closed = 1;
nodes = (
(986.84915,857.5,os),
(969.58,874.76915,os),
(969.58,900,c),
(969.58,925.23085,os),
(986.84915,942.5,os),
(1012.08,942.5,c),
(1037.31085,942.5,os),
(1054.58,925.23085,os),
(1054.58,900,c),
(1054.58,874.76915,os),
(1037.31085,857.5,os),
(1012.08,857.5,c)
);
},
{
closed = 1;
nodes = (
(868.92915,857.5,os),
(851.66,874.76915,os),
(851.66,900,c),
(851.66,925.23085,os),
(868.92915,942.5,os),
(894.16,942.5,c),
(919.39085,942.5,os),
(936.66,925.23085,os),
(936.66,900,c),
(936.66,874.76915,os),
(919.39085,857.5,os),
(894.16,857.5,c)
);
},
{
closed = 1;
nodes = (
(751.00915,857.5,os),
(733.74,874.76915,os),
(733.74,900,c),
(733.74,925.23085,os),
(751.00915,942.5,os),
(776.24,942.5,c),
(801.47085,942.5,os),
(818.74,925.23085,os),
(818.74,900,c),
(818.74,874.76915,os),
(801.47085,857.5,os),
(776.24,857.5,c)
);
},
{
closed = 1;
nodes = (
(633.08915,857.5,os),
(615.82,874.76915,os),
(615.82,900,c),
(615.82,925.23085,os),
(633.08915,942.5,os),
(658.32,942.5,c),
(683.55085,942.5,os),
(700.82,925.23085,os),
(700.82,900,c),
(700.82,874.76915,os),
(683.55085,857.5,os),
(658.32,857.5,c)
);
},
{
closed = 1;
nodes = (
(515.16915,857.5,os),
(497.9,874.76915,os),
(497.9,900,c),
(497.9,925.23085,os),
(515.16915,942.5,os),
(540.4,942.5,c),
(565.63085,942.5,os),
(582.9,925.23085,os),
(582.9,900,c),
(582.9,874.76915,os),
(565.63085,857.5,os),
(540.4,857.5,c)
);
},
{
closed = 1;
nodes = (
(397.24915,857.5,os),
(379.98,874.76915,os),
(379.98,900,c),
(379.98,925.23085,os),
(397.24915,942.5,os),
(422.48,942.5,c),
(447.71085,942.5,os),
(464.98,925.23085,os),
(464.98,900,c),
(464.98,874.76915,os),
(447.71085,857.5,os),
(422.48,857.5,c)
);
},
{
closed = 1;
nodes = (
(279.32915,857.5,os),
(262.06,874.76915,os),
(262.06,900,c),
(262.06,925.23085,os),
(279.32915,942.5,os),
(304.56,942.5,c),
(329.79085,942.5,os),
(347.06,925.23085,os),
(347.06,900,c),
(347.06,874.76915,os),
(329.79085,857.5,os),
(304.56,857.5,c)
);
},
{
closed = 1;
nodes = (
(986.84915,-42.5,os),
(969.58,-25.23085,os),
(969.58,0,c),
(969.58,25.23085,os),
(986.84915,42.5,os),
(1012.08,42.5,c),
(1037.31085,42.5,os),
(1054.58,25.23085,os),
(1054.58,0,c),
(1054.58,-25.23085,os),
(1037.31085,-42.5,os),
(1012.08,-42.5,c)
);
},
{
closed = 1;
nodes = (
(868.92915,-42.5,os),
(851.66,-25.23085,os),
(851.66,0,c),
(851.66,25.23085,os),
(868.92915,42.5,os),
(894.16,42.5,c),
(919.39085,42.5,os),
(936.66,25.23085,os),
(936.66,0,c),
(936.66,-25.23085,os),
(919.39085,-42.5,os),
(894.16,-42.5,c)
);
},
{
closed = 1;
nodes = (
(751.00915,-42.5,os),
(733.74,-25.23085,os),
(733.74,0,c),
(733.74,25.23085,os),
(751.00915,42.5,os),
(776.24,42.5,c),
(801.47085,42.5,os),
(818.74,25.23085,os),
(818.74,0,c),
(818.74,-25.23085,os),
(801.47085,-42.5,os),
(776.24,-42.5,c)
);
},
{
closed = 1;
nodes = (
(633.08915,-42.5,os),
(615.82,-25.23085,os),
(615.82,0,c),
(615.82,25.23085,os),
(633.08915,42.5,os),
(658.32,42.5,c),
(683.55085,42.5,os),
(700.82,25.23085,os),
(700.82,0,c),
(700.82,-25.23085,os),
(683.55085,-42.5,os),
(658.32,-42.5,c)
);
},
{
closed = 1;
nodes = (
(515.16915,-42.5,os),
(497.9,-25.23085,os),
(497.9,0,c),
(497.9,25.23085,os),
(515.16915,42.5,os),
(540.4,42.5,c),
(565.63085,42.5,os),
(582.9,25.23085,os),
(582.9,0,c),
(582.9,-25.23085,os),
(565.63085,-42.5,os),
(540.4,-42.5,c)
);
},
{
closed = 1;
nodes = (
(397.24915,-42.5,os),
(379.98,-25.23085,os),
(379.98,0,c),
(379.98,25.23085,os),
(397.24915,42.5,os),
(422.48,42.5,c),
(447.71085,42.5,os),
(464.98,25.23085,os),
(464.98,0,c),
(464.98,-25.23085,os),
(447.71085,-42.5,os),
(422.48,-42.5,c)
);
},
{
closed = 1;
nodes = (
(279.32915,-42.5,os),
(262.06,-25.23085,os),
(262.06,0,c),
(262.06,25.23085,os),
(279.32915,42.5,os),
(304.56,42.5,c),
(329.79085,42.5,os),
(347.06,25.23085,os),
(347.06,0,c),
(347.06,-25.23085,os),
(329.79085,-42.5,os),
(304.56,-42.5,c)
);
},
{
closed = 1;
nodes = (
(986.84915,1657.5,os),
(969.58,1674.76915,os),
(969.58,1700,c),
(969.58,1725.23085,os),
(986.84915,1742.5,os),
(1012.08,1742.5,c),
(1037.31085,1742.5,os),
(1054.58,1725.23085,os),
(1054.58,1700,c),
(1054.58,1674.76915,os),
(1037.31085,1657.5,os),
(1012.08,1657.5,c)
);
},
{
closed = 1;
nodes = (
(868.92915,1657.5,os),
(851.66,1674.76915,os),
(851.66,1700,c),
(851.66,1725.23085,os),
(868.92915,1742.5,os),
(894.16,1742.5,c),
(919.39085,1742.5,os),
(936.66,1725.23085,os),
(936.66,1700,c),
(936.66,1674.76915,os),
(919.39085,1657.5,os),
(894.16,1657.5,c)
);
},
{
closed = 1;
nodes = (
(751.00915,1657.5,os),
(733.74,1674.76915,os),
(733.74,1700,c),
(733.74,1725.23085,os),
(751.00915,1742.5,os),
(776.24,1742.5,c),
(801.47085,1742.5,os),
(818.74,1725.23085,os),
(818.74,1700,c),
(818.74,1674.76915,os),
(801.47085,1657.5,os),
(776.24,1657.5,c)
);
},
{
closed = 1;
nodes = (
(633.08915,1657.5,os),
(615.82,1674.76915,os),
(615.82,1700,c),
(615.82,1725.23085,os),
(633.08915,1742.5,os),
(658.32,1742.5,c),
(683.55085,1742.5,os),
(700.82,1725.23085,os),
(700.82,1700,c),
(700.82,1674.76915,os),
(683.55085,1657.5,os),
(658.32,1657.5,c)
);
},
{
closed = 1;
nodes = (
(515.16915,1657.5,os),
(497.9,1674.76915,os),
(497.9,1700,c),
(497.9,1725.23085,os),
(515.16915,1742.5,os),
(540.4,1742.5,c),
(565.63085,1742.5,os),
(582.9,1725.23085,os),
(582.9,1700,c),
(582.9,1674.76915,os),
(565.63085,1657.5,os),
(540.4,1657.5,c)
);
},
{
closed = 1;
nodes = (
(397.24915,1657.5,os),
(379.98,1674.76915,os),
(379.98,1700,c),
(379.98,1725.23085,os),
(397.24915,1742.5,os),
(422.48,1742.5,c),
(447.71085,1742.5,os),
(464.98,1725.23085,os),
(464.98,1700,c),
(464.98,1674.76915,os),
(447.71085,1657.5,os),
(422.48,1657.5,c)
);
},
{
closed = 1;
nodes = (
(279.32915,1657.5,os),
(262.06,1674.76915,os),
(262.06,1700,c),
(262.06,1725.23085,os),
(279.32915,1742.5,os),
(304.56,1742.5,c),
(329.79085,1742.5,os),
(347.06,1725.23085,os),
(347.06,1700,c),
(347.06,1674.76915,os),
(329.79085,1657.5,os),
(304.56,1657.5,c)
);
},
{
ref = _c.stemLA;
}
);
width = 1380;
}
);
unicode = 69;
},
{
glyphname = F;
layers = (
{
layerId = m01;
shapes = (
{
closed = 1;
nodes = (
(1104.76915,857.5,os),
(1087.5,874.76915,os),
(1087.5,900,c),
(1087.5,925.23085,os),
(1104.76915,942.5,os),
(1130,942.5,c),
(1155.23085,942.5,os),
(1172.5,925.23085,os),
(1172.5,900,c),
(1172.5,874.76915,os),
(1155.23085,857.5,os),
(1130,857.5,c)
);
},
{
closed = 1;
nodes = (
(1104.76915,1657.5,os),
(1087.5,1674.76915,os),
(1087.5,1700,c),
(1087.5,1725.23085,os),
(1104.76915,1742.5,os),
(1130,1742.5,c),
(1155.23085,1742.5,os),
(1172.5,1725.23085,os),
(1172.5,1700,c),
(1172.5,1674.76915,os),
(1155.23085,1657.5,os),
(1130,1657.5,c)
);
},
{
closed = 1;
nodes = (
(986.84915,857.5,os),
(969.58,874.76915,os),
(969.58,900,c),
(969.58,925.23085,os),
(986.84915,942.5,os),
(1012.08,942.5,c),
(1037.31085,942.5,os),
(1054.58,925.23085,os),
(1054.58,900,c),
(1054.58,874.76915,os),
(1037.31085,857.5,os),
(1012.08,857.5,c)
);
},
{
closed = 1;
nodes = (
(868.92915,857.5,os),
(851.66,874.76915,os),
(851.66,900,c),
(851.66,925.23085,os),
(868.92915,942.5,os),
(894.16,942.5,c),
(919.39085,942.5,os),
(936.66,925.23085,os),
(936.66,900,c),
(936.66,874.76915,os),
(919.39085,857.5,os),
(894.16,857.5,c)
);
},
{
closed = 1;
nodes = (
(751.00915,857.5,os),
(733.74,874.76915,os),
(733.74,900,c),
(733.74,925.23085,os),
(751.00915,942.5,os),
(776.24,942.5,c),
(801.47085,942.5,os),
(818.74,925.23085,os),
(818.74,900,c),
(818.74,874.76915,os),
(801.47085,857.5,os),
(776.24,857.5,c)
);
},
{
closed = 1;
nodes = (
(633.08915,857.5,os),
(615.82,874.76915,os),
(615.82,900,c),
(615.82,925.23085,os),
(633.08915,942.5,os),
(658.32,942.5,c),
(683.55085,942.5,os),
(700.82,925.23085,os),
(700.82,900,c),
(700.82,874.76915,os),
(683.55085,857.5,os),
(658.32,857.5,c)
);
},
{
closed = 1;
nodes = (
(515.16915,857.5,os),
(497.9,874.76915,os),
(497.9,900,c),
(497.9,925.23085,os),
(515.16915,942.5,os),
(540.4,942.5,c),
(565.63085,942.5,os),
(582.9,925.23085,os),
(582.9,900,c),
(582.9,874.76915,os),
(565.63085,857.5,os),
(540.4,857.5,c)
);
},
{
closed = 1;
nodes = (
(397.24915,857.5,os),
(379.98,874.76915,os),
(379.98,900,c),
(379.98,925.23085,os),
(397.24915,942.5,os),
(422.48,942.5,c),
(447.71085,942.5,os),
(464.98,925.23085,os),
(464.98,900,c),
(464.98,874.76915,os),
(447.71085,857.5,os),
(422.48,857.5,c)
);
},
{
closed = 1;
nodes = (
(279.32915,857.5,os),
(262.06,874.76915,os),
(262.06,900,c),
(262.06,925.23085,os),
(279.32915,942.5,os),
(304.56,942.5,c),
(329.79085,942.5,os),
(347.06,925.23085,os),
(347.06,900,c),
(347.06,874.76915,os),
(329.79085,857.5,os),
(304.56,857.5,c)
);
},
{
closed = 1;
nodes = (
(986.84915,1657.5,os),
(969.58,1674.76915,os),
(969.58,1700,c),
(969.58,1725.23085,os),
(986.84915,1742.5,os),
(1012.08,1742.5,c),
(1037.31085,1742.5,os),
(1054.58,1725.23085,os),
(1054.58,1700,c),
(1054.58,1674.76915,os),
(1037.31085,1657.5,os),
(1012.08,1657.5,c)
);
},
{
closed = 1;
nodes = (
(868.92915,1657.5,os),
(851.66,1674.76915,os),
(851.66,1700,c),
(851.66,1725.23085,os),
(868.92915,1742.5,os),
(894.16,1742.5,c),
(919.39085,1742.5,os),
(936.66,1725.23085,os),
(936.66,1700,c),
(936.66,1674.76915,os),
(919.39085,1657.5,os),
(894.16,1657.5,c)
);
},
{
closed = 1;
nodes = (
(751.00915,1657.5,os),
(733.74,1674.76915,os),
(733.74,1700,c),
(733.74,1725.23085,os),
(751.00915,1742.5,os),
(776.24,1742.5,c),
(801.47085,1742.5,os),
(818.74,1725.23085,os),
(818.74,1700,c),
(818.74,1674.76915,os),
(801.47085,1657.5,os),
(776.24,1657.5,c)
);
},
{
closed = 1;
nodes = (
(633.08915,1657.5,os),
(615.82,1674.76915,os),
(615.82,1700,c),
(615.82,1725.23085,os),
(633.08915,1742.5,os),
(658.32,1742.5,c),
(683.55085,1742.5,os),
(700.82,1725.23085,os),
(700.82,1700,c),
(700.82,1674.76915,os),
(683.55085,1657.5,os),
(658.32,1657.5,c)
);
},
{
closed = 1;
nodes = (
(515.16915,1657.5,os),
(497.9,1674.76915,os),
(497.9,1700,c),
(497.9,1725.23085,os),
(515.16915,1742.5,os),
(540.4,1742.5,c),
(565.63085,1742.5,os),
(582.9,1725.23085,os),
(582.9,1700,c),
(582.9,1674.76915,os),
(565.63085,1657.5,os),
(540.4,1657.5,c)
);
},
{
closed = 1;
nodes = (
(397.24915,1657.5,os),
(379.98,1674.76915,os),
(379.98,1700,c),
(379.98,1725.23085,os),
(397.24915,1742.5,os),
(422.48,1742.5,c),
(447.71085,1742.5,os),
(464.98,1725.23085,os),
(464.98,1700,c),
(464.98,1674.76915,os),
(447.71085,1657.5,os),
(422.48,1657.5,c)
);
},
{
closed = 1;
nodes = (
(279.32915,1657.5,os),
(262.06,1674.76915,os),
(262.06,1700,c),
(262.06,1725.23085,os),
(279.32915,1742.5,os),
(304.56,1742.5,c),
(329.79085,1742.5,os),
(347.06,1725.23085,os),
(347.06,1700,c),
(347.06,1674.76915,os),
(329.79085,1657.5,os),
(304.56,1657.5,c)
);
},
{
ref = _c.stemLA;
}
);
width = 1380;
}
);
unicode = 70;
},
{
glyphname = G;
layers = (
{
background = {
shapes = (
{
closed = 0;
nodes = (
(1285,1359,l),
(1165,1515,o),
(1000,1600,o),
(760,1600,cs),
(475,1600,o),
(190,1367,o),
(190,817,cs),
(190,267,o),
(475,0,o),
(760,0,cs),
(1000,0,o),
(1155,105,o),
(1300,293,c)
);
},
{
closed = 0;
nodes = (
(530,600,l),
(630,600,o),
(1150,600,o),
(1250,600,c)
);
}
);
};
layerId = m01;
shapes = (
{
closed = 1;
nodes = (
(1264.76915,1397.5,os),
(1247.5,1414.76915,os),
(1247.5,1440,c),
(1247.5,1465.23085,os),
(1264.76915,1482.5,os),
(1290,1482.5,c),
(1315.23085,1482.5,os),
(1332.5,1465.23085,os),
(1332.5,1440,c),
(1332.5,1414.76915,os),
(1315.23085,1397.5,os),
(1290,1397.5,c)
);
},
{
closed = 1;
nodes = (
(1284.76915,757.5,os),
(1267.5,774.76915,os),
(1267.5,800,c),
(1267.5,825.23085,os),
(1284.76915,842.5,os),
(1310,842.5,c),
(1335.23085,842.5,os),
(1352.5,825.23085,os),
(1352.5,800,c),
(1352.5,774.76915,os),
(1335.23085,757.5,os),
(1310,757.5,c)
);
},
{
closed = 1;
nodes = (
(734.76915,757.5,os),
(717.5,774.76915,os),
(717.5,800,c),
(717.5,825.23085,os),
(734.76915,842.5,os),
(760,842.5,c),
(785.23085,842.5,os),
(802.5,825.23085,os),
(802.5,800,c),
(802.5,774.76915,os),
(785.23085,757.5,os),
(760,757.5,c)
);
},
{
closed = 1;
nodes = (
(1184.30402,1489.60393,os),
(1167.03486,1506.87308,os),
(1167.03486,1532.10393,c),
(1167.03486,1557.33478,os),
(1184.30402,1574.60393,os),
(1209.53486,1574.60393,c),
(1234.76571,1574.60393,os),
(1252.03486,1557.33478,os),
(1252.03486,1532.10393,c),
(1252.03486,1506.87308,os),
(1234.76571,1489.60393,os),
(1209.53486,1489.60393,c)
);
},
{
closed = 1;
nodes = (
(1089.18334,1566.37033,os),
(1071.91419,1583.63949,os),
(1071.91419,1608.87033,c),
(1071.91419,1634.10118,os),
(1089.18334,1651.37033,os),
(1114.41419,1651.37033,c),
(1139.64504,1651.37033,os),
(1156.91419,1634.10118,os),
(1156.91419,1608.87033,c),
(1156.91419,1583.63949,os),
(1139.64504,1566.37033,os),
(1114.41419,1566.37033,c)
);
},
{
closed = 1;
nodes = (
(979.81229,1619.89873,os),
(962.54314,1637.16789,os),
(962.54314,1662.39873,c),
(962.54314,1687.62958,os),
(979.81229,1704.89873,os),
(1005.04314,1704.89873,c),
(1030.27399,1704.89873,os),
(1047.54314,1687.62958,os),
(1047.54314,1662.39873,c),
(1047.54314,1637.16789,os),
(1030.27399,1619.89873,os),
(1005.04314,1619.89873,c)
);
},
{
closed = 1;
nodes = (
(861.05131,1648.83996,os),
(843.78216,1666.10911,os),
(843.78216,1691.33996,c),
(843.78216,1716.57081,os),
(861.05131,1733.83996,os),
(886.28216,1733.83996,c),
(911.51301,1733.83996,os),
(928.78216,1716.57081,os),
(928.78216,1691.33996,c),
(928.78216,1666.10911,os),
(911.51301,1648.83996,os),
(886.28216,1648.83996,c)
);
},
{
closed = 1;
nodes = (
(738.80942,1657.49221,os),
(721.54026,1674.76136,os),
(721.54026,1699.99221,c),
(721.54026,1725.22305,os),
(738.80942,1742.49221,os),
(764.04026,1742.49221,c),
(789.27111,1742.49221,os),
(806.54026,1725.22305,os),
(806.54026,1699.99221,c),
(806.54026,1674.76136,os),
(789.27111,1657.49221,os),
(764.04026,1657.49221,c)
);
},
{
closed = 1;
nodes = (
(617.45084,1644.60323,os),
(600.18169,1661.87238,os),
(600.18169,1687.10323,c),
(600.18169,1712.33407,os),
(617.45084,1729.60323,os),
(642.68169,1729.60323,c),
(667.91253,1729.60323,os),
(685.18169,1712.33407,os),
(685.18169,1687.10323,c),
(685.18169,1661.87238,os),
(667.91253,1644.60323,os),
(642.68169,1644.60323,c)
);
},
{
closed = 1;
nodes = (
(502.86696,1603.04481,os),
(485.5978,1620.31397,os),
(485.5978,1645.54481,c),
(485.5978,1670.77566,os),
(502.86696,1688.04481,os),
(528.0978,1688.04481,c),
(553.32865,1688.04481,os),
(570.5978,1670.77566,os),
(570.5978,1645.54481,c),
(570.5978,1620.31397,os),
(553.32865,1603.04481,os),
(528.0978,1603.04481,c)
);
},
{
closed = 1;
nodes = (
(401.81019,1534.20319,os),
(384.54103,1551.47234,os),
(384.54103,1576.70319,c),
(384.54103,1601.93404,os),
(401.81019,1619.20319,os),
(427.04103,1619.20319,c),
(452.27188,1619.20319,os),
(469.54103,1601.93404,os),
(469.54103,1576.70319,c),
(469.54103,1551.47234,os),
(452.27188,1534.20319,os),
(427.04103,1534.20319,c)
);
},
{
closed = 1;
nodes = (
(319.15424,1443.7253,os),
(301.88509,1460.99445,os),
(301.88509,1486.2253,c),
(301.88509,1511.45615,os),
(319.15424,1528.7253,os),
(344.38509,1528.7253,c),
(369.61594,1528.7253,os),
(386.88509,1511.45615,os),
(386.88509,1486.2253,c),
(386.88509,1460.99445,os),
(369.61594,1443.7253,os),
(344.38509,1443.7253,c)
);
},
{
closed = 1;
nodes = (
(256.08856,1339.04413,os),
(238.81941,1356.31328,os),
(238.81941,1381.54413,c),
(238.81941,1406.77498,os),
(256.08856,1424.04413,os),
(281.31941,1424.04413,c),
(306.55026,1424.04413,os),
(323.81941,1406.77498,os),
(323.81941,1381.54413,c),
(323.81941,1356.31328,os),
(306.55026,1339.04413,os),
(281.31941,1339.04413,c)
);
},
{
closed = 1;
nodes = (
(210.68403,1225.77648,os),
(193.41488,1243.04563,os),
(193.41488,1268.27648,c),
(193.41488,1293.50733,os),
(210.68403,1310.77648,os),
(235.91488,1310.77648,c),
(261.14573,1310.77648,os),
(278.41488,1293.50733,os),
(278.41488,1268.27648,c),
(278.41488,1243.04563,os),
(261.14573,1225.77648,os),
(235.91488,1225.77648,c)
);
},
{
closed = 1;
nodes = (
(180.31068,1107.65972,os),
(163.04153,1124.92887,os),
(163.04153,1150.15972,c),
(163.04153,1175.39057,os),
(180.31068,1192.65972,os),
(205.54153,1192.65972,c),
(230.77238,1192.65972,os),
(248.04153,1175.39057,os),
(248.04153,1150.15972,c),
(248.04153,1124.92887,os),
(230.77238,1107.65972,os),
(205.54153,1107.65972,c)
);
},
{
closed = 1;
nodes = (
(162.38231,985.87689,os),
(145.11316,1003.14604,os),
(145.11316,1028.37689,c),
(145.11316,1053.60773,os),
(162.38231,1070.87689,os),
(187.61316,1070.87689,c),
(212.84401,1070.87689,os),
(230.11316,1053.60773,os),
(230.11316,1028.37689,c),
(230.11316,1003.14604,os),
(212.84401,985.87689,os),
(187.61316,985.87689,c)
);
},
{
closed = 1;
nodes = (
(155.13744,863.40785,os),
(137.86829,880.67701,os),
(137.86829,905.90785,c),
(137.86829,931.1387,os),
(155.13744,948.40785,os),
(180.36829,948.40785,c),
(205.59914,948.40785,os),
(222.86829,931.1387,os),
(222.86829,905.90785,c),
(222.86829,880.67701,os),
(205.59914,863.40785,os),
(180.36829,863.40785,c)
);
},
{
closed = 1;
nodes = (
(156.97076,740.42621,os),
(139.70161,757.69536,os),
(139.70161,782.92621,c),
(139.70161,808.15706,os),
(156.97076,825.42621,os),
(182.20161,825.42621,c),
(207.43246,825.42621,os),
(224.70161,808.15706,os),
(224.70161,782.92621,c),
(224.70161,757.69536,os),
(207.43246,740.42621,os),
(182.20161,740.42621,c)
);
},
{
closed = 1;
nodes = (
(168.25611,617.54668,os),
(150.98696,634.81584,os),
(150.98696,660.04668,c),
(150.98696,685.27753,os),
(168.25611,702.54668,os),
(193.48696,702.54668,c),
(218.7178,702.54668,os),
(235.98696,685.27753,os),
(235.98696,660.04668,c),
(235.98696,634.81584,os),
(218.7178,617.54668,os),
(193.48696,617.54668,c)
);
},
{
closed = 1;
nodes = (
(190.13565,497.52174,os),
(172.8665,514.79089,os),
(172.8665,540.02174,c),
(172.8665,565.25258,os),
(190.13565,582.52174,os),
(215.3665,582.52174,c),
(240.59735,582.52174,os),
(257.8665,565.25258,os),
(257.8665,540.02174,c),
(257.8665,514.79089,os),
(240.59735,497.52174,os),
(215.3665,497.52174,c)
);
},
{
closed = 1;
nodes = (
(224.46765,380.21756,os),
(207.1985,397.48672,os),
(207.1985,422.71756,c),
(207.1985,447.94841,os),
(224.46765,465.21756,os),
(249.6985,465.21756,c),
(274.92935,465.21756,os),
(292.1985,447.94841,os),
(292.1985,422.71756,c),
(292.1985,397.48672,os),
(274.92935,380.21756,os),
(249.6985,380.21756,c)
);
},
{
closed = 1;
nodes = (
(273.2987,268.01785,os),
(256.02955,285.28701,os),
(256.02955,310.51785,c),
(256.02955,335.7487,os),
(273.2987,353.01785,os),
(298.52955,353.01785,c),
(323.7604,353.01785,os),
(341.02955,335.7487,os),
(341.02955,310.51785,c),
(341.02955,285.28701,os),
(323.7604,268.01785,os),
(298.52955,268.01785,c)
);
},
{
closed = 1;
nodes = (
(338.8522,164.45453,os),
(321.58305,181.72368,os),
(321.58305,206.95453,c),
(321.58305,232.18538,os),
(338.8522,249.45453,os),
(364.08305,249.45453,c),
(389.31389,249.45453,os),
(406.58305,232.18538,os),
(406.58305,206.95453,c),
(406.58305,181.72368,os),
(389.31389,164.45453,os),
(364.08305,164.45453,c)
);
},
{
closed = 1;
nodes = (
(422.63055,75.10594,os),
(405.36139,92.37509,os),
(405.36139,117.60594,c),
(405.36139,142.83679,os),
(422.63055,160.10594,os),
(447.86139,160.10594,c),
(473.09224,160.10594,os),
(490.36139,142.83679,os),
(490.36139,117.60594,c),
(490.36139,92.37509,os),
(473.09224,75.10594,os),
(447.86139,75.10594,c)
);
},
{
closed = 1;
nodes = (
(523.87905,7.18897,os),
(506.60989,24.45812,os),
(506.60989,49.68897,c),
(506.60989,74.91982,os),
(523.87905,92.18897,os),
(549.10989,92.18897,c),
(574.34074,92.18897,os),
(591.60989,74.91982,os),
(591.60989,49.68897,c),
(591.60989,24.45812,os),
(574.34074,7.18897,os),
(549.10989,7.18897,c)
);
},
{
closed = 1;
nodes = (
(639.55415,-32.99,os),
(622.285,-15.72085,os),
(622.285,9.51,c),
(622.285,34.74085,os),
(639.55415,52.01,os),
(664.785,52.01,c),
(690.01585,52.01,os),
(707.285,34.74085,os),
(707.285,9.51,c),
(707.285,-15.72085,os),
(690.01585,-32.99,os),
(664.785,-32.99,c)
);
},
{
closed = 1;
nodes = (
(761.83121,-41.90843,os),
(744.56206,-24.63928,os),
(744.56206,0.59157,c),
(744.56206,25.82241,os),
(761.83121,43.09157,os),
(787.06206,43.09157,c),
(812.2929,43.09157,os),
(829.56206,25.82241,os),
(829.56206,0.59157,c),
(829.56206,-24.63928,os),
(812.2929,-41.90843,os),
(787.06206,-41.90843,c)
);
},
{
closed = 1;
nodes = (
(882.57715,-23.72086,os),
(865.308,-6.45171,os),
(865.308,18.77914,c),
(865.308,44.00998,os),
(882.57715,61.27914,os),
(907.808,61.27914,c),
(933.03885,61.27914,os),
(950.308,44.00998,os),
(950.308,18.77914,c),
(950.308,-6.45171,os),
(933.03885,-23.72086,os),
(907.808,-23.72086,c)
);
},
{
closed = 1;
nodes = (
(996.13249,21.10515,os),
(978.86334,38.3743,os),
(978.86334,63.60515,c),
(978.86334,88.83599,os),
(996.13249,106.10515,os),
(1021.36334,106.10515,c),
(1046.59419,106.10515,os),
(1063.86334,88.83599,os),
(1063.86334,63.60515,c),
(1063.86334,38.3743,os),
(1046.59419,21.10515,os),
(1021.36334,21.10515,c)
);
},
{
closed = 1;
nodes = (
(1095.67909,91.47427,os),
(1078.40993,108.74342,os),
(1078.40993,133.97427,c),
(1078.40993,159.20511,os),
(1095.67909,176.47427,os),
(1120.90993,176.47427,c),
(1146.14078,176.47427,os),
(1163.40993,159.20511,os),
(1163.40993,133.97427,c),
(1163.40993,108.74342,os),
(1146.14078,91.47427,os),
(1120.90993,91.47427,c)
);
},
{
closed = 1;
nodes = (
(1175.95978,183.24667,os),
(1158.69063,200.51583,os),
(1158.69063,225.74667,c),
(1158.69063,250.97752,os),
(1175.95978,268.24667,os),
(1201.19063,268.24667,c),
(1226.42148,268.24667,os),
(1243.69063,250.97752,os),
(1243.69063,225.74667,c),
(1243.69063,200.51583,os),
(1226.42148,183.24667,os),
(1201.19063,183.24667,c)
);
},
{
closed = 1;
nodes = (
(1234.24398,290.7739,os),
(1216.97483,308.04305,os),
(1216.97483,333.2739,c),
(1216.97483,358.50475,os),
(1234.24398,375.7739,os),
(1259.47483,375.7739,c),
(1284.70568,375.7739,os),
(1301.97483,358.50475,os),
(1301.97483,333.2739,c),
(1301.97483,308.04305,os),
(1284.70568,290.7739,os),
(1259.47483,290.7739,c)
);
},
{
closed = 1;
nodes = (
(1269.80885,407.28631,os),
(1252.53969,424.55546,os),
(1252.53969,449.78631,c),
(1252.53969,475.01716,os),
(1269.80885,492.28631,os),
(1295.03969,492.28631,c),
(1320.27054,492.28631,os),
(1337.53969,475.01716,os),
(1337.53969,449.78631,c),
(1337.53969,424.55546,os),
(1320.27054,407.28631,os),
(1295.03969,407.28631,c)
);
},
{
closed = 1;
nodes = (
(1284.2427,528.57658,os),
(1266.97354,545.84573,os),
(1266.97354,571.07658,c),
(1266.97354,596.30743,os),
(1284.2427,613.57658,os),
(1309.47354,613.57658,c),
(1334.70439,613.57658,os),
(1351.97354,596.30743,os),
(1351.97354,571.07658,c),
(1351.97354,545.84573,os),
(1334.70439,528.57658,os),
(1309.47354,528.57658,c)
);
},
{
closed = 1;
nodes = (
(1284.76915,650.7527,os),
(1267.5,668.02185,os),
(1267.5,693.2527,c),
(1267.5,718.48355,os),
(1284.76915,735.7527,os),
(1310,735.7527,c),
(1335.23085,735.7527,os),
(1352.5,718.48355,os),
(1352.5,693.2527,c),
(1352.5,668.02185,os),
(1335.23085,650.7527,os),
(1310,650.7527,c)
);
},
{
closed = 1;
nodes = (
(843.29696,757.5,os),
(826.0278,774.76915,os),
(826.0278,800,c),
(826.0278,825.23085,os),
(843.29696,842.5,os),
(868.5278,842.5,c),
(893.75865,842.5,os),
(911.0278,825.23085,os),
(911.0278,800,c),
(911.0278,774.76915,os),
(893.75865,757.5,os),
(868.5278,757.5,c)
);
},
{
closed = 1;
nodes = (
(951.56424,757.5,os),
(934.29509,774.76915,os),
(934.29509,800,c),
(934.29509,825.23085,os),
(951.56424,842.5,os),
(976.79509,842.5,c),
(1002.02594,842.5,os),
(1019.29509,825.23085,os),
(1019.29509,800,c),
(1019.29509,774.76915,os),
(1002.02594,757.5,os),
(976.79509,757.5,c)
);
},
{
closed = 1;
nodes = (
(1059.92465,757.5,os),
(1042.6555,774.76915,os),
(1042.6555,800,c),
(1042.6555,825.23085,os),
(1059.92465,842.5,os),
(1085.1555,842.5,c),
(1110.38635,842.5,os),
(1127.6555,825.23085,os),
(1127.6555,800,c),
(1127.6555,774.76915,os),
(1110.38635,757.5,os),
(1085.1555,757.5,c)
);
},
{
closed = 1;
nodes = (
(1167.93267,757.5,os),
(1150.66352,774.76915,os),
(1150.66352,800,c),
(1150.66352,825.23085,os),
(1167.93267,842.5,os),
(1193.16352,842.5,c),
(1218.39437,842.5,os),
(1235.66352,825.23085,os),
(1235.66352,800,c),
(1235.66352,774.76915,os),
(1218.39437,757.5,os),
(1193.16352,757.5,c)
);
}
);
width = 1510;
}
);
unicode = 71;
},
{
glyphname = H;
layers = (
{
layerId = m01;
shapes = (
{
closed = 1;
nodes = (
(1244.76915,857.5,os),
(1227.5,874.76915,os),
(1227.5,900,c),
(1227.5,925.23085,os),
(1244.76915,942.5,os),
(1270,942.5,c),
(1295.23085,942.5,os),
(1312.5,925.23085,os),
(1312.5,900,c),
(1312.5,874.76915,os),
(1295.23085,857.5,os),
(1270,857.5,c)
);
},
{
closed = 1;
nodes = (
(1124.40915,857.5,os),
(1107.14,874.76915,os),
(1107.14,900,c),
(1107.14,925.23085,os),
(1124.40915,942.5,os),
(1149.64,942.5,c),
(1174.87085,942.5,os),
(1192.14,925.23085,os),
(1192.14,900,c),
(1192.14,874.76915,os),
(1174.87085,857.5,os),
(1149.64,857.5,c)
);
},
{
closed = 1;
nodes = (
(1004.04915,857.5,os),
(986.78,874.76915,os),
(986.78,900,c),
(986.78,925.23085,os),
(1004.04915,942.5,os),
(1029.28,942.5,c),
(1054.51085,942.5,os),
(1071.78,925.23085,os),
(1071.78,900,c),
(1071.78,874.76915,os),
(1054.51085,857.5,os),
(1029.28,857.5,c)
);
},
{
closed = 1;
nodes = (
(883.68915,857.5,os),
(866.42,874.76915,os),
(866.42,900,c),
(866.42,925.23085,os),
(883.68915,942.5,os),
(908.92,942.5,c),
(934.15085,942.5,os),
(951.42,925.23085,os),
(951.42,900,c),
(951.42,874.76915,os),
(934.15085,857.5,os),
(908.92,857.5,c)
);
},
{
closed = 1;
nodes = (
(763.32915,857.5,os),
(746.06,874.76915,os),
(746.06,900,c),
(746.06,925.23085,os),
(763.32915,942.5,os),
(788.56,942.5,c),
(813.79085,942.5,os),
(831.06,925.23085,os),
(831.06,900,c),
(831.06,874.76915,os),
(813.79085,857.5,os),
(788.56,857.5,c)
);
},
{
closed = 1;
nodes = (
(642.96915,857.5,os),
(625.7,874.76915,os),
(625.7,900,c),
(625.7,925.23085,os),
(642.96915,942.5,os),
(668.2,942.5,c),
(693.43085,942.5,os),
(710.7,925.23085,os),
(710.7,900,c),
(710.7,874.76915,os),
(693.43085,857.5,os),
(668.2,857.5,c)
);
},
{
closed = 1;
nodes = (
(522.60915,857.5,os),
(505.34,874.76915,os),
(505.34,900,c),
(505.34,925.23085,os),
(522.60915,942.5,os),
(547.84,942.5,c),
(573.07085,942.5,os),
(590.34,925.23085,os),
(590.34,900,c),
(590.34,874.76915,os),
(573.07085,857.5,os),
(547.84,857.5,c)
);
},
{
closed = 1;
nodes = (
(402.24915,857.5,os),
(384.98,874.76915,os),
(384.98,900,c),
(384.98,925.23085,os),
(402.24915,942.5,os),
(427.48,942.5,c),
(452.71085,942.5,os),
(469.98,925.23085,os),
(469.98,900,c),
(469.98,874.76915,os),
(452.71085,857.5,os),
(427.48,857.5,c)
);
},
{
closed = 1;
nodes = (
(281.88915,857.5,os),
(264.62,874.76915,os),
(264.62,900,c),
(264.62,925.23085,os),
(281.88915,942.5,os),
(307.12,942.5,c),
(332.35085,942.5,os),
(349.62,925.23085,os),
(349.62,900,c),
(349.62,874.76915,os),
(332.35085,857.5,os),
(307.12,857.5,c)
);
},
{
ref = _c.stemLA;
},
{
pos = (1020,0);
ref = _c.stemLA;
}
);
width = 1520;
}
);
unicode = 72;
},
{
glyphname = I;
layers = (
{
layerId = m01;
shapes = (
{
closed = 1;
nodes = (
(224.76915,-42.5,os),
(207.5,-25.23085,os),
(207.5,0,c),
(207.5,25.23085,os),
(224.76915,42.5,os),
(250,42.5,c),
(275.23085,42.5,os),
(292.5,25.23085,os),
(292.5,0,c),
(292.5,-25.23085,os),
(275.23085,-42.5,os),
(250,-42.5,c)
);
},
{
closed = 1;
nodes = (
(1224.76915,-42.5,os),
(1207.5,-25.23085,os),
(1207.5,0,c),
(1207.5,25.23085,os),
(1224.76915,42.5,os),
(1250,42.5,c),
(1275.23085,42.5,os),
(1292.5,25.23085,os),
(1292.5,0,c),
(1292.5,-25.23085,os),
(1275.23085,-42.5,os),
(1250,-42.5,c)
);
},
{
closed = 1;
nodes = (
(224.76915,1657.5,os),
(207.5,1674.76915,os),
(207.5,1700,c),
(207.5,1725.23085,os),
(224.76915,1742.5,os),
(250,1742.5,c),
(275.23085,1742.5,os),
(292.5,1725.23085,os),
(292.5,1700,c),
(292.5,1674.76915,os),
(275.23085,1657.5,os),
(250,1657.5,c)
);
},
{
closed = 1;
nodes = (
(1224.76915,1657.5,os),
(1207.5,1674.76915,os),
(1207.5,1700,c),
(1207.5,1725.23085,os),
(1224.76915,1742.5,os),
(1250,1742.5,c),
(1275.23085,1742.5,os),
(1292.5,1725.23085,os),
(1292.5,1700,c),
(1292.5,1674.76915,os),
(1275.23085,1657.5,os),
(1250,1657.5,c)
);
},
{
closed = 1;
nodes = (
(349.87451,-42.5,os),
(332.60536,-25.23085,os),
(332.60536,0,c),
(332.60536,25.23085,os),
(349.87451,42.5,os),
(375.10536,42.5,c),
(400.3362,42.5,os),
(417.60536,25.23085,os),
(417.60536,0,c),
(417.60536,-25.23085,os),
(400.3362,-42.5,os),
(375.10536,-42.5,c)
);
},
{
closed = 1;
nodes = (
(475.4782,-42.5,os),
(458.20904,-25.23085,os),
(458.20904,0,c),
(458.20904,25.23085,os),
(475.4782,42.5,os),
(500.70904,42.5,c),
(525.93989,42.5,os),
(543.20904,25.23085,os),
(543.20904,0,c),
(543.20904,-25.23085,os),
(525.93989,-42.5,os),
(500.70904,-42.5,c)
);
},
{
closed = 1;
nodes = (
(601.65932,-42.5,os),
(584.39016,-25.23085,os),
(584.39016,0,c),
(584.39016,25.23085,os),
(601.65932,42.5,os),
(626.89016,42.5,c),
(652.12101,42.5,os),
(669.39016,25.23085,os),
(669.39016,0,c),
(669.39016,-25.23085,os),
(652.12101,-42.5,os),
(626.89016,-42.5,c)
);
},
{
closed = 1;
nodes = (
(727.46914,-42.5,os),
(710.19999,-25.23085,os),
(710.19999,0,c),
(710.19999,25.23085,os),
(727.46914,42.5,os),
(752.69999,42.5,c),
(777.93084,42.5,os),
(795.19999,25.23085,os),
(795.19999,0,c),
(795.19999,-25.23085,os),
(777.93084,-42.5,os),
(752.69999,-42.5,c)
);
},
{
closed = 1;
nodes = (
(853.13052,-42.5,os),
(835.86137,-25.23085,os),
(835.86137,0,c),
(835.86137,25.23085,os),
(853.13052,42.5,os),
(878.36137,42.5,c),
(903.59222,42.5,os),
(920.86137,25.23085,os),
(920.86137,0,c),
(920.86137,-25.23085,os),
(903.59222,-42.5,os),
(878.36137,-42.5,c)
);
},
{
closed = 1;
nodes = (
(978.8278,-42.5,os),
(961.55865,-25.23085,os),
(961.55865,0,c),
(961.55865,25.23085,os),
(978.8278,42.5,os),
(1004.05865,42.5,c),
(1029.2895,42.5,os),
(1046.55865,25.23085,os),
(1046.55865,0,c),
(1046.55865,-25.23085,os),
(1029.2895,-42.5,os),
(1004.05865,-42.5,c)
);
},
{
closed = 1;
nodes = (
(1104.38914,-42.5,os),
(1087.11998,-25.23085,os),
(1087.11998,0,c),
(1087.11998,25.23085,os),
(1104.38914,42.5,os),
(1129.61998,42.5,c),
(1154.85083,42.5,os),
(1172.11998,25.23085,os),
(1172.11998,0,c),
(1172.11998,-25.23085,os),
(1154.85083,-42.5,os),
(1129.61998,-42.5,c)
);
},
{
closed = 1;
nodes = (
(349.87451,1657.5,os),
(332.60536,1674.76915,os),
(332.60536,1700,c),
(332.60536,1725.23085,os),
(349.87451,1742.5,os),
(375.10536,1742.5,c),
(400.3362,1742.5,os),
(417.60536,1725.23085,os),
(417.60536,1700,c),
(417.60536,1674.76915,os),
(400.3362,1657.5,os),
(375.10536,1657.5,c)
);
},
{
closed = 1;
nodes = (
(475.4782,1657.5,os),
(458.20904,1674.76915,os),
(458.20904,1700,c),
(458.20904,1725.23085,os),
(475.4782,1742.5,os),
(500.70904,1742.5,c),
(525.93989,1742.5,os),
(543.20904,1725.23085,os),
(543.20904,1700,c),
(543.20904,1674.76915,os),
(525.93989,1657.5,os),
(500.70904,1657.5,c)
);
},
{
closed = 1;
nodes = (
(601.65932,1657.5,os),
(584.39016,1674.76915,os),
(584.39016,1700,c),
(584.39016,1725.23085,os),
(601.65932,1742.5,os),
(626.89016,1742.5,c),
(652.12101,1742.5,os),
(669.39016,1725.23085,os),
(669.39016,1700,c),
(669.39016,1674.76915,os),
(652.12101,1657.5,os),
(626.89016,1657.5,c)
);
},
{
closed = 1;
nodes = (
(727.46914,1657.5,os),
(710.19999,1674.76915,os),
(710.19999,1700,c),
(710.19999,1725.23085,os),
(727.46914,1742.5,os),
(752.69999,1742.5,c),
(777.93084,1742.5,os),
(795.19999,1725.23085,os),
(795.19999,1700,c),
(795.19999,1674.76915,os),
(777.93084,1657.5,os),
(752.69999,1657.5,c)
);
},
{
closed = 1;
nodes = (
(853.13052,1657.5,os),
(835.86137,1674.76915,os),
(835.86137,1700,c),
(835.86137,1725.23085,os),
(853.13052,1742.5,os),
(878.36137,1742.5,c),
(903.59222,1742.5,os),
(920.86137,1725.23085,os),
(920.86137,1700,c),
(920.86137,1674.76915,os),
(903.59222,1657.5,os),
(878.36137,1657.5,c)
);
},
{
closed = 1;
nodes = (
(978.8278,1657.5,os),
(961.55865,1674.76915,os),
(961.55865,1700,c),
(961.55865,1725.23085,os),
(978.8278,1742.5,os),
(1004.05865,1742.5,c),
(1029.2895,1742.5,os),
(1046.55865,1725.23085,os),
(1046.55865,1700,c),
(1046.55865,1674.76915,os),
(1029.2895,1657.5,os),
(1004.05865,1657.5,c)
);
},
{
closed = 1;
nodes = (
(1104.38914,1657.5,os),
(1087.11998,1674.76915,os),
(1087.11998,1700,c),
(1087.11998,1725.23085,os),
(1104.38914,1742.5,os),
(1129.61998,1742.5,c),
(1154.85083,1742.5,os),
(1172.11998,1725.23085,os),
(1172.11998,1700,c),
(1172.11998,1674.76915,os),
(1154.85083,1657.5,os),
(1129.61998,1657.5,c)
);
},
{
pos = (500,0);
ref = _c.stemLA;
}
);
width = 1500;
}
);
unicode = 73;
},
{
glyphname = J;
layers = (
{
layerId = m01;
shapes = (
{
closed = 1;
nodes = (
(954.76915,1657.5,os),
(937.5,1674.76915,os),
(937.5,1700,c),
(937.5,1725.23085,os),
(954.76915,1742.5,os),
(980,1742.5,c),
(1005.23085,1742.5,os),
(1022.5,1725.23085,os),
(1022.5,1700,c),
(1022.5,1674.76915,os),
(1005.23085,1657.5,os),
(980,1657.5,c)
);
},
{
closed = 1;
nodes = (
(154.76915,287.5,os),
(137.5,304.76915,os),
(137.5,330,c),
(137.5,355.23085,os),
(154.76915,372.5,os),
(180,372.5,c),
(205.23085,372.5,os),
(222.5,355.23085,os),
(222.5,330,c),
(222.5,304.76915,os),
(205.23085,287.5,os),
(180,287.5,c)
);
},
{
closed = 1;
nodes = (
(954.76915,1534.20489,os),
(937.5,1551.47404,os),
(937.5,1576.70489,c),
(937.5,1601.93573,os),
(954.76915,1619.20489,os),
(980,1619.20489,c),
(1005.23085,1619.20489,os),
(1022.5,1601.93573,os),
(1022.5,1576.70489,c),
(1022.5,1551.47404,os),
(1005.23085,1534.20489,os),
(980,1534.20489,c)
);
},
{
closed = 1;
nodes = (
(954.76915,1409.79476,os),
(937.5,1427.06391,os),
(937.5,1452.29476,c),
(937.5,1477.52561,os),
(954.76915,1494.79476,os),
(980,1494.79476,c),
(1005.23085,1494.79476,os),
(1022.5,1477.52561,os),
(1022.5,1452.29476,c),
(1022.5,1427.06391,os),
(1005.23085,1409.79476,os),
(980,1409.79476,c)
);
},
{
closed = 1;
nodes = (
(954.76915,1285.20404,os),
(937.5,1302.47319,os),
(937.5,1327.70404,c),
(937.5,1352.93489,os),
(954.76915,1370.20404,os),
(980,1370.20404,c),
(1005.23085,1370.20404,os),
(1022.5,1352.93489,os),
(1022.5,1327.70404,c),
(1022.5,1302.47319,os),
(1005.23085,1285.20404,os),
(980,1285.20404,c)
);
},
{
closed = 1;
nodes = (
(954.76915,1161.66579,os),
(937.5,1178.93494,os),
(937.5,1204.16579,c),
(937.5,1229.39664,os),
(954.76915,1246.66579,os),
(980,1246.66579,c),
(1005.23085,1246.66579,os),
(1022.5,1229.39664,os),
(1022.5,1204.16579,c),
(1022.5,1178.93494,os),
(1005.23085,1161.66579,os),
(980,1161.66579,c)
);
},
{
closed = 1;
nodes = (
(954.76915,1037.26638,os),
(937.5,1054.53553,os),
(937.5,1079.76638,c),
(937.5,1104.99722,os),
(954.76915,1122.26638,os),
(980,1122.26638,c),
(1005.23085,1122.26638,os),
(1022.5,1104.99722,os),
(1022.5,1079.76638,c),
(1022.5,1054.53553,os),
(1005.23085,1037.26638,os),
(980,1037.26638,c)
);
},
{
closed = 1;
nodes = (
(954.76915,913.08624,os),
(937.5,930.35539,os),
(937.5,955.58624,c),
(937.5,980.81709,os),
(954.76915,998.08624,os),
(980,998.08624,c),
(1005.23085,998.08624,os),
(1022.5,980.81709,os),
(1022.5,955.58624,c),
(1022.5,930.35539,os),
(1005.23085,913.08624,os),
(980,913.08624,c)
);
},
{
closed = 1;
nodes = (
(954.76915,788.94689,os),
(937.5,806.21604,os),
(937.5,831.44689,c),
(937.5,856.67773,os),
(954.76915,873.94689,os),
(980,873.94689,c),
(1005.23085,873.94689,os),
(1022.5,856.67773,os),
(1022.5,831.44689,c),
(1022.5,806.21604,os),
(1005.23085,788.94689,os),
(980,788.94689,c)
);
},
{
closed = 1;
nodes = (
(954.76915,664.90307,os),
(937.5,682.17223,os),
(937.5,707.40307,c),
(937.5,732.63392,os),
(954.76915,749.90307,os),
(980,749.90307,c),
(1005.23085,749.90307,os),
(1022.5,732.63392,os),
(1022.5,707.40307,c),
(1022.5,682.17223,os),
(1005.23085,664.90307,os),
(980,664.90307,c)
);
},
{
closed = 1;
nodes = (
(954.67796,541.07793,os),
(937.40881,558.34708,os),
(937.40881,583.57793,c),
(937.40881,608.80878,os),
(954.67796,626.07793,os),
(979.90881,626.07793,c),
(1005.13965,626.07793,os),
(1022.40881,608.80878,os),
(1022.40881,583.57793,c),
(1022.40881,558.34708,os),
(1005.13965,541.07793,os),
(979.90881,541.07793,c)
);
},
{
closed = 1;
nodes = (
(947.37436,417.07642,os),
(930.10521,434.34557,os),
(930.10521,459.57642,c),
(930.10521,484.80727,os),
(947.37436,502.07642,os),
(972.60521,502.07642,c),
(997.83605,502.07642,os),
(1015.10521,484.80727,os),
(1015.10521,459.57642,c),
(1015.10521,434.34557,os),
(997.83605,417.07642,os),
(972.60521,417.07642,c)
);
},
{
closed = 1;
nodes = (
(925.64775,295.50372,os),
(908.3786,312.77287,os),
(908.3786,338.00372,c),
(908.3786,363.23457,os),
(925.64775,380.50372,os),
(950.8786,380.50372,c),
(976.10945,380.50372,os),
(993.3786,363.23457,os),
(993.3786,338.00372,c),
(993.3786,312.77287,os),
(976.10945,295.50372,os),
(950.8786,295.50372,c)
);
},
{
closed = 1;
nodes = (
(883.99443,179.00117,os),
(866.72528,196.27032,os),
(866.72528,221.50117,c),
(866.72528,246.73201,os),
(883.99443,264.00117,os),
(909.22528,264.00117,c),
(934.45612,264.00117,os),
(951.72528,246.73201,os),
(951.72528,221.50117,c),
(951.72528,196.27032,os),
(934.45612,179.00117,os),
(909.22528,179.00117,c)
);
},
{
closed = 1;
nodes = (
(816.48005,76.2959,os),
(799.21089,93.56506,os),
(799.21089,118.7959,c),
(799.21089,144.02675,os),
(816.48005,161.2959,os),
(841.71089,161.2959,c),
(866.94174,161.2959,os),
(884.21089,144.02675,os),
(884.21089,118.7959,c),
(884.21089,93.56506,os),
(866.94174,76.2959,os),
(841.71089,76.2959,c)
);
},
{
closed = 1;
nodes = (
(720.08881,-0.14002,os),
(702.81966,17.12913,os),
(702.81966,42.35998,c),
(702.81966,67.59083,os),
(720.08881,84.85998,os),
(745.31966,84.85998,c),
(770.55051,84.85998,os),
(787.81966,67.59083,os),
(787.81966,42.35998,c),
(787.81966,17.12913,os),
(770.55051,-0.14002,os),
(745.31966,-0.14002,c)
);
},
{
closed = 1;
nodes = (
(603.17181,-38.29691,os),
(585.90266,-21.02775,os),
(585.90266,4.20309,c),
(585.90266,29.43394,os),
(603.17181,46.70309,os),
(628.40266,46.70309,c),
(653.63351,46.70309,os),
(670.90266,29.43394,os),
(670.90266,4.20309,c),
(670.90266,-21.02775,os),
(653.63351,-38.29691,os),
(628.40266,-38.29691,c)
);
},
{
closed = 1;
nodes = (
(480.09916,-36.51022,os),
(462.83,-19.24107,os),
(462.83,5.98978,c),
(462.83,31.22063,os),
(480.09916,48.48978,os),
(505.33,48.48978,c),
(530.56085,48.48978,os),
(547.83,31.22063,os),
(547.83,5.98978,c),
(547.83,-19.24107,os),
(530.56085,-36.51022,os),
(505.33,-36.51022,c)
);
},
{
closed = 1;
nodes = (
(364.99031,6.404,os),
(347.72116,23.67315,os),
(347.72116,48.904,c),
(347.72116,74.13485,os),
(364.99031,91.404,os),
(390.22116,91.404,c),
(415.452,91.404,os),
(432.72116,74.13485,os),
(432.72116,48.904,c),
(432.72116,23.67315,os),
(415.452,6.404,os),
(390.22116,6.404,c)
);
},
{
closed = 1;
nodes = (
(268.94664,83.21635,os),
(251.67749,100.48551,os),
(251.67749,125.71635,c),
(251.67749,150.9472,os),
(268.94664,168.21635,os),
(294.17749,168.21635,c),
(319.40833,168.21635,os),
(336.67749,150.9472,os),
(336.67749,125.71635,c),
(336.67749,100.48551,os),
(319.40833,83.21635,os),
(294.17749,83.21635,c)
);
},
{
closed = 1;
nodes = (
(197.34034,183.22252,os),
(180.07119,200.49168,os),
(180.07119,225.72252,c),
(180.07119,250.95337,os),
(197.34034,268.22252,os),
(222.57119,268.22252,c),
(247.80204,268.22252,os),
(265.07119,250.95337,os),
(265.07119,225.72252,c),
(265.07119,200.49168,os),
(247.80204,183.22252,os),
(222.57119,183.22252,c)
);
}
);
width = 1230;
}
);
unicode = 74;
},
{
glyphname = K;
layers = (
{
layerId = m01;
shapes = (
{
closed = 1;
nodes = (
(1104.76915,1657.5,os),
(1087.5,1674.76915,os),
(1087.5,1700,c),
(1087.5,1725.23085,os),
(1104.76915,1742.5,os),
(1130,1742.5,c),
(1155.23085,1742.5,os),
(1172.5,1725.23085,os),
(1172.5,1700,c),
(1172.5,1674.76915,os),
(1155.23085,1657.5,os),
(1130,1657.5,c)
);
},
{
closed = 1;
nodes = (
(1144.76915,-42.5,os),
(1127.5,-25.23085,os),
(1127.5,0,c),
(1127.5,25.23085,os),
(1144.76915,42.5,os),
(1170,42.5,c),
(1195.23085,42.5,os),
(1212.5,25.23085,os),
(1212.5,0,c),
(1212.5,-25.23085,os),
(1195.23085,-42.5,os),
(1170,-42.5,c)
);
},
{
closed = 1;
nodes = (
(1015.51915,1573.5,os),
(998.25,1590.76915,os),
(998.25,1616,c),
(998.25,1641.23085,os),
(1015.51915,1658.5,os),
(1040.75,1658.5,c),
(1065.98085,1658.5,os),
(1083.25,1641.23085,os),
(1083.25,1616,c),
(1083.25,1590.76915,os),
(1065.98085,1573.5,os),
(1040.75,1573.5,c)
);
},
{
closed = 1;
nodes = (
(926.26915,1489.5,os),
(909,1506.76915,os),
(909,1532,c),
(909,1557.23085,os),
(926.26915,1574.5,os),
(951.5,1574.5,c),
(976.73085,1574.5,os),
(994,1557.23085,os),
(994,1532,c),
(994,1506.76915,os),
(976.73085,1489.5,os),
(951.5,1489.5,c)
);
},
{
closed = 1;
nodes = (
(837.01915,1405.5,os),
(819.75,1422.76915,os),
(819.75,1448,c),
(819.75,1473.23085,os),
(837.01915,1490.5,os),
(862.25,1490.5,c),
(887.48085,1490.5,os),
(904.75,1473.23085,os),
(904.75,1448,c),
(904.75,1422.76915,os),
(887.48085,1405.5,os),
(862.25,1405.5,c)
);
},
{
closed = 1;
nodes = (
(747.76915,1321.5,os),
(730.5,1338.76915,os),
(730.5,1364,c),
(730.5,1389.23085,os),
(747.76915,1406.5,os),
(773,1406.5,c),
(798.23085,1406.5,os),
(815.5,1389.23085,os),
(815.5,1364,c),
(815.5,1338.76915,os),
(798.23085,1321.5,os),
(773,1321.5,c)
);
},
{
closed = 1;
nodes = (
(658.51915,1237.5,os),
(641.25,1254.76915,os),
(641.25,1280,c),
(641.25,1305.23085,os),
(658.51915,1322.5,os),
(683.75,1322.5,c),
(708.98085,1322.5,os),
(726.25,1305.23085,os),
(726.25,1280,c),
(726.25,1254.76915,os),
(708.98085,1237.5,os),
(683.75,1237.5,c)
);
},
{
closed = 1;
nodes = (
(569.26915,1153.5,os),
(552,1170.76915,os),
(552,1196,c),
(552,1221.23085,os),
(569.26915,1238.5,os),
(594.5,1238.5,c),
(619.73085,1238.5,os),
(637,1221.23085,os),
(637,1196,c),
(637,1170.76915,os),
(619.73085,1153.5,os),
(594.5,1153.5,c)
);
},
{
closed = 1;
nodes = (
(480.01915,1069.5,os),
(462.75,1086.76915,os),
(462.75,1112,c),
(462.75,1137.23085,os),
(480.01915,1154.5,os),
(505.25,1154.5,c),
(530.48085,1154.5,os),
(547.75,1137.23085,os),
(547.75,1112,c),
(547.75,1086.76915,os),
(530.48085,1069.5,os),
(505.25,1069.5,c)
);
},
{
closed = 1;
nodes = (
(390.76915,985.5,os),
(373.5,1002.76915,os),
(373.5,1028,c),
(373.5,1053.23085,os),
(390.76915,1070.5,os),
(416,1070.5,c),
(441.23085,1070.5,os),
(458.5,1053.23085,os),
(458.5,1028,c),
(458.5,1002.76915,os),
(441.23085,985.5,os),
(416,985.5,c)
);
},
{
closed = 1;
nodes = (
(301.51915,901.5,os),
(284.25,918.76915,os),
(284.25,944,c),
(284.25,969.23085,os),
(301.51915,986.5,os),
(326.75,986.5,c),
(351.98085,986.5,os),
(369.25,969.23085,os),
(369.25,944,c),
(369.25,918.76915,os),
(351.98085,901.5,os),
(326.75,901.5,c)
);
},
{
closed = 1;
nodes = (
(295.70915,816.1,os),
(278.44,833.36915,os),
(278.44,858.6,c),
(278.44,883.83085,os),
(295.70915,901.1,os),
(320.94,901.1,c),
(346.17085,901.1,os),
(363.44,883.83085,os),
(363.44,858.6,c),
(363.44,833.36915,os),
(346.17085,816.1,os),
(320.94,816.1,c)
);
},
{
closed = 1;
nodes = (
(382.03915,728.8,os),
(364.77,746.06915,os),
(364.77,771.3,c),
(364.77,796.53085,os),
(382.03915,813.8,os),
(407.27,813.8,c),
(432.50085,813.8,os),
(449.77,796.53085,os),
(449.77,771.3,c),
(449.77,746.06915,os),
(432.50085,728.8,os),
(407.27,728.8,c)
);
},
{
closed = 1;
nodes = (
(468.36915,641.5,os),
(451.1,658.76915,os),
(451.1,684,c),
(451.1,709.23085,os),
(468.36915,726.5,os),
(493.6,726.5,c),
(518.83085,726.5,os),
(536.1,709.23085,os),
(536.1,684,c),
(536.1,658.76915,os),
(518.83085,641.5,os),
(493.6,641.5,c)
);
},
{
closed = 1;
nodes = (
(554.69915,554.2,os),
(537.43,571.46915,os),
(537.43,596.7,c),
(537.43,621.93085,os),
(554.69915,639.2,os),
(579.93,639.2,c),
(605.16085,639.2,os),
(622.43,621.93085,os),
(622.43,596.7,c),
(622.43,571.46915,os),
(605.16085,554.2,os),
(579.93,554.2,c)
);
},
{
closed = 1;
nodes = (
(641.02915,466.9,os),
(623.76,484.16915,os),
(623.76,509.4,c),
(623.76,534.63085,os),
(641.02915,551.9,os),
(666.26,551.9,c),
(691.49085,551.9,os),
(708.76,534.63085,os),
(708.76,509.4,c),
(708.76,484.16915,os),
(691.49085,466.9,os),
(666.26,466.9,c)
);
},
{
closed = 1;
nodes = (
(727.35915,379.6,os),
(710.09,396.86915,os),
(710.09,422.1,c),
(710.09,447.33085,os),
(727.35915,464.6,os),
(752.59,464.6,c),
(777.82085,464.6,os),
(795.09,447.33085,os),
(795.09,422.1,c),
(795.09,396.86915,os),
(777.82085,379.6,os),
(752.59,379.6,c)
);
},
{
closed = 1;
nodes = (
(813.68915,292.3,os),
(796.42,309.56915,os),
(796.42,334.8,c),
(796.42,360.03085,os),
(813.68915,377.3,os),
(838.92,377.3,c),
(864.15085,377.3,os),
(881.42,360.03085,os),
(881.42,334.8,c),
(881.42,309.56915,os),
(864.15085,292.3,os),
(838.92,292.3,c)
);
},
{
closed = 1;
nodes = (
(900.01915,205,os),
(882.75,222.26915,os),
(882.75,247.5,c),
(882.75,272.73085,os),
(900.01915,290,os),
(925.25,290,c),
(950.48085,290,os),
(967.75,272.73085,os),
(967.75,247.5,c),
(967.75,222.26915,os),
(950.48085,205,os),
(925.25,205,c)
);
},
{
closed = 1;
nodes = (
(986.34915,117.7,os),
(969.08,134.96915,os),
(969.08,160.2,c),
(969.08,185.43085,os),
(986.34915,202.7,os),
(1011.58,202.7,c),
(1036.81085,202.7,os),
(1054.08,185.43085,os),
(1054.08,160.2,c),
(1054.08,134.96915,os),
(1036.81085,117.7,os),
(1011.58,117.7,c)
);
},
{
closed = 1;
nodes = (
(1072.67915,30.4,os),
(1055.41,47.66915,os),
(1055.41,72.9,c),
(1055.41,98.13085,os),
(1072.67915,115.4,os),
(1097.91,115.4,c),
(1123.14085,115.4,os),
(1140.41,98.13085,os),
(1140.41,72.9,c),
(1140.41,47.66915,os),
(1123.14085,30.4,os),
(1097.91,30.4,c)
);
},
{
ref = _c.stemLA;
}
);
width = 1320;
}
);
unicode = 75;
},
{
glyphname = L;
layers = (
{
layerId = m01;
shapes = (
{
closed = 1;
nodes = (
(1124.76915,-42.5,os),
(1107.5,-25.23085,os),
(1107.5,0,c),
(1107.5,25.23085,os),
(1124.76915,42.5,os),
(1150,42.5,c),
(1175.23085,42.5,os),
(1192.5,25.23085,os),
(1192.5,0,c),
(1192.5,-25.23085,os),
(1175.23085,-42.5,os),
(1150,-42.5,c)
);
},
{
closed = 1;
nodes = (
(1004.16915,-42.5,os),
(986.9,-25.23085,os),
(986.9,0,c),
(986.9,25.23085,os),
(1004.16915,42.5,os),
(1029.4,42.5,c),
(1054.63085,42.5,os),
(1071.9,25.23085,os),
(1071.9,0,c),
(1071.9,-25.23085,os),
(1054.63085,-42.5,os),
(1029.4,-42.5,c)
);
},
{
closed = 1;
nodes = (
(883.56915,-42.5,os),
(866.3,-25.23085,os),
(866.3,0,c),
(866.3,25.23085,os),
(883.56915,42.5,os),
(908.8,42.5,c),
(934.03085,42.5,os),
(951.3,25.23085,os),
(951.3,0,c),
(951.3,-25.23085,os),
(934.03085,-42.5,os),
(908.8,-42.5,c)
);
},
{
closed = 1;
nodes = (
(762.96915,-42.5,os),
(745.7,-25.23085,os),
(745.7,0,c),
(745.7,25.23085,os),
(762.96915,42.5,os),
(788.2,42.5,c),
(813.43085,42.5,os),
(830.7,25.23085,os),
(830.7,0,c),
(830.7,-25.23085,os),
(813.43085,-42.5,os),
(788.2,-42.5,c)
);
},
{
closed = 1;
nodes = (
(642.36915,-42.5,os),
(625.1,-25.23085,os),
(625.1,0,c),
(625.1,25.23085,os),
(642.36915,42.5,os),
(667.6,42.5,c),
(692.83085,42.5,os),
(710.1,25.23085,os),
(710.1,0,c),
(710.1,-25.23085,os),
(692.83085,-42.5,os),
(667.6,-42.5,c)
);
},
{
closed = 1;
nodes = (
(521.76915,-42.5,os),
(504.5,-25.23085,os),
(504.5,0,c),
(504.5,25.23085,os),
(521.76915,42.5,os),
(547,42.5,c),
(572.23085,42.5,os),
(589.5,25.23085,os),
(589.5,0,c),
(589.5,-25.23085,os),
(572.23085,-42.5,os),
(547,-42.5,c)
);
},
{
closed = 1;
nodes = (
(401.16915,-42.5,os),
(383.9,-25.23085,os),
(383.9,0,c),
(383.9,25.23085,os),
(401.16915,42.5,os),
(426.4,42.5,c),
(451.63085,42.5,os),
(468.9,25.23085,os),
(468.9,0,c),
(468.9,-25.23085,os),
(451.63085,-42.5,os),
(426.4,-42.5,c)
);
},
{
closed = 1;
nodes = (
(280.56915,-42.5,os),
(263.3,-25.23085,os),
(263.3,0,c),
(263.3,25.23085,os),
(280.56915,42.5,os),
(305.8,42.5,c),
(331.03085,42.5,os),
(348.3,25.23085,os),
(348.3,0,c),
(348.3,-25.23085,os),
(331.03085,-42.5,os),
(305.8,-42.5,c)
);
},
{
ref = _c.stemLA;
}
);
width = 1300;
}
);
unicode = 76;
},
{
glyphname = M;
layers = (
{
layerId = m01;
shapes = (
{
closed = 1;
nodes = (
(1604.76915,1661.5,os),
(1587.5,1678.76915,os),
(1587.5,1704,c),
(1587.5,1729.23085,os),
(1604.76915,1746.5,os),
(1630,1746.5,c),
(1655.23085,1746.5,os),
(1672.5,1729.23085,os),
(1672.5,1704,c),
(1672.5,1678.76915,os),
(1655.23085,1661.5,os),
(1630,1661.5,c)
);
},
{
closed = 1;
nodes = (
(1480.56915,1661.14,os),
(1463.3,1678.40915,os),
(1463.3,1703.64,c),
(1463.3,1728.87085,os),
(1480.56915,1746.14,os),
(1505.8,1746.14,c),
(1531.03085,1746.14,os),
(1548.3,1728.87085,os),
(1548.3,1703.64,c),
(1548.3,1678.40915,os),
(1531.03085,1661.14,os),
(1505.8,1661.14,c)
);
},
{
closed = 1;
nodes = (
(1356.36915,1660.78,os),
(1339.1,1678.04915,os),
(1339.1,1703.28,c),
(1339.1,1728.51085,os),
(1356.36915,1745.78,os),
(1381.6,1745.78,c),
(1406.83085,1745.78,os),
(1424.1,1728.51085,os),
(1424.1,1703.28,c),
(1424.1,1678.04915,os),
(1406.83085,1660.78,os),
(1381.6,1660.78,c)
);
},
{
closed = 1;
nodes = (
(1232.16915,1660.42,os),
(1214.9,1677.68915,os),
(1214.9,1702.92,c),
(1214.9,1728.15085,os),
(1232.16915,1745.42,os),
(1257.4,1745.42,c),
(1282.63085,1745.42,os),
(1299.9,1728.15085,os),
(1299.9,1702.92,c),
(1299.9,1677.68915,os),
(1282.63085,1660.42,os),
(1257.4,1660.42,c)
);
},
{
closed = 1;
nodes = (
(1107.96915,1660.06,os),
(1090.7,1677.32915,os),
(1090.7,1702.56,c),
(1090.7,1727.79085,os),
(1107.96915,1745.06,os),
(1133.2,1745.06,c),
(1158.43085,1745.06,os),
(1175.7,1727.79085,os),
(1175.7,1702.56,c),
(1175.7,1677.32915,os),
(1158.43085,1660.06,os),
(1133.2,1660.06,c)
);
},
{
closed = 1;
nodes = (
(983.76915,1659.7,os),
(966.5,1676.96915,os),
(966.5,1702.2,c),
(966.5,1727.43085,os),
(983.76915,1744.7,os),
(1009,1744.7,c),
(1034.23085,1744.7,os),
(1051.5,1727.43085,os),
(1051.5,1702.2,c),
(1051.5,1676.96915,os),
(1034.23085,1659.7,os),
(1009,1659.7,c)
);
},
{
closed = 1;
nodes = (
(859.56915,1659.34,os),
(842.3,1676.60915,os),
(842.3,1701.84,c),
(842.3,1727.07085,os),
(859.56915,1744.34,os),
(884.8,1744.34,c),
(910.03085,1744.34,os),
(927.3,1727.07085,os),
(927.3,1701.84,c),
(927.3,1676.60915,os),
(910.03085,1659.34,os),
(884.8,1659.34,c)
);
},
{
closed = 1;
nodes = (
(735.36915,1658.98,os),
(718.1,1676.24915,os),
(718.1,1701.48,c),
(718.1,1726.71085,os),
(735.36915,1743.98,os),
(760.6,1743.98,c),
(785.83085,1743.98,os),
(803.1,1726.71085,os),
(803.1,1701.48,c),
(803.1,1676.24915,os),
(785.83085,1658.98,os),
(760.6,1658.98,c)
);
},
{
closed = 1;
nodes = (
(611.16915,1658.62,os),
(593.9,1675.88915,os),
(593.9,1701.12,c),
(593.9,1726.35085,os),
(611.16915,1743.62,os),
(636.4,1743.62,c),
(661.63085,1743.62,os),
(678.9,1726.35085,os),
(678.9,1701.12,c),
(678.9,1675.88915,os),
(661.63085,1658.62,os),
(636.4,1658.62,c)
);
},
{
closed = 1;
nodes = (
(486.96915,1658.26,os),
(469.7,1675.52915,os),
(469.7,1700.76,c),
(469.7,1725.99085,os),
(486.96915,1743.26,os),
(512.2,1743.26,c),
(537.43085,1743.26,os),
(554.7,1725.99085,os),
(554.7,1700.76,c),
(554.7,1675.52915,os),
(537.43085,1658.26,os),
(512.2,1658.26,c)
);
},
{
closed = 1;
nodes = (
(362.76915,1657.9,os),
(345.5,1675.16915,os),
(345.5,1700.4,c),
(345.5,1725.63085,os),
(362.76915,1742.9,os),
(388,1742.9,c),
(413.23085,1742.9,os),
(430.5,1725.63085,os),
(430.5,1700.4,c),
(430.5,1675.16915,os),
(413.23085,1657.9,os),
(388,1657.9,c)
);
},
{
closed = 1;
nodes = (
(238.56915,1657.54,os),
(221.3,1674.80915,os),
(221.3,1700.04,c),
(221.3,1725.27085,os),
(238.56915,1742.54,os),
(263.8,1742.54,c),
(289.03085,1742.54,os),
(306.3,1725.27085,os),
(306.3,1700.04,c),
(306.3,1674.80915,os),
(289.03085,1657.54,os),
(263.8,1657.54,c)
);
},
{
closed = 1;
nodes = (
(266.16915,1555.5,os),
(248.9,1572.76915,os),
(248.9,1598,c),
(248.9,1623.23085,os),
(266.16915,1640.5,os),
(291.4,1640.5,c),
(316.63085,1640.5,os),
(333.9,1623.23085,os),
(333.9,1598,c),
(333.9,1572.76915,os),
(316.63085,1555.5,os),
(291.4,1555.5,c)
);
},
{
closed = 1;
nodes = (
(313.08915,1439.9,os),
(295.82,1457.16915,os),
(295.82,1482.4,c),
(295.82,1507.63085,os),
(313.08915,1524.9,os),
(338.32,1524.9,c),
(363.55085,1524.9,os),
(380.82,1507.63085,os),
(380.82,1482.4,c),
(380.82,1457.16915,os),
(363.55085,1439.9,os),
(338.32,1439.9,c)
);
},
{
closed = 1;
nodes = (
(360.00915,1324.3,os),
(342.74,1341.56915,os),
(342.74,1366.8,c),
(342.74,1392.03085,os),
(360.00915,1409.3,os),
(385.24,1409.3,c),
(410.47085,1409.3,os),
(427.74,1392.03085,os),
(427.74,1366.8,c),
(427.74,1341.56915,os),
(410.47085,1324.3,os),
(385.24,1324.3,c)
);
},
{
closed = 1;
nodes = (
(406.92915,1208.7,os),
(389.66,1225.96915,os),
(389.66,1251.2,c),
(389.66,1276.43085,os),
(406.92915,1293.7,os),
(432.16,1293.7,c),
(457.39085,1293.7,os),
(474.66,1276.43085,os),
(474.66,1251.2,c),
(474.66,1225.96915,os),
(457.39085,1208.7,os),
(432.16,1208.7,c)
);
},
{
closed = 1;
nodes = (
(453.84915,1093.1,os),
(436.58,1110.36915,os),
(436.58,1135.6,c),
(436.58,1160.83085,os),
(453.84915,1178.1,os),
(479.08,1178.1,c),
(504.31085,1178.1,os),
(521.58,1160.83085,os),
(521.58,1135.6,c),
(521.58,1110.36915,os),
(504.31085,1093.1,os),
(479.08,1093.1,c)
);
},
{
closed = 1;
nodes = (
(500.76915,977.5,os),
(483.5,994.76915,os),
(483.5,1020,c),
(483.5,1045.23085,os),
(500.76915,1062.5,os),
(526,1062.5,c),
(551.23085,1062.5,os),
(568.5,1045.23085,os),
(568.5,1020,c),
(568.5,994.76915,os),
(551.23085,977.5,os),
(526,977.5,c)
);
},
{
closed = 1;
nodes = (
(547.68915,861.9,os),
(530.42,879.16915,os),
(530.42,904.4,c),
(530.42,929.63085,os),
(547.68915,946.9,os),
(572.92,946.9,c),
(598.15085,946.9,os),
(615.42,929.63085,os),
(615.42,904.4,c),
(615.42,879.16915,os),
(598.15085,861.9,os),
(572.92,861.9,c)
);
},
{
closed = 1;
nodes = (
(594.60915,746.3,os),
(577.34,763.56915,os),
(577.34,788.8,c),
(577.34,814.03085,os),
(594.60915,831.3,os),
(619.84,831.3,c),
(645.07085,831.3,os),
(662.34,814.03085,os),
(662.34,788.8,c),
(662.34,763.56915,os),
(645.07085,746.3,os),
(619.84,746.3,c)
);
},
{
closed = 1;
nodes = (
(641.52915,630.7,os),
(624.26,647.96915,os),
(624.26,673.2,c),
(624.26,698.43085,os),
(641.52915,715.7,os),
(666.76,715.7,c),
(691.99085,715.7,os),
(709.26,698.43085,os),
(709.26,673.2,c),
(709.26,647.96915,os),
(691.99085,630.7,os),
(666.76,630.7,c)
);
},
{
closed = 1;
nodes = (
(688.44915,515.1,os),
(671.18,532.36915,os),
(671.18,557.6,c),
(671.18,582.83085,os),
(688.44915,600.1,os),
(713.68,600.1,c),
(738.91085,600.1,os),
(756.18,582.83085,os),
(756.18,557.6,c),
(756.18,532.36915,os),
(738.91085,515.1,os),
(713.68,515.1,c)
);
},
{
closed = 1;
nodes = (
(735.36915,399.5,os),
(718.1,416.76915,os),
(718.1,442,c),
(718.1,467.23085,os),
(735.36915,484.5,os),
(760.6,484.5,c),
(785.83085,484.5,os),
(803.1,467.23085,os),
(803.1,442,c),
(803.1,416.76915,os),
(785.83085,399.5,os),
(760.6,399.5,c)
);
},
{
closed = 1;
nodes = (
(782.28915,283.9,os),
(765.02,301.16915,os),
(765.02,326.4,c),
(765.02,351.63085,os),
(782.28915,368.9,os),
(807.52,368.9,c),
(832.75085,368.9,os),
(850.02,351.63085,os),
(850.02,326.4,c),
(850.02,301.16915,os),
(832.75085,283.9,os),
(807.52,283.9,c)
);
},
{
closed = 1;
nodes = (
(829.20915,168.3,os),
(811.94,185.56915,os),
(811.94,210.8,c),
(811.94,236.03085,os),
(829.20915,253.3,os),
(854.44,253.3,c),
(879.67085,253.3,os),
(896.94,236.03085,os),
(896.94,210.8,c),
(896.94,185.56915,os),
(879.67085,168.3,os),
(854.44,168.3,c)
);
},
{
closed = 1;
nodes = (
(876.12915,52.7,os),
(858.86,69.96915,os),
(858.86,95.2,c),
(858.86,120.43085,os),
(876.12915,137.7,os),
(901.36,137.7,c),
(926.59085,137.7,os),
(943.86,120.43085,os),
(943.86,95.2,c),
(943.86,69.96915,os),
(926.59085,52.7,os),
(901.36,52.7,c)
);
},
{
closed = 1;
nodes = (
(923.04915,-22.052,os),
(905.78,-4.78285,os),
(905.78,20.448,c),
(905.78,45.67885,os),
(923.04915,62.948,os),
(948.28,62.948,c),
(973.51085,62.948,os),
(990.78,45.67885,os),
(990.78,20.448,c),
(990.78,-4.78285,os),
(973.51085,-22.052,os),
(948.28,-22.052,c)
);
},
{
closed = 1;
nodes = (
(969.96915,93.82,os),
(952.7,111.08915,os),
(952.7,136.32,c),
(952.7,161.55085,os),
(969.96915,178.82,os),
(995.2,178.82,c),
(1020.43085,178.82,os),
(1037.7,161.55085,os),
(1037.7,136.32,c),
(1037.7,111.08915,os),
(1020.43085,93.82,os),
(995.2,93.82,c)
);
},
{
closed = 1;
nodes = (
(1016.88915,209.692,os),
(999.62,226.96115,os),
(999.62,252.192,c),
(999.62,277.42285,os),
(1016.88915,294.692,os),
(1042.12,294.692,c),
(1067.35085,294.692,os),
(1084.62,277.42285,os),
(1084.62,252.192,c),
(1084.62,226.96115,os),
(1067.35085,209.692,os),
(1042.12,209.692,c)
);
},
{
closed = 1;
nodes = (
(1063.80915,325.564,os),
(1046.54,342.83315,os),
(1046.54,368.064,c),
(1046.54,393.29485,os),
(1063.80915,410.564,os),
(1089.04,410.564,c),
(1114.27085,410.564,os),
(1131.54,393.29485,os),
(1131.54,368.064,c),
(1131.54,342.83315,os),
(1114.27085,325.564,os),
(1089.04,325.564,c)
);
},
{
closed = 1;
nodes = (
(1110.72915,441.436,os),
(1093.46,458.70515,os),
(1093.46,483.936,c),
(1093.46,509.16685,os),
(1110.72915,526.436,os),
(1135.96,526.436,c),
(1161.19085,526.436,os),
(1178.46,509.16685,os),
(1178.46,483.936,c),
(1178.46,458.70515,os),
(1161.19085,441.436,os),
(1135.96,441.436,c)
);
},
{
closed = 1;
nodes = (
(1157.64915,557.308,os),
(1140.38,574.57715,os),
(1140.38,599.808,c),
(1140.38,625.03885,os),
(1157.64915,642.308,os),
(1182.88,642.308,c),
(1208.11085,642.308,os),
(1225.38,625.03885,os),
(1225.38,599.808,c),
(1225.38,574.57715,os),
(1208.11085,557.308,os),
(1182.88,557.308,c)
);
},
{
closed = 1;
nodes = (
(1204.56915,673.18,os),
(1187.3,690.44915,os),
(1187.3,715.68,c),
(1187.3,740.91085,os),
(1204.56915,758.18,os),
(1229.8,758.18,c),
(1255.03085,758.18,os),
(1272.3,740.91085,os),
(1272.3,715.68,c),
(1272.3,690.44915,os),
(1255.03085,673.18,os),
(1229.8,673.18,c)
);
},
{
closed = 1;
nodes = (
(1251.48915,789.052,os),
(1234.22,806.32115,os),
(1234.22,831.552,c),
(1234.22,856.78285,os),
(1251.48915,874.052,os),
(1276.72,874.052,c),
(1301.95085,874.052,os),
(1319.22,856.78285,os),
(1319.22,831.552,c),
(1319.22,806.32115,os),
(1301.95085,789.052,os),
(1276.72,789.052,c)
);
},
{
closed = 1;
nodes = (
(1298.40915,904.924,os),
(1281.14,922.19315,os),
(1281.14,947.424,c),
(1281.14,972.65485,os),
(1298.40915,989.924,os),
(1323.64,989.924,c),
(1348.87085,989.924,os),
(1366.14,972.65485,os),
(1366.14,947.424,c),
(1366.14,922.19315,os),
(1348.87085,904.924,os),
(1323.64,904.924,c)
);
},
{
closed = 1;
nodes = (
(1345.32915,1020.796,os),
(1328.06,1038.06515,os),
(1328.06,1063.296,c),
(1328.06,1088.52685,os),
(1345.32915,1105.796,os),
(1370.56,1105.796,c),
(1395.79085,1105.796,os),
(1413.06,1088.52685,os),
(1413.06,1063.296,c),
(1413.06,1038.06515,os),
(1395.79085,1020.796,os),
(1370.56,1020.796,c)
);
},
{
closed = 1;
nodes = (
(1392.24915,1136.668,os),
(1374.98,1153.93715,os),
(1374.98,1179.168,c),
(1374.98,1204.39885,os),
(1392.24915,1221.668,os),
(1417.48,1221.668,c),
(1442.71085,1221.668,os),
(1459.98,1204.39885,os),
(1459.98,1179.168,c),
(1459.98,1153.93715,os),
(1442.71085,1136.668,os),
(1417.48,1136.668,c)
);
},
{
closed = 1;
nodes = (
(1439.16915,1252.54,os),
(1421.9,1269.80915,os),
(1421.9,1295.04,c),
(1421.9,1320.27085,os),
(1439.16915,1337.54,os),
(1464.4,1337.54,c),
(1489.63085,1337.54,os),
(1506.9,1320.27085,os),
(1506.9,1295.04,c),
(1506.9,1269.80915,os),
(1489.63085,1252.54,os),
(1464.4,1252.54,c)
);
},
{
closed = 1;
nodes = (
(1486.08915,1368.412,os),
(1468.82,1385.68115,os),
(1468.82,1410.912,c),
(1468.82,1436.14285,os),
(1486.08915,1453.412,os),
(1511.32,1453.412,c),
(1536.55085,1453.412,os),
(1553.82,1436.14285,os),
(1553.82,1410.912,c),
(1553.82,1385.68115,os),
(1536.55085,1368.412,os),
(1511.32,1368.412,c)
);
},
{
closed = 1;
nodes = (
(1533.00915,1484.284,os),
(1515.74,1501.55315,os),
(1515.74,1526.784,c),
(1515.74,1552.01485,os),
(1533.00915,1569.284,os),
(1558.24,1569.284,c),
(1583.47085,1569.284,os),
(1600.74,1552.01485,os),
(1600.74,1526.784,c),
(1600.74,1501.55315,os),
(1583.47085,1484.284,os),
(1558.24,1484.284,c)
);
},
{
ref = _c.stemLA;
},
{
pos = (1380,0);
ref = _c.stemLA;
}
);
width = 1880;
}
);
unicode = 77;
},
{
glyphname = N;
layers = (
{
layerId = m01;
shapes = (
{
closed = 1;
nodes = (
(1284.76915,-42.5,os),
(1267.5,-25.23085,os),
(1267.5,0,c),
(1267.5,25.23085,os),
(1284.76915,42.5,os),
(1310,42.5,c),
(1335.23085,42.5,os),
(1352.5,25.23085,os),
(1352.5,0,c),
(1352.5,-25.23085,os),
(1335.23085,-42.5,os),
(1310,-42.5,c)
);
},
{
closed = 1;
nodes = (
(1220.10915,61.2,os),
(1202.84,78.46915,os),
(1202.84,103.7,c),
(1202.84,128.93085,os),
(1220.10915,146.2,os),
(1245.34,146.2,c),
(1270.57085,146.2,os),
(1287.84,128.93085,os),
(1287.84,103.7,c),
(1287.84,78.46915,os),
(1270.57085,61.2,os),
(1245.34,61.2,c)
);
},
{
closed = 1;
nodes = (
(1155.44915,164.9,os),
(1138.18,182.16915,os),
(1138.18,207.4,c),
(1138.18,232.63085,os),
(1155.44915,249.9,os),
(1180.68,249.9,c),
(1205.91085,249.9,os),
(1223.18,232.63085,os),
(1223.18,207.4,c),
(1223.18,182.16915,os),
(1205.91085,164.9,os),
(1180.68,164.9,c)
);
},
{
closed = 1;
nodes = (
(1090.78915,268.6,os),
(1073.52,285.86915,os),
(1073.52,311.1,c),
(1073.52,336.33085,os),
(1090.78915,353.6,os),
(1116.02,353.6,c),
(1141.25085,353.6,os),
(1158.52,336.33085,os),
(1158.52,311.1,c),
(1158.52,285.86915,os),
(1141.25085,268.6,os),
(1116.02,268.6,c)
);
},
{
closed = 1;
nodes = (
(1026.12915,372.3,os),
(1008.86,389.56915,os),
(1008.86,414.8,c),
(1008.86,440.03085,os),
(1026.12915,457.3,os),
(1051.36,457.3,c),
(1076.59085,457.3,os),
(1093.86,440.03085,os),
(1093.86,414.8,c),
(1093.86,389.56915,os),
(1076.59085,372.3,os),
(1051.36,372.3,c)
);
},
{
closed = 1;
nodes = (
(961.46915,476,os),
(944.2,493.26915,os),
(944.2,518.5,c),
(944.2,543.73085,os),
(961.46915,561,os),
(986.7,561,c),
(1011.93085,561,os),
(1029.2,543.73085,os),
(1029.2,518.5,c),
(1029.2,493.26915,os),
(1011.93085,476,os),
(986.7,476,c)
);
},
{
closed = 1;
nodes = (
(896.80915,579.7,os),
(879.54,596.96915,os),
(879.54,622.2,c),
(879.54,647.43085,os),
(896.80915,664.7,os),
(922.04,664.7,c),
(947.27085,664.7,os),
(964.54,647.43085,os),
(964.54,622.2,c),
(964.54,596.96915,os),
(947.27085,579.7,os),
(922.04,579.7,c)
);
},
{
closed = 1;
nodes = (
(832.14915,683.4,os),
(814.88,700.66915,os),
(814.88,725.9,c),
(814.88,751.13085,os),
(832.14915,768.4,os),
(857.38,768.4,c),
(882.61085,768.4,os),
(899.88,751.13085,os),
(899.88,725.9,c),
(899.88,700.66915,os),
(882.61085,683.4,os),
(857.38,683.4,c)
);
},
{
closed = 1;
nodes = (
(767.48915,787.1,os),
(750.22,804.36915,os),
(750.22,829.6,c),
(750.22,854.83085,os),
(767.48915,872.1,os),
(792.72,872.1,c),
(817.95085,872.1,os),
(835.22,854.83085,os),
(835.22,829.6,c),
(835.22,804.36915,os),
(817.95085,787.1,os),
(792.72,787.1,c)
);
},
{
closed = 1;
nodes = (
(702.82915,890.8,os),
(685.56,908.06915,os),
(685.56,933.3,c),
(685.56,958.53085,os),
(702.82915,975.8,os),
(728.06,975.8,c),
(753.29085,975.8,os),
(770.56,958.53085,os),
(770.56,933.3,c),
(770.56,908.06915,os),
(753.29085,890.8,os),
(728.06,890.8,c)
);
},
{
closed = 1;
nodes = (
(638.16915,994.5,os),
(620.9,1011.76915,os),
(620.9,1037,c),
(620.9,1062.23085,os),
(638.16915,1079.5,os),
(663.4,1079.5,c),
(688.63085,1079.5,os),
(705.9,1062.23085,os),
(705.9,1037,c),
(705.9,1011.76915,os),
(688.63085,994.5,os),
(663.4,994.5,c)
);
},
{
closed = 1;
nodes = (
(573.50915,1098.2,os),
(556.24,1115.46915,os),
(556.24,1140.7,c),
(556.24,1165.93085,os),
(573.50915,1183.2,os),
(598.74,1183.2,c),
(623.97085,1183.2,os),
(641.24,1165.93085,os),
(641.24,1140.7,c),
(641.24,1115.46915,os),
(623.97085,1098.2,os),
(598.74,1098.2,c)
);
},
{
closed = 1;
nodes = (
(508.84915,1201.9,os),
(491.58,1219.16915,os),
(491.58,1244.4,c),
(491.58,1269.63085,os),
(508.84915,1286.9,os),
(534.08,1286.9,c),
(559.31085,1286.9,os),
(576.58,1269.63085,os),
(576.58,1244.4,c),
(576.58,1219.16915,os),
(559.31085,1201.9,os),
(534.08,1201.9,c)
);
},
{
closed = 1;
nodes = (
(444.18915,1305.6,os),
(426.92,1322.86915,os),
(426.92,1348.1,c),
(426.92,1373.33085,os),
(444.18915,1390.6,os),
(469.42,1390.6,c),
(494.65085,1390.6,os),
(511.92,1373.33085,os),
(511.92,1348.1,c),
(511.92,1322.86915,os),
(494.65085,1305.6,os),
(469.42,1305.6,c)
);
},
{
closed = 1;
nodes = (
(379.52915,1409.3,os),
(362.26,1426.56915,os),
(362.26,1451.8,c),
(362.26,1477.03085,os),
(379.52915,1494.3,os),
(404.76,1494.3,c),
(429.99085,1494.3,os),
(447.26,1477.03085,os),
(447.26,1451.8,c),
(447.26,1426.56915,os),
(429.99085,1409.3,os),
(404.76,1409.3,c)
);
},
{
closed = 1;
nodes = (
(314.86915,1513,os),
(297.6,1530.26915,os),
(297.6,1555.5,c),
(297.6,1580.73085,os),
(314.86915,1598,os),
(340.1,1598,c),
(365.33085,1598,os),
(382.6,1580.73085,os),
(382.6,1555.5,c),
(382.6,1530.26915,os),
(365.33085,1513,os),
(340.1,1513,c)
);
},
{
closed = 1;
nodes = (
(250.20915,1616.7,os),
(232.94,1633.96915,os),
(232.94,1659.2,c),
(232.94,1684.43085,os),
(250.20915,1701.7,os),
(275.44,1701.7,c),
(300.67085,1701.7,os),
(317.94,1684.43085,os),
(317.94,1659.2,c),
(317.94,1633.96915,os),
(300.67085,1616.7,os),
(275.44,1616.7,c)
);
},
{
ref = _c.stemLA;
},
{
pos = (1060,0);
ref = _c.stemLA;
}
);
width = 1560;
}
);
unicode = 78;
},
{
glyphname = O;
layers = (
{
layerId = m01;
shapes = (
{
closed = 1;
nodes = (
(736.76915,1657.5,os),
(719.5,1674.76915,os),
(719.5,1700,c),
(719.5,1725.23085,os),
(736.76915,1742.5,os),
(762,1742.5,c),
(787.23085,1742.5,os),
(804.5,1725.23085,os),
(804.5,1700,c),
(804.5,1674.76915,os),
(787.23085,1657.5,os),
(762,1657.5,c)
);
},
{
closed = 1;
nodes = (
(612.96989,1643.10724,os),
(595.70073,1660.37639,os),
(595.70073,1685.60724,c),
(595.70073,1710.83809,os),
(612.96989,1728.10724,os),
(638.20073,1728.10724,c),
(663.43158,1728.10724,os),
(680.70073,1710.83809,os),
(680.70073,1685.60724,c),
(680.70073,1660.37639,os),
(663.43158,1643.10724,os),
(638.20073,1643.10724,c)
);
},
{
closed = 1;
nodes = (
(496.23727,1598.6971,os),
(478.96812,1615.96625,os),
(478.96812,1641.1971,c),
(478.96812,1666.42794,os),
(496.23727,1683.6971,os),
(521.46812,1683.6971,c),
(546.69897,1683.6971,os),
(563.96812,1666.42794,os),
(563.96812,1641.1971,c),
(563.96812,1615.96625,os),
(546.69897,1598.6971,os),
(521.46812,1598.6971,c)
);
},
{
closed = 1;
nodes = (
(394.39635,1526.39555,os),
(377.1272,1543.6647,os),
(377.1272,1568.89555,c),
(377.1272,1594.1264,os),
(394.39635,1611.39555,os),
(419.6272,1611.39555,c),
(444.85805,1611.39555,os),
(462.1272,1594.1264,os),
(462.1272,1568.89555,c),
(462.1272,1543.6647,os),
(444.85805,1526.39555,os),
(419.6272,1526.39555,c)
);
},
{
closed = 1;
nodes = (
(312.11569,1432.63474,os),
(294.84653,1449.9039,os),
(294.84653,1475.13474,c),
(294.84653,1500.36559,os),
(312.11569,1517.63474,os),
(337.34653,1517.63474,c),
(362.57738,1517.63474,os),
(379.84653,1500.36559,os),
(379.84653,1475.13474,c),
(379.84653,1449.9039,os),
(362.57738,1432.63474,os),
(337.34653,1432.63474,c)
);
},
{
closed = 1;
nodes = (
(249.76205,1324.5082,os),
(232.49289,1341.77735,os),
(232.49289,1367.0082,c),
(232.49289,1392.23905,os),
(249.76205,1409.5082,os),
(274.99289,1409.5082,c),
(300.22374,1409.5082,os),
(317.49289,1392.23905,os),
(317.49289,1367.0082,c),
(317.49289,1341.77735,os),
(300.22374,1324.5082,os),
(274.99289,1324.5082,c)
);
},
{
closed = 1;
nodes = (
(205.39541,1207.68165,os),
(188.12626,1224.95081,os),
(188.12626,1250.18165,c),
(188.12626,1275.4125,os),
(205.39541,1292.68165,os),
(230.62626,1292.68165,c),
(255.8571,1292.68165,os),
(273.12626,1275.4125,os),
(273.12626,1250.18165,c),
(273.12626,1224.95081,os),
(255.8571,1207.68165,os),
(230.62626,1207.68165,c)
);
},
{
closed = 1;
nodes = (
(176.36892,1085.91479,os),
(159.09977,1103.18394,os),
(159.09977,1128.41479,c),
(159.09977,1153.64564,os),
(176.36892,1170.91479,os),
(201.59977,1170.91479,c),
(226.83062,1170.91479,os),
(244.09977,1153.64564,os),
(244.09977,1128.41479,c),
(244.09977,1103.18394,os),
(226.83062,1085.91479,os),
(201.59977,1085.91479,c)
);
},
{
closed = 1;
nodes = (
(160.22356,961.89161,os),
(142.95441,979.16076,os),
(142.95441,1004.39161,c),
(142.95441,1029.62246,os),
(160.22356,1046.89161,os),
(185.45441,1046.89161,c),
(210.68525,1046.89161,os),
(227.95441,1029.62246,os),
(227.95441,1004.39161,c),
(227.95441,979.16076,os),
(210.68525,961.89161,os),
(185.45441,961.89161,c)
);
},
{
closed = 1;
nodes = (
(154.79687,837.37084,os),
(137.52772,854.63999,os),
(137.52772,879.87084,c),
(137.52772,905.10169,os),
(154.79687,922.37084,os),
(180.02772,922.37084,c),
(205.25856,922.37084,os),
(222.52772,905.10169,os),
(222.52772,879.87084,c),
(222.52772,854.63999,os),
(205.25856,837.37084,os),
(180.02772,837.37084,c)
);
},
{
closed = 1;
nodes = (
(158.5593,712.02222,os),
(141.29015,729.29138,os),
(141.29015,754.52222,c),
(141.29015,779.75307,os),
(158.5593,797.02222,os),
(183.79015,797.02222,c),
(209.021,797.02222,os),
(226.29015,779.75307,os),
(226.29015,754.52222,c),
(226.29015,729.29138,os),
(209.021,712.02222,os),
(183.79015,712.02222,c)
);
},
{
closed = 1;
nodes = (
(172.01445,588.23164,os),
(154.74529,605.5008,os),
(154.74529,630.73164,c),
(154.74529,655.96249,os),
(172.01445,673.23164,os),
(197.24529,673.23164,c),
(222.47614,673.23164,os),
(239.74529,655.96249,os),
(239.74529,630.73164,c),
(239.74529,605.5008,os),
(222.47614,588.23164,os),
(197.24529,588.23164,c)
);
},
{
closed = 1;
nodes = (
(196.9487,465.71335,os),
(179.67955,482.9825,os),
(179.67955,508.21335,c),
(179.67955,533.4442,os),
(196.9487,550.71335,os),
(222.17955,550.71335,c),
(247.4104,550.71335,os),
(264.67955,533.4442,os),
(264.67955,508.21335,c),
(264.67955,482.9825,os),
(247.4104,465.71335,os),
(222.17955,465.71335,c)
);
},
{
closed = 1;
nodes = (
(235.47645,346.50824,os),
(218.20729,363.7774,os),
(218.20729,389.00824,c),
(218.20729,414.23909,os),
(235.47645,431.50824,os),
(260.70729,431.50824,c),
(285.93814,431.50824,os),
(303.20729,414.23909,os),
(303.20729,389.00824,c),
(303.20729,363.7774,os),
(285.93814,346.50824,os),
(260.70729,346.50824,c)
);
},
{
closed = 1;
nodes = (
(289.95587,233.70602,os),
(272.68672,250.97517,os),
(272.68672,276.20602,c),
(272.68672,301.43686,os),
(289.95587,318.70602,os),
(315.18672,318.70602,c),
(340.41756,318.70602,os),
(357.68672,301.43686,os),
(357.68672,276.20602,c),
(357.68672,250.97517,os),
(340.41756,233.70602,os),
(315.18672,233.70602,c)
);
},
{
closed = 1;
nodes = (
(362.18419,132.43696,os),
(344.91504,149.70611,os),
(344.91504,174.93696,c),
(344.91504,200.16781,os),
(362.18419,217.43696,os),
(387.41504,217.43696,c),
(412.64589,217.43696,os),
(429.91504,200.16781,os),
(429.91504,174.93696,c),
(429.91504,149.70611,os),
(412.64589,132.43696,os),
(387.41504,132.43696,c)
);
},
{
closed = 1;
nodes = (
(454.26374,47.9039,os),
(436.99459,65.17305,os),
(436.99459,90.4039,c),
(436.99459,115.63474,os),
(454.26374,132.9039,os),
(479.49459,132.9039,c),
(504.72543,132.9039,os),
(521.99459,115.63474,os),
(521.99459,90.4039,c),
(521.99459,65.17305,os),
(504.72543,47.9039,os),
(479.49459,47.9039,c)
);
},
{
closed = 1;
nodes = (
(563.63137,-11.38769,os),
(546.36222,5.88146,os),
(546.36222,31.11231,c),
(546.36222,56.34316,os),
(563.63137,73.61231,os),
(588.86222,73.61231,c),
(614.09307,73.61231,os),
(631.36222,56.34316,os),
(631.36222,31.11231,c),
(631.36222,5.88146,os),
(614.09307,-11.38769,os),
(588.86222,-11.38769,c)
);
},
{
closed = 1;
nodes = (
(684.663,-39.99372,os),
(667.39385,-22.72456,os),
(667.39385,2.50628,c),
(667.39385,27.73713,os),
(684.663,45.00628,os),
(709.89385,45.00628,c),
(735.1247,45.00628,os),
(752.39385,27.73713,os),
(752.39385,2.50628,c),
(752.39385,-22.72456,os),
(735.1247,-39.99372,os),
(709.89385,-39.99372,c)
);
},
{
closed = 1;
nodes = (
(809.45372,-36.87035,os),
(792.18457,-19.6012,os),
(792.18457,5.62965,c),
(792.18457,30.86049,os),
(809.45372,48.12965,os),
(834.68457,48.12965,c),
(859.91542,48.12965,os),
(877.18457,30.86049,os),
(877.18457,5.62965,c),
(877.18457,-19.6012,os),
(859.91542,-36.87035,os),
(834.68457,-36.87035,c)
);
},
{
closed = 1;
nodes = (
(928.54487,-2.04266,os),
(911.27571,15.22649,os),
(911.27571,40.45734,c),
(911.27571,65.68819,os),
(928.54487,82.95734,os),
(953.77571,82.95734,c),
(979.00656,82.95734,os),
(996.27571,65.68819,os),
(996.27571,40.45734,c),
(996.27571,15.22649,os),
(979.00656,-2.04266,os),
(953.77571,-2.04266,c)
);
},
{
closed = 1;
nodes = (
(1034.72191,62.64976,os),
(1017.45276,79.91891,os),
(1017.45276,105.14976,c),
(1017.45276,130.38061,os),
(1034.72191,147.64976,os),
(1059.95276,147.64976,c),
(1085.18361,147.64976,os),
(1102.45276,130.38061,os),
(1102.45276,105.14976,c),
(1102.45276,79.91891,os),
(1085.18361,62.64976,os),
(1059.95276,62.64976,c)
);
},
{
closed = 1;
nodes = (
(1122.81489,150.908,os),
(1105.54573,168.17715,os),
(1105.54573,193.408,c),
(1105.54573,218.63885,os),
(1122.81489,235.908,os),
(1148.04573,235.908,c),
(1173.27658,235.908,os),
(1190.54573,218.63885,os),
(1190.54573,193.408,c),
(1190.54573,168.17715,os),
(1173.27658,150.908,os),
(1148.04573,150.908,c)
);
},
{
closed = 1;
nodes = (
(1191.34214,254.5855,os),
(1174.07299,271.85465,os),
(1174.07299,297.0855,c),
(1174.07299,322.31635,os),
(1191.34214,339.5855,os),
(1216.57299,339.5855,c),
(1241.80384,339.5855,os),
(1259.07299,322.31635,os),
(1259.07299,297.0855,c),
(1259.07299,271.85465,os),
(1241.80384,254.5855,os),
(1216.57299,254.5855,c)
);
},
{
closed = 1;
nodes = (
(1242.49523,368.66608,os),
(1225.22608,385.93523,os),
(1225.22608,411.16608,c),
(1225.22608,436.39693,os),
(1242.49523,453.66608,os),
(1267.72608,453.66608,c),
(1292.95693,453.66608,os),
(1310.22608,436.39693,os),
(1310.22608,411.16608,c),
(1310.22608,385.93523,os),
(1292.95693,368.66608,os),
(1267.72608,368.66608,c)
);
},
{
closed = 1;
nodes = (
(1278.14829,488.15219,os),
(1260.87914,505.42134,os),
(1260.87914,530.65219,c),
(1260.87914,555.88304,os),
(1278.14829,573.15219,os),
(1303.37914,573.15219,c),
(1328.60999,573.15219,os),
(1345.87914,555.88304,os),
(1345.87914,530.65219,c),
(1345.87914,505.42134,os),
(1328.60999,488.15219,os),
(1303.37914,488.15219,c)
);
},
{
closed = 1;
nodes = (
(1300.88657,611.57103,os),
(1283.61742,628.84018,os),
(1283.61742,654.07103,c),
(1283.61742,679.30188,os),
(1300.88657,696.57103,os),
(1326.11742,696.57103,c),
(1351.34826,696.57103,os),
(1368.61742,679.30188,os),
(1368.61742,654.07103,c),
(1368.61742,628.84018,os),
(1351.34826,611.57103,os),
(1326.11742,611.57103,c)
);
},
{
closed = 1;
nodes = (
(1312.4026,735.78254,os),
(1295.13345,753.05169,os),
(1295.13345,778.28254,c),
(1295.13345,803.51338,os),
(1312.4026,820.78254,os),
(1337.63345,820.78254,c),
(1362.8643,820.78254,os),
(1380.13345,803.51338,os),
(1380.13345,778.28254,c),
(1380.13345,753.05169,os),
(1362.8643,735.78254,os),
(1337.63345,735.78254,c)
);
},
{
closed = 1;
nodes = (
(1314.46345,860.17592,os),
(1297.1943,877.44507,os),
(1297.1943,902.67592,c),
(1297.1943,927.90677,os),
(1314.46345,945.17592,os),
(1339.6943,945.17592,c),
(1364.92514,945.17592,os),
(1382.1943,927.90677,os),
(1382.1943,902.67592,c),
(1382.1943,877.44507,os),
(1364.92514,860.17592,os),
(1339.6943,860.17592,c)
);
},
{
closed = 1;
nodes = (
(1307.27615,984.39,os),
(1290.007,1001.65915,os),
(1290.007,1026.89,c),
(1290.007,1052.12085,os),
(1307.27615,1069.39,os),
(1332.507,1069.39,c),
(1357.73785,1069.39,os),
(1375.007,1052.12085,os),
(1375.007,1026.89,c),
(1375.007,1001.65915,os),
(1357.73785,984.39,os),
(1332.507,984.39,c)
);
},
{
closed = 1;
nodes = (
(1289.13579,1107.65972,os),
(1271.86664,1124.92887,os),
(1271.86664,1150.15972,c),
(1271.86664,1175.39057,os),
(1289.13579,1192.65972,os),
(1314.36664,1192.65972,c),
(1339.59749,1192.65972,os),
(1356.86664,1175.39057,os),
(1356.86664,1150.15972,c),
(1356.86664,1124.92887,os),
(1339.59749,1107.65972,os),
(1314.36664,1107.65972,c)
);
},
{
closed = 1;
nodes = (
(1257.88834,1228.1613,os),
(1240.61919,1245.43045,os),
(1240.61919,1270.6613,c),
(1240.61919,1295.89215,os),
(1257.88834,1313.1613,os),
(1283.11919,1313.1613,c),
(1308.35003,1313.1613,os),
(1325.61919,1295.89215,os),
(1325.61919,1270.6613,c),
(1325.61919,1245.43045,os),
(1308.35003,1228.1613,os),
(1283.11919,1228.1613,c)
);
},
{
closed = 1;
nodes = (
(1210.58519,1344.1575,os),
(1193.31604,1361.42666,os),
(1193.31604,1386.6575,c),
(1193.31604,1411.88835,os),
(1210.58519,1429.1575,os),
(1235.81604,1429.1575,c),
(1261.04689,1429.1575,os),
(1278.31604,1411.88835,os),
(1278.31604,1386.6575,c),
(1278.31604,1361.42666,os),
(1261.04689,1344.1575,os),
(1235.81604,1344.1575,c)
);
},
{
closed = 1;
nodes = (
(1144.8867,1450.4117,os),
(1127.61755,1467.68085,os),
(1127.61755,1492.9117,c),
(1127.61755,1518.14255,os),
(1144.8867,1535.4117,os),
(1170.11755,1535.4117,c),
(1195.3484,1535.4117,os),
(1212.61755,1518.14255,os),
(1212.61755,1492.9117,c),
(1212.61755,1467.68085,os),
(1195.3484,1450.4117,os),
(1170.11755,1450.4117,c)
);
},
{
closed = 1;
nodes = (
(1058.94006,1541.15059,os),
(1041.67091,1558.41974,os),
(1041.67091,1583.65059,c),
(1041.67091,1608.88144,os),
(1058.94006,1626.15059,os),
(1084.17091,1626.15059,c),
(1109.40176,1626.15059,os),
(1126.67091,1608.88144,os),
(1126.67091,1583.65059,c),
(1126.67091,1558.41974,os),
(1109.40176,1541.15059,os),
(1084.17091,1541.15059,c)
);
},
{
closed = 1;
nodes = (
(954.10385,1608.85194,os),
(936.8347,1626.12109,os),
(936.8347,1651.35194,c),
(936.8347,1676.58278,os),
(954.10385,1693.85194,os),
(979.3347,1693.85194,c),
(1004.56554,1693.85194,os),
(1021.8347,1676.58278,os),
(1021.8347,1651.35194,c),
(1021.8347,1626.12109,os),
(1004.56554,1608.85194,os),
(979.3347,1608.85194,c)
);
},
{
closed = 1;
nodes = (
(835.49513,1647.89509,os),
(818.22597,1665.16424,os),
(818.22597,1690.39509,c),
(818.22597,1715.62594,os),
(835.49513,1732.89509,os),
(860.72597,1732.89509,c),
(885.95682,1732.89509,os),
(903.22597,1715.62594,os),
(903.22597,1690.39509,c),
(903.22597,1665.16424,os),
(885.95682,1647.89509,os),
(860.72597,1647.89509,c)
);
}
);
width = 1520;
}
);
unicode = 79;
},
{
glyphname = P;
layers = (
{
layerId = m01;
shapes = (
{
closed = 1;
nodes = (
(229.76915,1657.5,os),
(212.5,1674.76915,os),
(212.5,1700,c),
(212.5,1725.23085,os),
(229.76915,1742.5,os),
(255,1742.5,c),
(280.23085,1742.5,os),
(297.5,1725.23085,os),
(297.5,1700,c),
(297.5,1674.76915,os),
(280.23085,1657.5,os),
(255,1657.5,c)
);
},
{
closed = 1;
nodes = (
(229.76915,827.5,os),
(212.5,844.76915,os),
(212.5,870,c),
(212.5,895.23085,os),
(229.76915,912.5,os),
(255,912.5,c),
(280.23085,912.5,os),
(297.5,895.23085,os),
(297.5,870,c),
(297.5,844.76915,os),
(280.23085,827.5,os),
(255,827.5,c)
);
},
{
closed = 1;
nodes = (
(224.76915,-42.5,os),
(207.5,-25.23085,os),
(207.5,0,c),
(207.5,25.23085,os),
(224.76915,42.5,os),
(250,42.5,c),
(275.23085,42.5,os),
(292.5,25.23085,os),
(292.5,0,c),
(292.5,-25.23085,os),
(275.23085,-42.5,os),
(250,-42.5,c)
);
},
{
closed = 1;
nodes = (
(353.64608,1657.5,os),
(336.37693,1674.76915,os),
(336.37693,1700,c),
(336.37693,1725.23085,os),
(353.64608,1742.5,os),
(378.87693,1742.5,c),
(404.10778,1742.5,os),
(421.37693,1725.23085,os),
(421.37693,1700,c),
(421.37693,1674.76915,os),
(404.10778,1657.5,os),
(378.87693,1657.5,c)
);
},
{
closed = 1;
nodes = (
(477.86037,1657.5,os),
(460.59122,1674.76915,os),
(460.59122,1700,c),
(460.59122,1725.23085,os),
(477.86037,1742.5,os),
(503.09122,1742.5,c),
(528.32206,1742.5,os),
(545.59122,1725.23085,os),
(545.59122,1700,c),
(545.59122,1674.76915,os),
(528.32206,1657.5,os),
(503.09122,1657.5,c)
);
},
{
closed = 1;
nodes = (
(601.72974,1657.5,os),
(584.46059,1674.76915,os),
(584.46059,1700,c),
(584.46059,1725.23085,os),
(601.72974,1742.5,os),
(626.96059,1742.5,c),
(652.19143,1742.5,os),
(669.46059,1725.23085,os),
(669.46059,1700,c),
(669.46059,1674.76915,os),
(652.19143,1657.5,os),
(626.96059,1657.5,c)
);
},
{
closed = 1;
nodes = (
(725.52569,1655.51147,os),
(708.25654,1672.78063,os),
(708.25654,1698.01147,c),
(708.25654,1723.24232,os),
(725.52569,1740.51147,os),
(750.75654,1740.51147,c),
(775.98739,1740.51147,os),
(793.25654,1723.24232,os),
(793.25654,1698.01147,c),
(793.25654,1672.78063,os),
(775.98739,1655.51147,os),
(750.75654,1655.51147,c)
);
},
{
closed = 1;
nodes = (
(848.27521,1637.69444,os),
(831.00606,1654.96359,os),
(831.00606,1680.19444,c),
(831.00606,1705.42528,os),
(848.27521,1722.69444,os),
(873.50606,1722.69444,c),
(898.73691,1722.69444,os),
(916.00606,1705.42528,os),
(916.00606,1680.19444,c),
(916.00606,1654.96359,os),
(898.73691,1637.69444,os),
(873.50606,1637.69444,c)
);
},
{
closed = 1;
nodes = (
(965.12593,1597.20253,os),
(947.85677,1614.47168,os),
(947.85677,1639.70253,c),
(947.85677,1664.93338,os),
(965.12593,1682.20253,os),
(990.35677,1682.20253,c),
(1015.58762,1682.20253,os),
(1032.85677,1664.93338,os),
(1032.85677,1639.70253,c),
(1032.85677,1614.47168,os),
(1015.58762,1597.20253,os),
(990.35677,1597.20253,c)
);
},
{
closed = 1;
nodes = (
(1067.21165,1527.78752,os),
(1049.9425,1545.05667,os),
(1049.9425,1570.28752,c),
(1049.9425,1595.51836,os),
(1067.21165,1612.78752,os),
(1092.4425,1612.78752,c),
(1117.67335,1612.78752,os),
(1134.9425,1595.51836,os),
(1134.9425,1570.28752,c),
(1134.9425,1545.05667,os),
(1117.67335,1527.78752,os),
(1092.4425,1527.78752,c)
);
},
{
closed = 1;
nodes = (
(1139.52718,1427.98314,os),
(1122.25803,1445.25229,os),
(1122.25803,1470.48314,c),
(1122.25803,1495.71398,os),
(1139.52718,1512.98314,os),
(1164.75803,1512.98314,c),
(1189.98888,1512.98314,os),
(1207.25803,1495.71398,os),
(1207.25803,1470.48314,c),
(1207.25803,1445.25229,os),
(1189.98888,1427.98314,os),
(1164.75803,1427.98314,c)
);
},
{
closed = 1;
nodes = (
(1172.08529,1308.57655,os),
(1154.81614,1325.8457,os),
(1154.81614,1351.07655,c),
(1154.81614,1376.3074,os),
(1172.08529,1393.57655,os),
(1197.31614,1393.57655,c),
(1222.54698,1393.57655,os),
(1239.81614,1376.3074,os),
(1239.81614,1351.07655,c),
(1239.81614,1325.8457,os),
(1222.54698,1308.57655,os),
(1197.31614,1308.57655,c)
);
},
{
closed = 1;
nodes = (
(1169.23064,1184.41799,os),
(1151.96149,1201.68714,os),
(1151.96149,1226.91799,c),
(1151.96149,1252.14883,os),
(1169.23064,1269.41799,os),
(1194.46149,1269.41799,c),
(1219.69234,1269.41799,os),
(1236.96149,1252.14883,os),
(1236.96149,1226.91799,c),
(1236.96149,1201.68714,os),
(1219.69234,1184.41799,os),
(1194.46149,1184.41799,c)
);
},
{
closed = 1;
nodes = (
(1131.69439,1066.67677,os),
(1114.42524,1083.94592,os),
(1114.42524,1109.17677,c),
(1114.42524,1134.40762,os),
(1131.69439,1151.67677,os),
(1156.92524,1151.67677,c),
(1182.15608,1151.67677,os),
(1199.42524,1134.40762,os),
(1199.42524,1109.17677,c),
(1199.42524,1083.94592,os),
(1182.15608,1066.67677,os),
(1156.92524,1066.67677,c)
);
},
{
closed = 1;
nodes = (
(1058.2746,967.27951,os),
(1041.00544,984.54866,os),
(1041.00544,1009.77951,c),
(1041.00544,1035.01035,os),
(1058.2746,1052.27951,os),
(1083.50544,1052.27951,c),
(1108.73629,1052.27951,os),
(1126.00544,1035.01035,os),
(1126.00544,1009.77951,c),
(1126.00544,984.54866,os),
(1108.73629,967.27951,os),
(1083.50544,967.27951,c)
);
},
{
closed = 1;
nodes = (
(958.12982,894.99963,os),
(940.86067,912.26878,os),
(940.86067,937.49963,c),
(940.86067,962.73048,os),
(958.12982,979.99963,os),
(983.36067,979.99963,c),
(1008.59152,979.99963,os),
(1025.86067,962.73048,os),
(1025.86067,937.49963,c),
(1025.86067,912.26878,os),
(1008.59152,894.99963,os),
(983.36067,894.99963,c)
);
},
{
closed = 1;
nodes = (
(842.43905,850.03488,os),
(825.1699,867.30404,os),
(825.1699,892.53488,c),
(825.1699,917.76573,os),
(842.43905,935.03488,os),
(867.6699,935.03488,c),
(892.90075,935.03488,os),
(910.1699,917.76573,os),
(910.1699,892.53488,c),
(910.1699,867.30404,os),
(892.90075,850.03488,os),
(867.6699,850.03488,c)
);
},
{
closed = 1;
nodes = (
(720.04798,829.56143,os),
(702.77882,846.83058,os),
(702.77882,872.06143,c),
(702.77882,897.29228,os),
(720.04798,914.56143,os),
(745.27882,914.56143,c),
(770.50967,914.56143,os),
(787.77882,897.29228,os),
(787.77882,872.06143,c),
(787.77882,846.83058,os),
(770.50967,829.56143,os),
(745.27882,829.56143,c)
);
},
{
closed = 1;
nodes = (
(596.27229,827.5,os),
(579.00314,844.76915,os),
(579.00314,870,c),
(579.00314,895.23085,os),
(596.27229,912.5,os),
(621.50314,912.5,c),
(646.73399,912.5,os),
(664.00314,895.23085,os),
(664.00314,870,c),
(664.00314,844.76915,os),
(646.73399,827.5,os),
(621.50314,827.5,c)
);
},
{
closed = 1;
nodes = (
(472.3604,827.5,os),
(455.09125,844.76915,os),
(455.09125,870,c),
(455.09125,895.23085,os),
(472.3604,912.5,os),
(497.59125,912.5,c),
(522.8221,912.5,os),
(540.09125,895.23085,os),
(540.09125,870,c),
(540.09125,844.76915,os),
(522.8221,827.5,os),
(497.59125,827.5,c)
);
},
{
closed = 1;
nodes = (
(348.45921,827.5,os),
(331.19006,844.76915,os),
(331.19006,870,c),
(331.19006,895.23085,os),
(348.45921,912.5,os),
(373.69006,912.5,c),
(398.92091,912.5,os),
(416.19006,895.23085,os),
(416.19006,870,c),
(416.19006,844.76915,os),
(398.92091,827.5,os),
(373.69006,827.5,c)
);
},
{
closed = 1;
nodes = (
(224.76915,1535.56956,os),
(207.5,1552.83871,os),
(207.5,1578.06956,c),
(207.5,1603.3004,os),
(224.76915,1620.56956,os),
(250,1620.56956,c),
(275.23085,1620.56956,os),
(292.5,1603.3004,os),
(292.5,1578.06956,c),
(292.5,1552.83871,os),
(275.23085,1535.56956,os),
(250,1535.56956,c)
);
},
{
closed = 1;
nodes = (
(224.76915,1412.78899,os),
(207.5,1430.05814,os),
(207.5,1455.28899,c),
(207.5,1480.51984,os),
(224.76915,1497.78899,os),
(250,1497.78899,c),
(275.23085,1497.78899,os),
(292.5,1480.51984,os),
(292.5,1455.28899,c),
(292.5,1430.05814,os),
(275.23085,1412.78899,os),
(250,1412.78899,c)
);
},
{
closed = 1;
nodes = (
(224.76915,1289.62124,os),
(207.5,1306.89039,os),
(207.5,1332.12124,c),
(207.5,1357.35209,os),
(224.76915,1374.62124,os),
(250,1374.62124,c),
(275.23085,1374.62124,os),
(292.5,1357.35209,os),
(292.5,1332.12124,c),
(292.5,1306.89039,os),
(275.23085,1289.62124,os),
(250,1289.62124,c)
);
},
{
closed = 1;
nodes = (
(224.76915,1166.87366,os),
(207.5,1184.14281,os),
(207.5,1209.37366,c),
(207.5,1234.60451,os),
(224.76915,1251.87366,os),
(250,1251.87366,c),
(275.23085,1251.87366,os),
(292.5,1234.60451,os),
(292.5,1209.37366,c),
(292.5,1184.14281,os),
(275.23085,1166.87366,os),
(250,1166.87366,c)
);
},
{
closed = 1;
nodes = (
(224.76915,1044.7,os),
(207.5,1061.96915,os),
(207.5,1087.2,c),
(207.5,1112.43085,os),
(224.76915,1129.7,os),
(250,1129.7,c),
(275.23085,1129.7,os),
(292.5,1112.43085,os),
(292.5,1087.2,c),
(292.5,1061.96915,os),
(275.23085,1044.7,os),
(250,1044.7,c)
);
},
{
closed = 1;
nodes = (
(224.76915,922.39034,os),
(207.5,939.65949,os),
(207.5,964.89034,c),
(207.5,990.12119,os),
(224.76915,1007.39034,os),
(250,1007.39034,c),
(275.23085,1007.39034,os),
(292.5,990.12119,os),
(292.5,964.89034,c),
(292.5,939.65949,os),
(275.23085,922.39034,os),
(250,922.39034,c)
);
},
{
closed = 1;
nodes = (
(224.76915,678.3409,os),
(207.5,695.61005,os),
(207.5,720.8409,c),
(207.5,746.07175,os),
(224.76915,763.3409,os),
(250,763.3409,c),
(275.23085,763.3409,os),
(292.5,746.07175,os),
(292.5,720.8409,c),
(292.5,695.61005,os),
(275.23085,678.3409,os),
(250,678.3409,c)
);
},
{
closed = 1;
nodes = (
(224.76915,556.43484,os),
(207.5,573.704,os),
(207.5,598.93484,c),
(207.5,624.16569,os),
(224.76915,641.43484,os),
(250,641.43484,c),
(275.23085,641.43484,os),
(292.5,624.16569,os),
(292.5,598.93484,c),
(292.5,573.704,os),
(275.23085,556.43484,os),
(250,556.43484,c)
);
},
{
closed = 1;
nodes = (
(224.76915,434.9688,os),
(207.5,452.23795,os),
(207.5,477.4688,c),
(207.5,502.69965,os),
(224.76915,519.9688,os),
(250,519.9688,c),
(275.23085,519.9688,os),
(292.5,502.69965,os),
(292.5,477.4688,c),
(292.5,452.23795,os),
(275.23085,434.9688,os),
(250,434.9688,c)
);
},
{
closed = 1;
nodes = (
(224.76915,313.30865,os),
(207.5,330.5778,os),
(207.5,355.80865,c),
(207.5,381.0395,os),
(224.76915,398.30865,os),
(250,398.30865,c),
(275.23085,398.30865,os),
(292.5,381.0395,os),
(292.5,355.80865,c),
(292.5,330.5778,os),
(275.23085,313.30865,os),
(250,313.30865,c)
);
},
{
closed = 1;
nodes = (
(224.76915,191.76252,os),
(207.5,209.03168,os),
(207.5,234.26252,c),
(207.5,259.49337,os),
(224.76915,276.76252,os),
(250,276.76252,c),
(275.23085,276.76252,os),
(292.5,259.49337,os),
(292.5,234.26252,c),
(292.5,209.03168,os),
(275.23085,191.76252,os),
(250,191.76252,c)
);
},
{
closed = 1;
nodes = (
(224.76915,70.23001,os),
(207.5,87.49916,os),
(207.5,112.73001,c),
(207.5,137.96086,os),
(224.76915,155.23001,os),
(250,155.23001,c),
(275.23085,155.23001,os),
(292.5,137.96086,os),
(292.5,112.73001,c),
(292.5,87.49916,os),
(275.23085,70.23001,os),
(250,70.23001,c)
);
}
);
width = 1380;
}
);
unicode = 80;
},
{
glyphname = Q;
layers = (
{
layerId = m01;
shapes = (
{
closed = 1;
nodes = (
(794.76915,457.5,os),
(777.5,474.76915,os),
(777.5,500,c),
(777.5,525.23085,os),
(794.76915,542.5,os),
(820,542.5,c),
(845.23085,542.5,os),
(862.5,525.23085,os),
(862.5,500,c),
(862.5,474.76915,os),
(845.23085,457.5,os),
(820,457.5,c)
);
},
{
closed = 1;
nodes = (
(1294.76915,-342.5,os),
(1277.5,-325.23085,os),
(1277.5,-300,c),
(1277.5,-274.76915,os),
(1294.76915,-257.5,os),
(1320,-257.5,c),
(1345.23085,-257.5,os),
(1362.5,-274.76915,os),
(1362.5,-300,c),
(1362.5,-325.23085,os),
(1345.23085,-342.5,os),
(1320,-342.5,c)
);
},
{
closed = 1;
nodes = (
(857.76915,356.7,os),
(840.5,373.96915,os),
(840.5,399.2,c),
(840.5,424.43085,os),
(857.76915,441.7,os),
(883,441.7,c),
(908.23085,441.7,os),
(925.5,424.43085,os),
(925.5,399.2,c),
(925.5,373.96915,os),
(908.23085,356.7,os),
(883,356.7,c)
);
},
{
closed = 1;
nodes = (
(920.26915,256.7,os),
(903,273.96915,os),
(903,299.2,c),
(903,324.43085,os),
(920.26915,341.7,os),
(945.5,341.7,c),
(970.73085,341.7,os),
(988,324.43085,os),
(988,299.2,c),
(988,273.96915,os),
(970.73085,256.7,os),
(945.5,256.7,c)
);
},
{
closed = 1;
nodes = (
(983.26915,155.9,os),
(966,173.16915,os),
(966,198.4,c),
(966,223.63085,os),
(983.26915,240.9,os),
(1008.5,240.9,c),
(1033.73085,240.9,os),
(1051,223.63085,os),
(1051,198.4,c),
(1051,173.16915,os),
(1033.73085,155.9,os),
(1008.5,155.9,c)
);
},
{
closed = 1;
nodes = (
(1045.76915,55.9,os),
(1028.5,73.16915,os),
(1028.5,98.4,c),
(1028.5,123.63085,os),
(1045.76915,140.9,os),
(1071,140.9,c),
(1096.23085,140.9,os),
(1113.5,123.63085,os),
(1113.5,98.4,c),
(1113.5,73.16915,os),
(1096.23085,55.9,os),
(1071,55.9,c)
);
},
{
closed = 1;
nodes = (
(1108.76915,-44.9,os),
(1091.5,-27.63085,os),
(1091.5,-2.4,c),
(1091.5,22.83085,os),
(1108.76915,40.1,os),
(1134,40.1,c),
(1159.23085,40.1,os),
(1176.5,22.83085,os),
(1176.5,-2.4,c),
(1176.5,-27.63085,os),
(1159.23085,-44.9,os),
(1134,-44.9,c)
);
},
{
closed = 1;
nodes = (
(1171.76915,-145.7,os),
(1154.5,-128.43085,os),
(1154.5,-103.2,c),
(1154.5,-77.96915,os),
(1171.76915,-60.7,os),
(1197,-60.7,c),
(1222.23085,-60.7,os),
(1239.5,-77.96915,os),
(1239.5,-103.2,c),
(1239.5,-128.43085,os),
(1222.23085,-145.7,os),
(1197,-145.7,c)
);
},
{
closed = 1;
nodes = (
(1234.76915,-246.5,os),
(1217.5,-229.23085,os),
(1217.5,-204,c),
(1217.5,-178.76915,os),
(1234.76915,-161.5,os),
(1260,-161.5,c),
(1285.23085,-161.5,os),
(1302.5,-178.76915,os),
(1302.5,-204,c),
(1302.5,-229.23085,os),
(1285.23085,-246.5,os),
(1260,-246.5,c)
);
},
{
ref = O;
}
);
width = 1520;
}
);
unicode = 81;
},
{
glyphname = R;
layers = (
{
layerId = m01;
shapes = (
{
closed = 1;
nodes = (
(229.76915,1657.5,os),
(212.5,1674.76915,os),
(212.5,1700,c),
(212.5,1725.23085,os),
(229.76915,1742.5,os),
(255,1742.5,c),
(280.23085,1742.5,os),
(297.5,1725.23085,os),
(297.5,1700,c),
(297.5,1674.76915,os),
(280.23085,1657.5,os),
(255,1657.5,c)
);
},
{
closed = 1;
nodes = (
(484.75468,827.5,os),
(467.48553,844.76915,os),
(467.48553,870,c),
(467.48553,895.23085,os),
(484.75468,912.5,os),
(509.98553,912.5,c),
(535.21638,912.5,os),
(552.48553,895.23085,os),
(552.48553,870,c),
(552.48553,844.76915,os),
(535.21638,827.5,os),
(509.98553,827.5,c)
);
},
{
closed = 1;
nodes = (
(391.50727,827.5,os),
(374.23811,844.76915,os),
(374.23811,870,c),
(374.23811,895.23085,os),
(391.50727,912.5,os),
(416.73811,912.5,c),
(441.96896,912.5,os),
(459.23811,895.23085,os),
(459.23811,870,c),
(459.23811,844.76915,os),
(441.96896,827.5,os),
(416.73811,827.5,c)
);
},
{
closed = 1;
nodes = (
(229.76915,827.5,os),
(212.5,844.76915,os),
(212.5,870,c),
(212.5,895.23085,os),
(229.76915,912.5,os),
(255,912.5,c),
(280.23085,912.5,os),
(297.5,895.23085,os),
(297.5,870,c),
(297.5,844.76915,os),
(280.23085,827.5,os),
(255,827.5,c)
);
},
{
closed = 1;
nodes = (
(224.76915,-42.5,os),
(207.5,-25.23085,os),
(207.5,0,c),
(207.5,25.23085,os),
(224.76915,42.5,os),
(250,42.5,c),
(275.23085,42.5,os),
(292.5,25.23085,os),
(292.5,0,c),
(292.5,-25.23085,os),
(275.23085,-42.5,os),
(250,-42.5,c)
);
},
{
closed = 1;
nodes = (
(1184.76915,-42.5,os),
(1167.5,-25.23085,os),
(1167.5,0,c),
(1167.5,25.23085,os),
(1184.76915,42.5,os),
(1210,42.5,c),
(1235.23085,42.5,os),
(1252.5,25.23085,os),
(1252.5,0,c),
(1252.5,-25.23085,os),
(1235.23085,-42.5,os),
(1210,-42.5,c)
);
},
{
closed = 1;
nodes = (
(348.17707,1657.5,os),
(330.90791,1674.76915,os),
(330.90791,1700,c),
(330.90791,1725.23085,os),
(348.17707,1742.5,os),
(373.40791,1742.5,c),
(398.63876,1742.5,os),
(415.90791,1725.23085,os),
(415.90791,1700,c),
(415.90791,1674.76915,os),
(398.63876,1657.5,os),
(373.40791,1657.5,c)
);
},
{
closed = 1;
nodes = (
(466.50934,1657.5,os),
(449.24018,1674.76915,os),
(449.24018,1700,c),
(449.24018,1725.23085,os),
(466.50934,1742.5,os),
(491.74018,1742.5,c),
(516.97103,1742.5,os),
(534.24018,1725.23085,os),
(534.24018,1700,c),
(534.24018,1674.76915,os),
(516.97103,1657.5,os),
(491.74018,1657.5,c)
);
},
{
closed = 1;
nodes = (
(584.92864,1657.5,os),
(567.65949,1674.76915,os),
(567.65949,1700,c),
(567.65949,1725.23085,os),
(584.92864,1742.5,os),
(610.15949,1742.5,c),
(635.39034,1742.5,os),
(652.65949,1725.23085,os),
(652.65949,1700,c),
(652.65949,1674.76915,os),
(635.39034,1657.5,os),
(610.15949,1657.5,c)
);
},
{
closed = 1;
nodes = (
(703.48079,1655.45812,os),
(686.21164,1672.72728,os),
(686.21164,1697.95812,c),
(686.21164,1723.18897,os),
(703.48079,1740.45812,os),
(728.71164,1740.45812,c),
(753.94249,1740.45812,os),
(771.21164,1723.18897,os),
(771.21164,1697.95812,c),
(771.21164,1672.72728,os),
(753.94249,1655.45812,os),
(728.71164,1655.45812,c)
);
},
{
closed = 1;
nodes = (
(820.47162,1637.27532,os),
(803.20247,1654.54448,os),
(803.20247,1679.77532,c),
(803.20247,1705.00617,os),
(820.47162,1722.27532,os),
(845.70247,1722.27532,c),
(870.93332,1722.27532,os),
(888.20247,1705.00617,os),
(888.20247,1679.77532,c),
(888.20247,1654.54448,os),
(870.93332,1637.27532,os),
(845.70247,1637.27532,c)
);
},
{
closed = 1;
nodes = (
(931.17943,1595.7938,os),
(913.91028,1613.06295,os),
(913.91028,1638.2938,c),
(913.91028,1663.52464,os),
(931.17943,1680.7938,os),
(956.41028,1680.7938,c),
(981.64113,1680.7938,os),
(998.91028,1663.52464,os),
(998.91028,1638.2938,c),
(998.91028,1613.06295,os),
(981.64113,1595.7938,os),
(956.41028,1595.7938,c)
);
},
{
closed = 1;
nodes = (
(1025.92679,1525.82824,os),
(1008.65764,1543.09739,os),
(1008.65764,1568.32824,c),
(1008.65764,1593.55909,os),
(1025.92679,1610.82824,os),
(1051.15764,1610.82824,c),
(1076.38849,1610.82824,os),
(1093.65764,1593.55909,os),
(1093.65764,1568.32824,c),
(1093.65764,1543.09739,os),
(1076.38849,1525.82824,os),
(1051.15764,1525.82824,c)
);
},
{
closed = 1;
nodes = (
(1091.56566,1428.28964,os),
(1074.29651,1445.55879,os),
(1074.29651,1470.78964,c),
(1074.29651,1496.02048,os),
(1091.56566,1513.28964,os),
(1116.79651,1513.28964,c),
(1142.02736,1513.28964,os),
(1159.29651,1496.02048,os),
(1159.29651,1470.78964,c),
(1159.29651,1445.55879,os),
(1142.02736,1428.28964,os),
(1116.79651,1428.28964,c)
);
},
{
closed = 1;
nodes = (
(1121.66525,1313.96172,os),
(1104.3961,1331.23087,os),
(1104.3961,1356.46172,c),
(1104.3961,1381.69257,os),
(1121.66525,1398.96172,os),
(1146.8961,1398.96172,c),
(1172.12694,1398.96172,os),
(1189.3961,1381.69257,os),
(1189.3961,1356.46172,c),
(1189.3961,1331.23087,os),
(1172.12694,1313.96172,os),
(1146.8961,1313.96172,c)
);
},
{
closed = 1;
nodes = (
(1121.11606,1195.92142,os),
(1103.84691,1213.19057,os),
(1103.84691,1238.42142,c),
(1103.84691,1263.65227,os),
(1121.11606,1280.92142,os),
(1146.34691,1280.92142,c),
(1171.57776,1280.92142,os),
(1188.84691,1263.65227,os),
(1188.84691,1238.42142,c),
(1188.84691,1213.19057,os),
(1171.57776,1195.92142,os),
(1146.34691,1195.92142,c)
);
},
{
closed = 1;
nodes = (
(1091.29038,1081.89731,os),
(1074.02122,1099.16646,os),
(1074.02122,1124.39731,c),
(1074.02122,1149.62815,os),
(1091.29038,1166.89731,os),
(1116.52122,1166.89731,c),
(1141.75207,1166.89731,os),
(1159.02122,1149.62815,os),
(1159.02122,1124.39731,c),
(1159.02122,1099.16646,os),
(1141.75207,1081.89731,os),
(1116.52122,1081.89731,c)
);
},
{
closed = 1;
nodes = (
(1029.04971,981.57149,os),
(1011.78055,998.84065,os),
(1011.78055,1024.07149,c),
(1011.78055,1049.30234,os),
(1029.04971,1066.57149,os),
(1054.28055,1066.57149,c),
(1079.5114,1066.57149,os),
(1096.78055,1049.30234,os),
(1096.78055,1024.07149,c),
(1096.78055,998.84065,os),
(1079.5114,981.57149,os),
(1054.28055,981.57149,c)
);
},
{
closed = 1;
nodes = (
(939.40259,905.03125,os),
(922.13344,922.3004,os),
(922.13344,947.53125,c),
(922.13344,972.7621,os),
(939.40259,990.03125,os),
(964.63344,990.03125,c),
(989.86429,990.03125,os),
(1007.13344,972.7621,os),
(1007.13344,947.53125,c),
(1007.13344,922.3004,os),
(989.86429,905.03125,os),
(964.63344,905.03125,c)
);
},
{
closed = 1;
nodes = (
(832.25482,855.53418,os),
(814.98566,872.80334,os),
(814.98566,898.03418,c),
(814.98566,923.26503,os),
(832.25482,940.53418,os),
(857.48566,940.53418,c),
(882.71651,940.53418,os),
(899.98566,923.26503,os),
(899.98566,898.03418,c),
(899.98566,872.80334,os),
(882.71651,855.53418,os),
(857.48566,855.53418,c)
);
},
{
closed = 1;
nodes = (
(716.51107,831.29323,os),
(699.24192,848.56238,os),
(699.24192,873.79323,c),
(699.24192,899.02407,os),
(716.51107,916.29323,os),
(741.74192,916.29323,c),
(766.97276,916.29323,os),
(784.24192,899.02407,os),
(784.24192,873.79323,c),
(784.24192,848.56238,os),
(766.97276,831.29323,os),
(741.74192,831.29323,c)
);
},
{
closed = 1;
nodes = (
(598.44807,827.5,os),
(581.17891,844.76915,os),
(581.17891,870,c),
(581.17891,895.23085,os),
(598.44807,912.5,os),
(623.67891,912.5,c),
(648.90976,912.5,os),
(666.17891,895.23085,os),
(666.17891,870,c),
(666.17891,844.76915,os),
(648.90976,827.5,os),
(623.67891,827.5,c)
);
},
{
closed = 1;
nodes = (
(224.76915,1535.56956,os),
(207.5,1552.83871,os),
(207.5,1578.06956,c),
(207.5,1603.3004,os),
(224.76915,1620.56956,os),
(250,1620.56956,c),
(275.23085,1620.56956,os),
(292.5,1603.3004,os),
(292.5,1578.06956,c),
(292.5,1552.83871,os),
(275.23085,1535.56956,os),
(250,1535.56956,c)
);
},
{
closed = 1;
nodes = (
(224.76915,1412.78899,os),
(207.5,1430.05814,os),
(207.5,1455.28899,c),
(207.5,1480.51984,os),
(224.76915,1497.78899,os),
(250,1497.78899,c),
(275.23085,1497.78899,os),
(292.5,1480.51984,os),
(292.5,1455.28899,c),
(292.5,1430.05814,os),
(275.23085,1412.78899,os),
(250,1412.78899,c)
);
},
{
closed = 1;
nodes = (
(224.76915,1289.62124,os),
(207.5,1306.89039,os),
(207.5,1332.12124,c),
(207.5,1357.35209,os),
(224.76915,1374.62124,os),
(250,1374.62124,c),
(275.23085,1374.62124,os),
(292.5,1357.35209,os),
(292.5,1332.12124,c),
(292.5,1306.89039,os),
(275.23085,1289.62124,os),
(250,1289.62124,c)
);
},
{
closed = 1;
nodes = (
(224.76915,1166.87366,os),
(207.5,1184.14281,os),
(207.5,1209.37366,c),
(207.5,1234.60451,os),
(224.76915,1251.87366,os),
(250,1251.87366,c),
(275.23085,1251.87366,os),
(292.5,1234.60451,os),
(292.5,1209.37366,c),
(292.5,1184.14281,os),
(275.23085,1166.87366,os),
(250,1166.87366,c)
);
},
{
closed = 1;
nodes = (
(224.76915,1044.7,os),
(207.5,1061.96915,os),
(207.5,1087.2,c),
(207.5,1112.43085,os),
(224.76915,1129.7,os),
(250,1129.7,c),
(275.23085,1129.7,os),
(292.5,1112.43085,os),
(292.5,1087.2,c),
(292.5,1061.96915,os),
(275.23085,1044.7,os),
(250,1044.7,c)
);
},
{
closed = 1;
nodes = (
(224.76915,922.39034,os),
(207.5,939.65949,os),
(207.5,964.89034,c),
(207.5,990.12119,os),
(224.76915,1007.39034,os),
(250,1007.39034,c),
(275.23085,1007.39034,os),
(292.5,990.12119,os),
(292.5,964.89034,c),
(292.5,939.65949,os),
(275.23085,922.39034,os),
(250,922.39034,c)
);
},
{
closed = 1;
nodes = (
(224.76915,678.3409,os),
(207.5,695.61005,os),
(207.5,720.8409,c),
(207.5,746.07175,os),
(224.76915,763.3409,os),
(250,763.3409,c),
(275.23085,763.3409,os),
(292.5,746.07175,os),
(292.5,720.8409,c),
(292.5,695.61005,os),
(275.23085,678.3409,os),
(250,678.3409,c)
);
},
{
closed = 1;
nodes = (
(224.76915,556.43484,os),
(207.5,573.704,os),
(207.5,598.93484,c),
(207.5,624.16569,os),
(224.76915,641.43484,os),
(250,641.43484,c),
(275.23085,641.43484,os),
(292.5,624.16569,os),
(292.5,598.93484,c),
(292.5,573.704,os),
(275.23085,556.43484,os),
(250,556.43484,c)
);
},
{
closed = 1;
nodes = (
(224.76915,434.9688,os),
(207.5,452.23795,os),
(207.5,477.4688,c),
(207.5,502.69965,os),
(224.76915,519.9688,os),
(250,519.9688,c),
(275.23085,519.9688,os),
(292.5,502.69965,os),
(292.5,477.4688,c),
(292.5,452.23795,os),
(275.23085,434.9688,os),
(250,434.9688,c)
);
},
{
closed = 1;
nodes = (
(224.76915,313.30865,os),
(207.5,330.5778,os),
(207.5,355.80865,c),
(207.5,381.0395,os),
(224.76915,398.30865,os),
(250,398.30865,c),
(275.23085,398.30865,os),
(292.5,381.0395,os),
(292.5,355.80865,c),
(292.5,330.5778,os),
(275.23085,313.30865,os),
(250,313.30865,c)
);
},
{
closed = 1;
nodes = (
(224.76915,191.76252,os),
(207.5,209.03168,os),
(207.5,234.26252,c),
(207.5,259.49337,os),
(224.76915,276.76252,os),
(250,276.76252,c),
(275.23085,276.76252,os),
(292.5,259.49337,os),
(292.5,234.26252,c),
(292.5,209.03168,os),
(275.23085,191.76252,os),
(250,191.76252,c)
);
},
{
closed = 1;
nodes = (
(224.76915,70.23001,os),
(207.5,87.49916,os),
(207.5,112.73001,c),
(207.5,137.96086,os),
(224.76915,155.23001,os),
(250,155.23001,c),
(275.23085,155.23001,os),
(292.5,137.96086,os),
(292.5,112.73001,c),
(292.5,87.49916,os),
(275.23085,70.23001,os),
(250,70.23001,c)
);
},
{
closed = 1;
nodes = (
(1109.16915,51.46,os),
(1091.9,68.72915,os),
(1091.9,93.96,c),
(1091.9,119.19085,os),
(1109.16915,136.46,os),
(1134.4,136.46,c),
(1159.63085,136.46,os),
(1176.9,119.19085,os),
(1176.9,93.96,c),
(1176.9,68.72915,os),
(1159.63085,51.46,os),
(1134.4,51.46,c)
);
},
{
closed = 1;
nodes = (
(1033.56915,145.42,os),
(1016.3,162.68915,os),
(1016.3,187.92,c),
(1016.3,213.15085,os),
(1033.56915,230.42,os),
(1058.8,230.42,c),
(1084.03085,230.42,os),
(1101.3,213.15085,os),
(1101.3,187.92,c),
(1101.3,162.68915,os),
(1084.03085,145.42,os),
(1058.8,145.42,c)
);
},
{
closed = 1;
nodes = (
(957.96915,239.38,os),
(940.7,256.64915,os),
(940.7,281.88,c),
(940.7,307.11085,os),
(957.96915,324.38,os),
(983.2,324.38,c),
(1008.43085,324.38,os),
(1025.7,307.11085,os),
(1025.7,281.88,c),
(1025.7,256.64915,os),
(1008.43085,239.38,os),
(983.2,239.38,c)
);
},
{
closed = 1;
nodes = (
(882.36915,333.34,os),
(865.1,350.60915,os),
(865.1,375.84,c),
(865.1,401.07085,os),
(882.36915,418.34,os),
(907.6,418.34,c),
(932.83085,418.34,os),
(950.1,401.07085,os),
(950.1,375.84,c),
(950.1,350.60915,os),
(932.83085,333.34,os),
(907.6,333.34,c)
);
},
{
closed = 1;
nodes = (
(806.76915,427.3,os),
(789.5,444.56915,os),
(789.5,469.8,c),
(789.5,495.03085,os),
(806.76915,512.3,os),
(832,512.3,c),
(857.23085,512.3,os),
(874.5,495.03085,os),
(874.5,469.8,c),
(874.5,444.56915,os),
(857.23085,427.3,os),
(832,427.3,c)
);
},
{
closed = 1;
nodes = (
(731.16915,521.26,os),
(713.9,538.52915,os),
(713.9,563.76,c),
(713.9,588.99085,os),
(731.16915,606.26,os),
(756.4,606.26,c),
(781.63085,606.26,os),
(798.9,588.99085,os),
(798.9,563.76,c),
(798.9,538.52915,os),
(781.63085,521.26,os),
(756.4,521.26,c)
);
},
{
closed = 1;
nodes = (
(655.56915,615.22,os),
(638.3,632.48915,os),
(638.3,657.72,c),
(638.3,682.95085,os),
(655.56915,700.22,os),
(680.8,700.22,c),
(706.03085,700.22,os),
(723.3,682.95085,os),
(723.3,657.72,c),
(723.3,632.48915,os),
(706.03085,615.22,os),
(680.8,615.22,c)
);
},
{
closed = 1;
nodes = (
(579.96915,709.18,os),
(562.7,726.44915,os),
(562.7,751.68,c),
(562.7,776.91085,os),
(579.96915,794.18,os),
(605.2,794.18,c),
(630.43085,794.18,os),
(647.7,776.91085,os),
(647.7,751.68,c),
(647.7,726.44915,os),
(630.43085,709.18,os),
(605.2,709.18,c)
);
},
{
closed = 1;
nodes = (
(761.47667,675.26542,os),
(744.20752,692.53457,os),
(744.20752,717.76542,c),
(744.20752,742.99627,os),
(761.47667,760.26542,os),
(786.70752,760.26542,c),
(811.93837,760.26542,os),
(829.20752,742.99627,os),
(829.20752,717.76542,c),
(829.20752,692.53457,os),
(811.93837,675.26542,os),
(786.70752,675.26542,c)
);
},
{
closed = 1;
nodes = (
(828.39452,575.20306,os),
(811.12537,592.47221,os),
(811.12537,617.70306,c),
(811.12537,642.9339,os),
(828.39452,660.20306,os),
(853.62537,660.20306,c),
(878.85622,660.20306,os),
(896.12537,642.9339,os),
(896.12537,617.70306,c),
(896.12537,592.47221,os),
(878.85622,575.20306,os),
(853.62537,575.20306,c)
);
},
{
closed = 1;
nodes = (
(888.59315,471.1,os),
(871.324,488.36915,os),
(871.324,513.6,c),
(871.324,538.83085,os),
(888.59315,556.1,os),
(913.824,556.1,c),
(939.05485,556.1,os),
(956.324,538.83085,os),
(956.324,513.6,c),
(956.324,488.36915,os),
(939.05485,471.1,os),
(913.824,471.1,c)
);
}
);
width = 1380;
}
);
unicode = 82;
},
{
glyphname = S;
layers = (
{
background = {
shapes = (
{
closed = 0;
nodes = (
(1230,1440,l),
(1105,1596,o),
(960,1700,o),
(690,1700,cs),
(376,1700,o),
(237,1508,o),
(237,1305,cs),
(237,1074,o),
(456,973,o),
(700,914,cs),
(973,849,o),
(1261,737,o),
(1261,454,cs),
(1261,206,o),
(1012,0,o),
(730,0,cs),
(503,0,o),
(338,102,o),
(184,300,cs)
);
}
);
};
layerId = m01;
shapes = (
{
closed = 1;
nodes = (
(1204.76915,1397.5,os),
(1187.5,1414.76915,os),
(1187.5,1440,c),
(1187.5,1465.23085,os),
(1204.76915,1482.5,os),
(1230,1482.5,c),
(1255.23085,1482.5,os),
(1272.5,1465.23085,os),
(1272.5,1440,c),
(1272.5,1414.76915,os),
(1255.23085,1397.5,os),
(1230,1397.5,c)
);
},
{
closed = 1;
nodes = (
(164.76915,257.5,os),
(147.5,274.76915,os),
(147.5,300,c),
(147.5,325.23085,os),
(164.76915,342.5,os),
(190,342.5,c),
(215.23085,342.5,os),
(232.5,325.23085,os),
(232.5,300,c),
(232.5,274.76915,os),
(215.23085,257.5,os),
(190,257.5,c)
);
},
{
closed = 1;
nodes = (
(1122.40075,1488.41883,os),
(1105.1316,1505.68798,os),
(1105.1316,1530.91883,c),
(1105.1316,1556.14968,os),
(1122.40075,1573.41883,os),
(1147.6316,1573.41883,c),
(1172.86244,1573.41883,os),
(1190.1316,1556.14968,os),
(1190.1316,1530.91883,c),
(1190.1316,1505.68798,os),
(1172.86244,1488.41883,os),
(1147.6316,1488.41883,c)
);
},
{
closed = 1;
nodes = (
(1026.49626,1564.23069,os),
(1009.22711,1581.49984,os),
(1009.22711,1606.73069,c),
(1009.22711,1631.96154,os),
(1026.49626,1649.23069,os),
(1051.72711,1649.23069,c),
(1076.95796,1649.23069,os),
(1094.22711,1631.96154,os),
(1094.22711,1606.73069,c),
(1094.22711,1581.49984,os),
(1076.95796,1564.23069,os),
(1051.72711,1564.23069,c)
);
},
{
closed = 1;
nodes = (
(916.72102,1618.04744,os),
(899.45187,1635.31659,os),
(899.45187,1660.54744,c),
(899.45187,1685.77828,os),
(916.72102,1703.04744,os),
(941.95187,1703.04744,c),
(967.18271,1703.04744,os),
(984.45187,1685.77828,os),
(984.45187,1660.54744,c),
(984.45187,1635.31659,os),
(967.18271,1618.04744,os),
(941.95187,1618.04744,c)
);
},
{
closed = 1;
nodes = (
(797.65983,1647.90786,os),
(780.39067,1665.17701,os),
(780.39067,1690.40786,c),
(780.39067,1715.63871,os),
(797.65983,1732.90786,os),
(822.89067,1732.90786,c),
(848.12152,1732.90786,os),
(865.39067,1715.63871,os),
(865.39067,1690.40786,c),
(865.39067,1665.17701,os),
(848.12152,1647.90786,os),
(822.89067,1647.90786,c)
);
},
{
closed = 1;
nodes = (
(675.23601,1657.44739,os),
(657.96686,1674.71654,os),
(657.96686,1699.94739,c),
(657.96686,1725.17823,os),
(675.23601,1742.44739,os),
(700.46686,1742.44739,c),
(725.6977,1742.44739,os),
(742.96686,1725.17823,os),
(742.96686,1699.94739,c),
(742.96686,1674.71654,os),
(725.6977,1657.44739,os),
(700.46686,1657.44739,c)
);
},
{
closed = 1;
nodes = (
(552.85413,1648.21761,os),
(535.58498,1665.48676,os),
(535.58498,1690.71761,c),
(535.58498,1715.94846,os),
(552.85413,1733.21761,os),
(578.08498,1733.21761,c),
(603.31582,1733.21761,os),
(620.58498,1715.94846,os),
(620.58498,1690.71761,c),
(620.58498,1665.48676,os),
(603.31582,1648.21761,os),
(578.08498,1648.21761,c)
);
},
{
closed = 1;
nodes = (
(436.11759,1612.74936,os),
(418.84844,1630.01852,os),
(418.84844,1655.24936,c),
(418.84844,1680.48021,os),
(436.11759,1697.74936,os),
(461.34844,1697.74936,c),
(486.57928,1697.74936,os),
(503.84844,1680.48021,os),
(503.84844,1655.24936,c),
(503.84844,1630.01852,os),
(486.57928,1612.74936,os),
(461.34844,1612.74936,c)
);
},
{
closed = 1;
nodes = (
(334.22984,1545.48851,os),
(316.96069,1562.75766,os),
(316.96069,1587.98851,c),
(316.96069,1613.21936,os),
(334.22984,1630.48851,os),
(359.46069,1630.48851,c),
(384.69153,1630.48851,os),
(401.96069,1613.21936,os),
(401.96069,1587.98851,c),
(401.96069,1562.75766,os),
(384.69153,1545.48851,os),
(359.46069,1545.48851,c)
);
},
{
closed = 1;
nodes = (
(260.1455,1448.57557,os),
(242.87635,1465.84472,os),
(242.87635,1491.07557,c),
(242.87635,1516.30641,os),
(260.1455,1533.57557,os),
(285.37635,1533.57557,c),
(310.6072,1533.57557,os),
(327.87635,1516.30641,os),
(327.87635,1491.07557,c),
(327.87635,1465.84472,os),
(310.6072,1448.57557,os),
(285.37635,1448.57557,c)
);
},
{
closed = 1;
nodes = (
(221.22618,1332.9707,os),
(203.95703,1350.23986,os),
(203.95703,1375.4707,c),
(203.95703,1400.70155,os),
(221.22618,1417.9707,os),
(246.45703,1417.9707,c),
(271.68788,1417.9707,os),
(288.95703,1400.70155,os),
(288.95703,1375.4707,c),
(288.95703,1350.23986,os),
(271.68788,1332.9707,os),
(246.45703,1332.9707,c)
);
},
{
closed = 1;
nodes = (
(217.87987,1210.88483,os),
(200.61072,1228.15398,os),
(200.61072,1253.38483,c),
(200.61072,1278.61568,os),
(217.87987,1295.88483,os),
(243.11072,1295.88483,c),
(268.34156,1295.88483,os),
(285.61072,1278.61568,os),
(285.61072,1253.38483,c),
(285.61072,1228.15398,os),
(268.34156,1210.88483,os),
(243.11072,1210.88483,c)
);
},
{
closed = 1;
nodes = (
(258.92754,1096.26858,os),
(241.65839,1113.53774,os),
(241.65839,1138.76858,c),
(241.65839,1163.99943,os),
(258.92754,1181.26858,os),
(284.15839,1181.26858,c),
(309.38923,1181.26858,os),
(326.65839,1163.99943,os),
(326.65839,1138.76858,c),
(326.65839,1113.53774,os),
(309.38923,1096.26858,os),
(284.15839,1096.26858,c)
);
},
{
closed = 1;
nodes = (
(341.80405,1006.59008,os),
(324.5349,1023.85923,os),
(324.5349,1049.09008,c),
(324.5349,1074.32092,os),
(341.80405,1091.59008,os),
(367.0349,1091.59008,c),
(392.26575,1091.59008,os),
(409.5349,1074.32092,os),
(409.5349,1049.09008,c),
(409.5349,1023.85923,os),
(392.26575,1006.59008,os),
(367.0349,1006.59008,c)
);
},
{
closed = 1;
nodes = (
(446.65668,943.69276,os),
(429.38753,960.96191,os),
(429.38753,986.19276,c),
(429.38753,1011.42361,os),
(446.65668,1028.69276,os),
(471.88753,1028.69276,c),
(497.11838,1028.69276,os),
(514.38753,1011.42361,os),
(514.38753,986.19276,c),
(514.38753,960.96191,os),
(497.11838,943.69276,os),
(471.88753,943.69276,c)
);
},
{
closed = 1;
nodes = (
(560.5696,899.33744,os),
(543.30045,916.60659,os),
(543.30045,941.83744,c),
(543.30045,967.06829,os),
(560.5696,984.33744,os),
(585.80045,984.33744,c),
(611.0313,984.33744,os),
(628.30045,967.06829,os),
(628.30045,941.83744,c),
(628.30045,916.60659,os),
(611.0313,899.33744,os),
(585.80045,899.33744,c)
);
},
{
closed = 1;
nodes = (
(678.86516,866.52176,os),
(661.59601,883.79091,os),
(661.59601,909.02176,c),
(661.59601,934.25261,os),
(678.86516,951.52176,os),
(704.09601,951.52176,c),
(729.32686,951.52176,os),
(746.59601,934.25261,os),
(746.59601,909.02176,c),
(746.59601,883.79091,os),
(729.32686,866.52176,os),
(704.09601,866.52176,c)
);
},
{
closed = 1;
nodes = (
(797.54828,834.902,os),
(780.27913,852.17115,os),
(780.27913,877.402,c),
(780.27913,902.63285,os),
(797.54828,919.902,os),
(822.77913,919.902,c),
(848.00997,919.902,os),
(865.27913,902.63285,os),
(865.27913,877.402,c),
(865.27913,852.17115,os),
(848.00997,834.902,os),
(822.77913,834.902,c)
);
},
{
closed = 1;
nodes = (
(913.83131,794.74789,os),
(896.56216,812.01705,os),
(896.56216,837.24789,c),
(896.56216,862.47874,os),
(913.83131,879.74789,os),
(939.06216,879.74789,c),
(964.29301,879.74789,os),
(981.56216,862.47874,os),
(981.56216,837.24789,c),
(981.56216,812.01705,os),
(964.29301,794.74789,os),
(939.06216,794.74789,c)
);
},
{
closed = 1;
nodes = (
(1024.39553,741.599,os),
(1007.12638,758.86815,os),
(1007.12638,784.099,c),
(1007.12638,809.32985,os),
(1024.39553,826.599,os),
(1049.62638,826.599,c),
(1074.85722,826.599,os),
(1092.12638,809.32985,os),
(1092.12638,784.099,c),
(1092.12638,758.86815,os),
(1074.85722,741.599,os),
(1049.62638,741.599,c)
);
},
{
closed = 1;
nodes = (
(1123.26419,669.08507,os),
(1105.99503,686.35423,os),
(1105.99503,711.58507,c),
(1105.99503,736.81592,os),
(1123.26419,754.08507,os),
(1148.49503,754.08507,c),
(1173.72588,754.08507,os),
(1190.99503,736.81592,os),
(1190.99503,711.58507,c),
(1190.99503,686.35423,os),
(1173.72588,669.08507,os),
(1148.49503,669.08507,c)
);
},
{
closed = 1;
nodes = (
(1197.30124,572.36009,os),
(1180.03208,589.62924,os),
(1180.03208,614.86009,c),
(1180.03208,640.09094,os),
(1197.30124,657.36009,os),
(1222.53208,657.36009,c),
(1247.76293,657.36009,os),
(1265.03208,640.09094,os),
(1265.03208,614.86009,c),
(1265.03208,589.62924,os),
(1247.76293,572.36009,os),
(1222.53208,572.36009,c)
);
},
{
closed = 1;
nodes = (
(1232.30587,455.83589,os),
(1215.03672,473.10504,os),
(1215.03672,498.33589,c),
(1215.03672,523.56673,os),
(1232.30587,540.83589,os),
(1257.53672,540.83589,c),
(1282.76757,540.83589,os),
(1300.03672,523.56673,os),
(1300.03672,498.33589,c),
(1300.03672,473.10504,os),
(1282.76757,455.83589,os),
(1257.53672,455.83589,c)
);
},
{
closed = 1;
nodes = (
(1226.51326,333.53548,os),
(1209.2441,350.80463,os),
(1209.2441,376.03548,c),
(1209.2441,401.26633,os),
(1226.51326,418.53548,os),
(1251.7441,418.53548,c),
(1276.97495,418.53548,os),
(1294.2441,401.26633,os),
(1294.2441,376.03548,c),
(1294.2441,350.80463,os),
(1276.97495,333.53548,os),
(1251.7441,333.53548,c)
);
},
{
closed = 1;
nodes = (
(1182.59347,219.20221,os),
(1165.32432,236.47136,os),
(1165.32432,261.70221,c),
(1165.32432,286.93305,os),
(1182.59347,304.20221,os),
(1207.82432,304.20221,c),
(1233.05516,304.20221,os),
(1250.32432,286.93305,os),
(1250.32432,261.70221,c),
(1250.32432,236.47136,os),
(1233.05516,219.20221,os),
(1207.82432,219.20221,c)
);
},
{
closed = 1;
nodes = (
(1108.42924,121.96625,os),
(1091.16009,139.2354,os),
(1091.16009,164.46625,c),
(1091.16009,189.6971,os),
(1108.42924,206.96625,os),
(1133.66009,206.96625,c),
(1158.89093,206.96625,os),
(1176.16009,189.6971,os),
(1176.16009,164.46625,c),
(1176.16009,139.2354,os),
(1158.89093,121.96625,os),
(1133.66009,121.96625,c)
);
},
{
closed = 1;
nodes = (
(1012.49111,45.46874,os),
(995.22196,62.73789,os),
(995.22196,87.96874,c),
(995.22196,113.19959,os),
(1012.49111,130.46874,os),
(1037.72196,130.46874,c),
(1062.95281,130.46874,os),
(1080.22196,113.19959,os),
(1080.22196,87.96874,c),
(1080.22196,62.73789,os),
(1062.95281,45.46874,os),
(1037.72196,45.46874,c)
);
},
{
closed = 1;
nodes = (
(902.01175,-8.08914,os),
(884.7426,9.18001,os),
(884.7426,34.41086,c),
(884.7426,59.6417,os),
(902.01175,76.91086,os),
(927.2426,76.91086,c),
(952.47344,76.91086,os),
(969.7426,59.6417,os),
(969.7426,34.41086,c),
(969.7426,9.18001,os),
(952.47344,-8.08914,os),
(927.2426,-8.08914,c)
);
},
{
closed = 1;
nodes = (
(783.21414,-37.17557,os),
(765.94498,-19.90642,os),
(765.94498,5.32443,c),
(765.94498,30.55528,os),
(783.21414,47.82443,os),
(808.44498,47.82443,c),
(833.67583,47.82443,os),
(850.94498,30.55528,os),
(850.94498,5.32443,c),
(850.94498,-19.90642,os),
(833.67583,-37.17557,os),
(808.44498,-37.17557,c)
);
},
{
closed = 1;
nodes = (
(660.69366,-41.16879,os),
(643.42451,-23.89964,os),
(643.42451,1.33121,c),
(643.42451,26.56206,os),
(660.69366,43.83121,os),
(685.92451,43.83121,c),
(711.15536,43.83121,os),
(728.42451,26.56206,os),
(728.42451,1.33121,c),
(728.42451,-23.89964,os),
(711.15536,-41.16879,os),
(685.92451,-41.16879,c)
);
},
{
closed = 1;
nodes = (
(539.80472,-21.76165,os),
(522.53557,-4.4925,os),
(522.53557,20.73835,c),
(522.53557,45.9692,os),
(539.80472,63.23835,os),
(565.03557,63.23835,c),
(590.26642,63.23835,os),
(607.53557,45.9692,os),
(607.53557,20.73835,c),
(607.53557,-4.4925,os),
(590.26642,-21.76165,os),
(565.03557,-21.76165,c)
);
},
{
closed = 1;
nodes = (
(425.87974,23.06158,os),
(408.61059,40.33073,os),
(408.61059,65.56158,c),
(408.61059,90.79243,os),
(425.87974,108.06158,os),
(451.11059,108.06158,c),
(476.34144,108.06158,os),
(493.61059,90.79243,os),
(493.61059,65.56158,c),
(493.61059,40.33073,os),
(476.34144,23.06158,os),
(451.11059,23.06158,c)
);
},
{
closed = 1;
nodes = (
(324.08438,90.65765,os),
(306.81522,107.9268,os),
(306.81522,133.15765,c),
(306.81522,158.38849,os),
(324.08438,175.65765,os),
(349.31522,175.65765,c),
(374.54607,175.65765,os),
(391.81522,158.38849,os),
(391.81522,133.15765,c),
(391.81522,107.9268,os),
(374.54607,90.65765,os),
(349.31522,90.65765,c)
);
},
{
closed = 1;
nodes = (
(235.09007,174.39335,os),
(217.82092,191.6625,os),
(217.82092,216.89335,c),
(217.82092,242.12419,os),
(235.09007,259.39335,os),
(260.32092,259.39335,c),
(285.55177,259.39335,os),
(302.82092,242.12419,os),
(302.82092,216.89335,c),
(302.82092,191.6625,os),
(285.55177,174.39335,os),
(260.32092,174.39335,c)
);
}
);
width = 1390;
}
);
unicode = 83;
},
{
glyphname = T;
layers = (
{
layerId = m01;
shapes = (
{
closed = 1;
nodes = (
(144.76915,1657.5,os),
(127.5,1674.76915,os),
(127.5,1700,c),
(127.5,1725.23085,os),
(144.76915,1742.5,os),
(170,1742.5,c),
(195.23085,1742.5,os),
(212.5,1725.23085,os),
(212.5,1700,c),
(212.5,1674.76915,os),
(195.23085,1657.5,os),
(170,1657.5,c)
);
},
{
closed = 1;
nodes = (
(1304.76915,1657.5,os),
(1287.5,1674.76915,os),
(1287.5,1700,c),
(1287.5,1725.23085,os),
(1304.76915,1742.5,os),
(1330,1742.5,c),
(1355.23085,1742.5,os),
(1372.5,1725.23085,os),
(1372.5,1700,c),
(1372.5,1674.76915,os),
(1355.23085,1657.5,os),
(1330,1657.5,c)
);
},
{
closed = 1;
nodes = (
(260.85442,1657.5,os),
(243.58527,1674.76915,os),
(243.58527,1700,c),
(243.58527,1725.23085,os),
(260.85442,1742.5,os),
(286.08527,1742.5,c),
(311.31612,1742.5,os),
(328.58527,1725.23085,os),
(328.58527,1700,c),
(328.58527,1674.76915,os),
(311.31612,1657.5,os),
(286.08527,1657.5,c)
);
},
{
closed = 1;
nodes = (
(377.36708,1657.5,os),
(360.09793,1674.76915,os),
(360.09793,1700,c),
(360.09793,1725.23085,os),
(377.36708,1742.5,os),
(402.59793,1742.5,c),
(427.82878,1742.5,os),
(445.09793,1725.23085,os),
(445.09793,1700,c),
(445.09793,1674.76915,os),
(427.82878,1657.5,os),
(402.59793,1657.5,c)
);
},
{
closed = 1;
nodes = (
(493.54882,1657.5,os),
(476.27967,1674.76915,os),
(476.27967,1700,c),
(476.27967,1725.23085,os),
(493.54882,1742.5,os),
(518.77967,1742.5,c),
(544.01052,1742.5,os),
(561.27967,1725.23085,os),
(561.27967,1700,c),
(561.27967,1674.76915,os),
(544.01052,1657.5,os),
(518.77967,1657.5,c)
);
},
{
closed = 1;
nodes = (
(610.93114,1657.5,os),
(593.66199,1674.76915,os),
(593.66199,1700,c),
(593.66199,1725.23085,os),
(610.93114,1742.5,os),
(636.16199,1742.5,c),
(661.39283,1742.5,os),
(678.66199,1725.23085,os),
(678.66199,1700,c),
(678.66199,1674.76915,os),
(661.39283,1657.5,os),
(636.16199,1657.5,c)
);
},
{
closed = 1;
nodes = (
(727.94914,1657.5,os),
(710.67999,1674.76915,os),
(710.67999,1700,c),
(710.67999,1725.23085,os),
(727.94914,1742.5,os),
(753.17999,1742.5,c),
(778.41083,1742.5,os),
(795.67999,1725.23085,os),
(795.67999,1700,c),
(795.67999,1674.76915,os),
(778.41083,1657.5,os),
(753.17999,1657.5,c)
);
},
{
closed = 1;
nodes = (
(844.85411,1657.5,os),
(827.58496,1674.76915,os),
(827.58496,1700,c),
(827.58496,1725.23085,os),
(844.85411,1742.5,os),
(870.08496,1742.5,c),
(895.31581,1742.5,os),
(912.58496,1725.23085,os),
(912.58496,1700,c),
(912.58496,1674.76915,os),
(895.31581,1657.5,os),
(870.08496,1657.5,c)
);
},
{
closed = 1;
nodes = (
(961.87884,1657.5,os),
(944.60969,1674.76915,os),
(944.60969,1700,c),
(944.60969,1725.23085,os),
(961.87884,1742.5,os),
(987.10969,1742.5,c),
(1012.34054,1742.5,os),
(1029.60969,1725.23085,os),
(1029.60969,1700,c),
(1029.60969,1674.76915,os),
(1012.34054,1657.5,os),
(987.10969,1657.5,c)
);
},
{
closed = 1;
nodes = (
(1078.70242,1657.5,os),
(1061.43327,1674.76915,os),
(1061.43327,1700,c),
(1061.43327,1725.23085,os),
(1078.70242,1742.5,os),
(1103.93327,1742.5,c),
(1129.16412,1742.5,os),
(1146.43327,1725.23085,os),
(1146.43327,1700,c),
(1146.43327,1674.76915,os),
(1129.16412,1657.5,os),
(1103.93327,1657.5,c)
);
},
{
closed = 1;
nodes = (
(1194.77002,1657.5,os),
(1177.50086,1674.76915,os),
(1177.50086,1700,c),
(1177.50086,1725.23085,os),
(1194.77002,1742.5,os),
(1220.00086,1742.5,c),
(1245.23171,1742.5,os),
(1262.50086,1725.23085,os),
(1262.50086,1700,c),
(1262.50086,1674.76915,os),
(1245.23171,1657.5,os),
(1220.00086,1657.5,c)
);
},
{
pos = (500,0);
ref = _c.stemLA;
}
);
width = 1500;
}
);
unicode = 84;
},
{
glyphname = U;
layers = (
{
layerId = m01;
shapes = (
{
closed = 1;
nodes = (
(224.76915,1657.5,os),
(207.5,1674.76915,os),
(207.5,1700,c),
(207.5,1725.23085,os),
(224.76915,1742.5,os),
(250,1742.5,c),
(275.23085,1742.5,os),
(292.5,1725.23085,os),
(292.5,1700,c),
(292.5,1674.76915,os),
(275.23085,1657.5,os),
(250,1657.5,c)
);
},
{
closed = 1;
nodes = (
(1364.76915,1657.5,os),
(1347.5,1674.76915,os),
(1347.5,1700,c),
(1347.5,1725.23085,os),
(1364.76915,1742.5,os),
(1390,1742.5,c),
(1415.23085,1742.5,os),
(1432.5,1725.23085,os),
(1432.5,1700,c),
(1432.5,1674.76915,os),
(1415.23085,1657.5,os),
(1390,1657.5,c)
);
},
{
closed = 1;
nodes = (
(224.76915,1534.2926,os),
(207.5,1551.56175,os),
(207.5,1576.7926,c),
(207.5,1602.02345,os),
(224.76915,1619.2926,os),
(250,1619.2926,c),
(275.23085,1619.2926,os),
(292.5,1602.02345,os),
(292.5,1576.7926,c),
(292.5,1551.56175,os),
(275.23085,1534.2926,os),
(250,1534.2926,c)
);
},
{
closed = 1;
nodes = (
(224.76915,1411.55865,os),
(207.5,1428.8278,os),
(207.5,1454.05865,c),
(207.5,1479.2895,os),
(224.76915,1496.55865,os),
(250,1496.55865,c),
(275.23085,1496.55865,os),
(292.5,1479.2895,os),
(292.5,1454.05865,c),
(292.5,1428.8278,os),
(275.23085,1411.55865,os),
(250,1411.55865,c)
);
},
{
closed = 1;
nodes = (
(224.76915,1288.48233,os),
(207.5,1305.75148,os),
(207.5,1330.98233,c),
(207.5,1356.21318,os),
(224.76915,1373.48233,os),
(250,1373.48233,c),
(275.23085,1373.48233,os),
(292.5,1356.21318,os),
(292.5,1330.98233,c),
(292.5,1305.75148,os),
(275.23085,1288.48233,os),
(250,1288.48233,c)
);
},
{
closed = 1;
nodes = (
(224.76915,1165.5997,os),
(207.5,1182.86885,os),
(207.5,1208.0997,c),
(207.5,1233.33055,os),
(224.76915,1250.5997,os),
(250,1250.5997,c),
(275.23085,1250.5997,os),
(292.5,1233.33055,os),
(292.5,1208.0997,c),
(292.5,1182.86885,os),
(275.23085,1165.5997,os),
(250,1165.5997,c)
);
},
{
closed = 1;
nodes = (
(224.76915,1042.29048,os),
(207.5,1059.55963,os),
(207.5,1084.79048,c),
(207.5,1110.02133,os),
(224.76915,1127.29048,os),
(250,1127.29048,c),
(275.23085,1127.29048,os),
(292.5,1110.02133,os),
(292.5,1084.79048,c),
(292.5,1059.55963,os),
(275.23085,1042.29048,os),
(250,1042.29048,c)
);
},
{
closed = 1;
nodes = (
(224.76915,919.02988,os),
(207.5,936.29903,os),
(207.5,961.52988,c),
(207.5,986.76073,os),
(224.76915,1004.02988,os),
(250,1004.02988,c),
(275.23085,1004.02988,os),
(292.5,986.76073,os),
(292.5,961.52988,c),
(292.5,936.29903,os),
(275.23085,919.02988,os),
(250,919.02988,c)
);
},
{
closed = 1;
nodes = (
(224.76915,796.17706,os),
(207.5,813.44621,os),
(207.5,838.67706,c),
(207.5,863.90791,os),
(224.76915,881.17706,os),
(250,881.17706,c),
(275.23085,881.17706,os),
(292.5,863.90791,os),
(292.5,838.67706,c),
(292.5,813.44621,os),
(275.23085,796.17706,os),
(250,796.17706,c)
);
},
{
closed = 1;
nodes = (
(224.76915,673.70068,os),
(207.5,690.96983,os),
(207.5,716.20068,c),
(207.5,741.43152,os),
(224.76915,758.70068,os),
(250,758.70068,c),
(275.23085,758.70068,os),
(292.5,741.43152,os),
(292.5,716.20068,c),
(292.5,690.96983,os),
(275.23085,673.70068,os),
(250,673.70068,c)
);
},
{
closed = 1;
nodes = (
(229.21581,551.22636,os),
(211.94666,568.49551,os),
(211.94666,593.72636,c),
(211.94666,618.95721,os),
(229.21581,636.22636,os),
(254.44666,636.22636,c),
(279.67751,636.22636,os),
(296.94666,618.95721,os),
(296.94666,593.72636,c),
(296.94666,568.49551,os),
(279.67751,551.22636,os),
(254.44666,551.22636,c)
);
},
{
closed = 1;
nodes = (
(247.1522,429.17312,os),
(229.88305,446.44228,os),
(229.88305,471.67312,c),
(229.88305,496.90397,os),
(247.1522,514.17313,os),
(272.38305,514.17313,c),
(297.61389,514.17313,os),
(314.88305,496.90397,os),
(314.88305,471.67312,c),
(314.88305,446.44228,os),
(297.61389,429.17312,os),
(272.38305,429.17312,c)
);
},
{
closed = 1;
nodes = (
(281.61753,311.54281,os),
(264.34837,328.81197,os),
(264.34837,354.04281,c),
(264.34837,379.27366,os),
(281.61753,396.54281,os),
(306.84837,396.54281,c),
(332.07922,396.54281,os),
(349.34837,379.27366,os),
(349.34837,354.04281,c),
(349.34837,328.81197,os),
(332.07922,311.54281,os),
(306.84837,311.54281,c)
);
},
{
closed = 1;
nodes = (
(336.24913,201.24099,os),
(318.97997,218.51014,os),
(318.97997,243.74099,c),
(318.97997,268.97183,os),
(336.24913,286.24099,os),
(361.47997,286.24099,c),
(386.71082,286.24099,os),
(403.97997,268.97183,os),
(403.97997,243.74099,c),
(403.97997,218.51014,os),
(386.71082,201.24099,os),
(361.47997,201.24099,c)
);
},
{
closed = 1;
nodes = (
(412.57045,105.51264,os),
(395.30129,122.7818,os),
(395.30129,148.01264,c),
(395.30129,173.24349,os),
(412.57045,190.51264,os),
(437.80129,190.51264,c),
(463.03214,190.51264,os),
(480.30129,173.24349,os),
(480.30129,148.01264,c),
(480.30129,122.7818,os),
(463.03214,105.51264,os),
(437.80129,105.51264,c)
);
},
{
closed = 1;
nodes = (
(509.52887,30.81148,os),
(492.25972,48.08063,os),
(492.25972,73.31148,c),
(492.25972,98.54233,os),
(509.52887,115.81148,os),
(534.75972,115.81148,c),
(559.99056,115.81148,os),
(577.25972,98.54233,os),
(577.25972,73.31148,c),
(577.25972,48.08063,os),
(559.99056,30.81148,os),
(534.75972,30.81148,c)
);
},
{
closed = 1;
nodes = (
(622.19947,-18.14383,os),
(604.93031,-0.87467,os),
(604.93031,24.35617,c),
(604.93031,49.58702,os),
(622.19947,66.85617,os),
(647.43031,66.85617,c),
(672.66116,66.85617,os),
(689.93031,49.58702,os),
(689.93031,24.35617,c),
(689.93031,-0.87467,os),
(672.66116,-18.14383,os),
(647.43031,-18.14383,c)
);
},
{
closed = 1;
nodes = (
(742.44788,-40.42322,os),
(725.17873,-23.15406,os),
(725.17873,2.07678,c),
(725.17873,27.30763,os),
(742.44788,44.57678,os),
(767.67873,44.57678,c),
(792.90957,44.57678,os),
(810.17873,27.30763,os),
(810.17873,2.07678,c),
(810.17873,-23.15406,os),
(792.90957,-40.42322,os),
(767.67873,-40.42322,c)
);
},
{
closed = 1;
nodes = (
(865.46387,-38.67028,os),
(848.19472,-21.40113,os),
(848.19472,3.82972,c),
(848.19472,29.06057,os),
(865.46387,46.32972,os),
(890.69472,46.32972,c),
(915.92557,46.32972,os),
(933.19472,29.06057,os),
(933.19472,3.82972,c),
(933.19472,-21.40113,os),
(915.92557,-38.67028,os),
(890.69472,-38.67028,c)
);
},
{
closed = 1;
nodes = (
(985.16125,-12.45583,os),
(967.8921,4.81332,os),
(967.8921,30.04417,c),
(967.8921,55.27501,os),
(985.16125,72.54417,os),
(1010.3921,72.54417,c),
(1035.62294,72.54417,os),
(1052.8921,55.27501,os),
(1052.8921,30.04417,c),
(1052.8921,4.81332,os),
(1035.62294,-12.45583,os),
(1010.3921,-12.45583,c)
);
},
{
closed = 1;
nodes = (
(1095.85548,40.5424,os),
(1078.58633,57.81155,os),
(1078.58633,83.0424,c),
(1078.58633,108.27325,os),
(1095.85548,125.5424,os),
(1121.08633,125.5424,c),
(1146.31718,125.5424,os),
(1163.58633,108.27325,os),
(1163.58633,83.0424,c),
(1163.58633,57.81155,os),
(1146.31718,40.5424,os),
(1121.08633,40.5424,c)
);
},
{
closed = 1;
nodes = (
(1189.77098,118.65159,os),
(1172.50183,135.92074,os),
(1172.50183,161.15159,c),
(1172.50183,186.38244,os),
(1189.77098,203.65159,os),
(1215.00183,203.65159,c),
(1240.23267,203.65159,os),
(1257.50183,186.38244,os),
(1257.50183,161.15159,c),
(1257.50183,135.92074,os),
(1240.23267,118.65159,os),
(1215.00183,118.65159,c)
);
},
{
closed = 1;
nodes = (
(1263.00682,217.29076,os),
(1245.73767,234.55991,os),
(1245.73767,259.79076,c),
(1245.73767,285.0216,os),
(1263.00682,302.29076,os),
(1288.23767,302.29076,c),
(1313.46851,302.29076,os),
(1330.73767,285.0216,os),
(1330.73767,259.79076,c),
(1330.73767,234.55991,os),
(1313.46851,217.29076,os),
(1288.23767,217.29076,c)
);
},
{
closed = 1;
nodes = (
(1314.31093,328.89684,os),
(1297.04177,346.16599,os),
(1297.04177,371.39684,c),
(1297.04177,396.62768,os),
(1314.31093,413.89684,os),
(1339.54177,413.89684,c),
(1364.77262,413.89684,os),
(1382.04177,396.62768,os),
(1382.04177,371.39684,c),
(1382.04177,346.16599,os),
(1364.77262,328.89684,os),
(1339.54177,328.89684,c)
);
},
{
closed = 1;
nodes = (
(1346.21302,448.09839,os),
(1328.94387,465.36755,os),
(1328.94387,490.59839,c),
(1328.94387,515.82924,os),
(1346.21302,533.09839,os),
(1371.44387,533.09839,c),
(1396.67472,533.09839,os),
(1413.94387,515.82924,os),
(1413.94387,490.59839,c),
(1413.94387,465.36755,os),
(1396.67472,448.09839,os),
(1371.44387,448.09839,c)
);
},
{
closed = 1;
nodes = (
(1361.78163,569.86582,os),
(1344.51247,587.13497,os),
(1344.51247,612.36582,c),
(1344.51247,637.59667,os),
(1361.78163,654.86582,os),
(1387.01247,654.86582,c),
(1412.24332,654.86582,os),
(1429.51247,637.59667,os),
(1429.51247,612.36582,c),
(1429.51247,587.13497,os),
(1412.24332,569.86582,os),
(1387.01247,569.86582,c)
);
},
{
closed = 1;
nodes = (
(1364.76915,692.41175,os),
(1347.5,709.68091,os),
(1347.5,734.91175,c),
(1347.5,760.1426,os),
(1364.76915,777.41175,os),
(1390,777.41175,c),
(1415.23085,777.41175,os),
(1432.5,760.1426,os),
(1432.5,734.91175,c),
(1432.5,709.68091,os),
(1415.23085,692.41175,os),
(1390,692.41175,c)
);
},
{
closed = 1;
nodes = (
(1364.76915,815.36563,os),
(1347.5,832.63478,os),
(1347.5,857.86563,c),
(1347.5,883.09647,os),
(1364.76915,900.36563,os),
(1390,900.36563,c),
(1415.23085,900.36563,os),
(1432.5,883.09647,os),
(1432.5,857.86563,c),
(1432.5,832.63478,os),
(1415.23085,815.36563,os),
(1390,815.36563,c)
);
},
{
closed = 1;
nodes = (
(1364.76915,938.57045,os),
(1347.5,955.8396,os),
(1347.5,981.07045,c),
(1347.5,1006.3013,os),
(1364.76915,1023.57045,os),
(1390,1023.57045,c),
(1415.23085,1023.57045,os),
(1432.5,1006.3013,os),
(1432.5,981.07045,c),
(1432.5,955.8396,os),
(1415.23085,938.57045,os),
(1390,938.57045,c)
);
},
{
closed = 1;
nodes = (
(1364.76915,1062.15108,os),
(1347.5,1079.42023,os),
(1347.5,1104.65108,c),
(1347.5,1129.88192,os),
(1364.76915,1147.15108,os),
(1390,1147.15108,c),
(1415.23085,1147.15108,os),
(1432.5,1129.88192,os),
(1432.5,1104.65108,c),
(1432.5,1079.42023,os),
(1415.23085,1062.15108,os),
(1390,1062.15108,c)
);
},
{
closed = 1;
nodes = (
(1364.76915,1185.83703,os),
(1347.5,1203.10619,os),
(1347.5,1228.33703,c),
(1347.5,1253.56788,os),
(1364.76915,1270.83703,os),
(1390,1270.83703,c),
(1415.23085,1270.83703,os),
(1432.5,1253.56788,os),
(1432.5,1228.33703,c),
(1432.5,1203.10619,os),
(1415.23085,1185.83703,os),
(1390,1185.83703,c)
);
},
{
closed = 1;
nodes = (
(1364.76915,1309.32584,os),
(1347.5,1326.59499,os),
(1347.5,1351.82584,c),
(1347.5,1377.05669,os),
(1364.76915,1394.32584,os),
(1390,1394.32584,c),
(1415.23085,1394.32584,os),
(1432.5,1377.05669,os),
(1432.5,1351.82584,c),
(1432.5,1326.59499,os),
(1415.23085,1309.32584,os),
(1390,1309.32584,c)
);
},
{
closed = 1;
nodes = (
(1364.76915,1432.67952,os),
(1347.5,1449.94867,os),
(1347.5,1475.17952,c),
(1347.5,1500.41037,os),
(1364.76915,1517.67952,os),
(1390,1517.67952,c),
(1415.23085,1517.67952,os),
(1432.5,1500.41037,os),
(1432.5,1475.17952,c),
(1432.5,1449.94867,os),
(1415.23085,1432.67952,os),
(1390,1432.67952,c)
);
},
{
closed = 1;
nodes = (
(1364.76915,1555.35355,os),
(1347.5,1572.6227,os),
(1347.5,1597.85355,c),
(1347.5,1623.0844,os),
(1364.76915,1640.35355,os),
(1390,1640.35355,c),
(1415.23085,1640.35355,os),
(1432.5,1623.0844,os),
(1432.5,1597.85355,c),
(1432.5,1572.6227,os),
(1415.23085,1555.35355,os),
(1390,1555.35355,c)
);
}
);
width = 1640;
}
);
unicode = 85;
},
{
glyphname = V;
layers = (
{
layerId = m01;
shapes = (
{
closed = 1;
nodes = (
(124.76915,1657.5,os),
(107.5,1674.76915,os),
(107.5,1700,c),
(107.5,1725.23085,os),
(124.76915,1742.5,os),
(150,1742.5,c),
(175.23085,1742.5,os),
(192.5,1725.23085,os),
(192.5,1700,c),
(192.5,1674.76915,os),
(175.23085,1657.5,os),
(150,1657.5,c)
);
},
{
closed = 1;
nodes = (
(724.76915,-42.5,os),
(707.5,-25.23085,os),
(707.5,0,c),
(707.5,25.23085,os),
(724.76915,42.5,os),
(750,42.5,c),
(775.23085,42.5,os),
(792.5,25.23085,os),
(792.5,0,c),
(792.5,-25.23085,os),
(775.23085,-42.5,os),
(750,-42.5,c)
);
},
{
closed = 1;
nodes = (
(1324.76915,1657.5,os),
(1307.5,1674.76915,os),
(1307.5,1700,c),
(1307.5,1725.23085,os),
(1324.76915,1742.5,os),
(1350,1742.5,c),
(1375.23085,1742.5,os),
(1392.5,1725.23085,os),
(1392.5,1700,c),
(1392.5,1674.76915,os),
(1375.23085,1657.5,os),
(1350,1657.5,c)
);
},
{
closed = 1;
nodes = (
(164.96915,1543.6,os),
(147.7,1560.86915,os),
(147.7,1586.1,c),
(147.7,1611.33085,os),
(164.96915,1628.6,os),
(190.2,1628.6,c),
(215.43085,1628.6,os),
(232.7,1611.33085,os),
(232.7,1586.1,c),
(232.7,1560.86915,os),
(215.43085,1543.6,os),
(190.2,1543.6,c)
);
},
{
closed = 1;
nodes = (
(205.16915,1429.7,os),
(187.9,1446.96915,os),
(187.9,1472.2,c),
(187.9,1497.43085,os),
(205.16915,1514.7,os),
(230.4,1514.7,c),
(255.63085,1514.7,os),
(272.9,1497.43085,os),
(272.9,1472.2,c),
(272.9,1446.96915,os),
(255.63085,1429.7,os),
(230.4,1429.7,c)
);
},
{
closed = 1;
nodes = (
(245.36915,1315.8,os),
(228.1,1333.06915,os),
(228.1,1358.3,c),
(228.1,1383.53085,os),
(245.36915,1400.8,os),
(270.6,1400.8,c),
(295.83085,1400.8,os),
(313.1,1383.53085,os),
(313.1,1358.3,c),
(313.1,1333.06915,os),
(295.83085,1315.8,os),
(270.6,1315.8,c)
);
},
{
closed = 1;
nodes = (
(285.56915,1201.9,os),
(268.3,1219.16915,os),
(268.3,1244.4,c),
(268.3,1269.63085,os),
(285.56915,1286.9,os),
(310.8,1286.9,c),
(336.03085,1286.9,os),
(353.3,1269.63085,os),
(353.3,1244.4,c),
(353.3,1219.16915,os),
(336.03085,1201.9,os),
(310.8,1201.9,c)
);
},
{
closed = 1;
nodes = (
(325.76915,1088,os),
(308.5,1105.26915,os),
(308.5,1130.5,c),
(308.5,1155.73085,os),
(325.76915,1173,os),
(351,1173,c),
(376.23085,1173,os),
(393.5,1155.73085,os),
(393.5,1130.5,c),
(393.5,1105.26915,os),
(376.23085,1088,os),
(351,1088,c)
);
},
{
closed = 1;
nodes = (
(365.96915,974.1,os),
(348.7,991.36915,os),
(348.7,1016.6,c),
(348.7,1041.83085,os),
(365.96915,1059.1,os),
(391.2,1059.1,c),
(416.43085,1059.1,os),
(433.7,1041.83085,os),
(433.7,1016.6,c),
(433.7,991.36915,os),
(416.43085,974.1,os),
(391.2,974.1,c)
);
},
{
closed = 1;
nodes = (
(406.16915,860.2,os),
(388.9,877.46915,os),
(388.9,902.7,c),
(388.9,927.93085,os),
(406.16915,945.2,os),
(431.4,945.2,c),
(456.63085,945.2,os),
(473.9,927.93085,os),
(473.9,902.7,c),
(473.9,877.46915,os),
(456.63085,860.2,os),
(431.4,860.2,c)
);
},
{
closed = 1;
nodes = (
(446.36915,746.3,os),
(429.1,763.56915,os),
(429.1,788.8,c),
(429.1,814.03085,os),
(446.36915,831.3,os),
(471.6,831.3,c),
(496.83085,831.3,os),
(514.1,814.03085,os),
(514.1,788.8,c),
(514.1,763.56915,os),
(496.83085,746.3,os),
(471.6,746.3,c)
);
},
{
closed = 1;
nodes = (
(486.56915,632.4,os),
(469.3,649.66915,os),
(469.3,674.9,c),
(469.3,700.13085,os),
(486.56915,717.4,os),
(511.8,717.4,c),
(537.03085,717.4,os),
(554.3,700.13085,os),
(554.3,674.9,c),
(554.3,649.66915,os),
(537.03085,632.4,os),
(511.8,632.4,c)
);
},
{
closed = 1;
nodes = (
(526.76915,518.5,os),
(509.5,535.76915,os),
(509.5,561,c),
(509.5,586.23085,os),
(526.76915,603.5,os),
(552,603.5,c),
(577.23085,603.5,os),
(594.5,586.23085,os),
(594.5,561,c),
(594.5,535.76915,os),
(577.23085,518.5,os),
(552,518.5,c)
);
},
{
closed = 1;
nodes = (
(566.96915,404.6,os),
(549.7,421.86915,os),
(549.7,447.1,c),
(549.7,472.33085,os),
(566.96915,489.6,os),
(592.2,489.6,c),
(617.43085,489.6,os),
(634.7,472.33085,os),
(634.7,447.1,c),
(634.7,421.86915,os),
(617.43085,404.6,os),
(592.2,404.6,c)
);
},
{
closed = 1;
nodes = (
(607.16915,290.7,os),
(589.9,307.96915,os),
(589.9,333.2,c),
(589.9,358.43085,os),
(607.16915,375.7,os),
(632.4,375.7,c),
(657.63085,375.7,os),
(674.9,358.43085,os),
(674.9,333.2,c),
(674.9,307.96915,os),
(657.63085,290.7,os),
(632.4,290.7,c)
);
},
{
closed = 1;
nodes = (
(647.36915,176.8,os),
(630.1,194.06915,os),
(630.1,219.3,c),
(630.1,244.53085,os),
(647.36915,261.8,os),
(672.6,261.8,c),
(697.83085,261.8,os),
(715.1,244.53085,os),
(715.1,219.3,c),
(715.1,194.06915,os),
(697.83085,176.8,os),
(672.6,176.8,c)
);
},
{
closed = 1;
nodes = (
(687.56915,62.9,os),
(670.3,80.16915,os),
(670.3,105.4,c),
(670.3,130.63085,os),
(687.56915,147.9,os),
(712.8,147.9,c),
(738.03085,147.9,os),
(755.3,130.63085,os),
(755.3,105.4,c),
(755.3,80.16915,os),
(738.03085,62.9,os),
(712.8,62.9,c)
);
},
{
closed = 1;
nodes = (
(1283.36915,1540.2,os),
(1266.1,1557.46915,os),
(1266.1,1582.7,c),
(1266.1,1607.93085,os),
(1283.36915,1625.2,os),
(1308.6,1625.2,c),
(1333.83085,1625.2,os),
(1351.1,1607.93085,os),
(1351.1,1582.7,c),
(1351.1,1557.46915,os),
(1333.83085,1540.2,os),
(1308.6,1540.2,c)
);
},
{
closed = 1;
nodes = (
(1241.96915,1422.9,os),
(1224.7,1440.16915,os),
(1224.7,1465.4,c),
(1224.7,1490.63085,os),
(1241.96915,1507.9,os),
(1267.2,1507.9,c),
(1292.43085,1507.9,os),
(1309.7,1490.63085,os),
(1309.7,1465.4,c),
(1309.7,1440.16915,os),
(1292.43085,1422.9,os),
(1267.2,1422.9,c)
);
},
{
closed = 1;
nodes = (
(1200.56915,1305.6,os),
(1183.3,1322.86915,os),
(1183.3,1348.1,c),
(1183.3,1373.33085,os),
(1200.56915,1390.6,os),
(1225.8,1390.6,c),
(1251.03085,1390.6,os),
(1268.3,1373.33085,os),
(1268.3,1348.1,c),
(1268.3,1322.86915,os),
(1251.03085,1305.6,os),
(1225.8,1305.6,c)
);
},
{
closed = 1;
nodes = (
(1159.16915,1188.3,os),
(1141.9,1205.56915,os),
(1141.9,1230.8,c),
(1141.9,1256.03085,os),
(1159.16915,1273.3,os),
(1184.4,1273.3,c),
(1209.63085,1273.3,os),
(1226.9,1256.03085,os),
(1226.9,1230.8,c),
(1226.9,1205.56915,os),
(1209.63085,1188.3,os),
(1184.4,1188.3,c)
);
},
{
closed = 1;
nodes = (
(1117.76915,1071,os),
(1100.5,1088.26915,os),
(1100.5,1113.5,c),
(1100.5,1138.73085,os),
(1117.76915,1156,os),
(1143,1156,c),
(1168.23085,1156,os),
(1185.5,1138.73085,os),
(1185.5,1113.5,c),
(1185.5,1088.26915,os),
(1168.23085,1071,os),
(1143,1071,c)
);
},
{
closed = 1;
nodes = (
(1076.36915,953.7,os),
(1059.1,970.96915,os),
(1059.1,996.2,c),
(1059.1,1021.43085,os),
(1076.36915,1038.7,os),
(1101.6,1038.7,c),
(1126.83085,1038.7,os),
(1144.1,1021.43085,os),
(1144.1,996.2,c),
(1144.1,970.96915,os),
(1126.83085,953.7,os),
(1101.6,953.7,c)
);
},
{
closed = 1;
nodes = (
(1034.96915,836.4,os),
(1017.7,853.66915,os),
(1017.7,878.9,c),
(1017.7,904.13085,os),
(1034.96915,921.4,os),
(1060.2,921.4,c),
(1085.43085,921.4,os),
(1102.7,904.13085,os),
(1102.7,878.9,c),
(1102.7,853.66915,os),
(1085.43085,836.4,os),
(1060.2,836.4,c)
);
},
{
closed = 1;
nodes = (
(993.56915,719.1,os),
(976.3,736.36915,os),
(976.3,761.6,c),
(976.3,786.83085,os),
(993.56915,804.1,os),
(1018.8,804.1,c),
(1044.03085,804.1,os),
(1061.3,786.83085,os),
(1061.3,761.6,c),
(1061.3,736.36915,os),
(1044.03085,719.1,os),
(1018.8,719.1,c)
);
},
{
closed = 1;
nodes = (
(952.16915,601.8,os),
(934.9,619.06915,os),
(934.9,644.3,c),
(934.9,669.53085,os),
(952.16915,686.8,os),
(977.4,686.8,c),
(1002.63085,686.8,os),
(1019.9,669.53085,os),
(1019.9,644.3,c),
(1019.9,619.06915,os),
(1002.63085,601.8,os),
(977.4,601.8,c)
);
},
{
closed = 1;
nodes = (
(910.76915,484.5,os),
(893.5,501.76915,os),
(893.5,527,c),
(893.5,552.23085,os),
(910.76915,569.5,os),
(936,569.5,c),
(961.23085,569.5,os),
(978.5,552.23085,os),
(978.5,527,c),
(978.5,501.76915,os),
(961.23085,484.5,os),
(936,484.5,c)
);
},
{
closed = 1;
nodes = (
(869.36915,367.2,os),
(852.1,384.46915,os),
(852.1,409.7,c),
(852.1,434.93085,os),
(869.36915,452.2,os),
(894.6,452.2,c),
(919.83085,452.2,os),
(937.1,434.93085,os),
(937.1,409.7,c),
(937.1,384.46915,os),
(919.83085,367.2,os),
(894.6,367.2,c)
);
},
{
closed = 1;
nodes = (
(827.96915,249.9,os),
(810.7,267.16915,os),
(810.7,292.4,c),
(810.7,317.63085,os),
(827.96915,334.9,os),
(853.2,334.9,c),
(878.43085,334.9,os),
(895.7,317.63085,os),
(895.7,292.4,c),
(895.7,267.16915,os),
(878.43085,249.9,os),
(853.2,249.9,c)
);
},
{
closed = 1;
nodes = (
(786.56915,132.6,os),
(769.3,149.86915,os),
(769.3,175.1,c),
(769.3,200.33085,os),
(786.56915,217.6,os),
(811.8,217.6,c),
(837.03085,217.6,os),
(854.3,200.33085,os),
(854.3,175.1,c),
(854.3,149.86915,os),
(837.03085,132.6,os),
(811.8,132.6,c)
);
}
);
width = 1500;
}
);
unicode = 86;
},
